G04 EAGLE Gerber RS-274X export*
G75*
%MOMM*%
%FSLAX34Y34*%
%LPD*%
%INCopper Layer 2*%
%IPPOS*%
%AMOC8*
5,1,8,0,0,1.08239X$1,22.5*%
G01*
%ADD10C,1.244600*%
%ADD11C,1.400000*%
%ADD12C,1.960000*%
%ADD13C,4.191000*%
%ADD14C,1.288000*%
%ADD15C,3.220000*%
%ADD16C,4.016000*%
%ADD17C,0.609600*%

G36*
X746907Y78902D02*
X746907Y78902D01*
X746997Y78908D01*
X747063Y78929D01*
X747132Y78941D01*
X747214Y78978D01*
X747299Y79006D01*
X747358Y79043D01*
X747422Y79072D01*
X747492Y79128D01*
X747568Y79176D01*
X747616Y79227D01*
X747670Y79270D01*
X747725Y79342D01*
X747786Y79407D01*
X747820Y79469D01*
X747862Y79524D01*
X747933Y79669D01*
X749173Y82664D01*
X755536Y89027D01*
X758676Y90327D01*
X758701Y90342D01*
X758729Y90351D01*
X758839Y90420D01*
X758952Y90485D01*
X758973Y90505D01*
X758998Y90521D01*
X759087Y90616D01*
X759180Y90706D01*
X759196Y90731D01*
X759216Y90753D01*
X759279Y90867D01*
X759347Y90977D01*
X759355Y91005D01*
X759370Y91031D01*
X759402Y91157D01*
X759440Y91281D01*
X759442Y91311D01*
X759449Y91339D01*
X759459Y91500D01*
X759459Y110581D01*
X759458Y110590D01*
X759459Y110599D01*
X759438Y110748D01*
X759419Y110896D01*
X759416Y110905D01*
X759415Y110914D01*
X759363Y111066D01*
X758809Y112402D01*
X758809Y116198D01*
X759363Y117534D01*
X759365Y117543D01*
X759370Y117551D01*
X759393Y117641D01*
X759397Y117650D01*
X759402Y117677D01*
X759407Y117696D01*
X759447Y117841D01*
X759447Y117850D01*
X759449Y117859D01*
X759455Y117953D01*
X759457Y117962D01*
X759456Y117971D01*
X759459Y118019D01*
X759459Y135981D01*
X759458Y135990D01*
X759459Y135999D01*
X759438Y136148D01*
X759419Y136296D01*
X759416Y136305D01*
X759415Y136314D01*
X759363Y136466D01*
X758809Y137802D01*
X758809Y141598D01*
X759363Y142934D01*
X759365Y142943D01*
X759370Y142951D01*
X759384Y143008D01*
X759397Y143035D01*
X759412Y143116D01*
X759447Y143241D01*
X759447Y143250D01*
X759449Y143259D01*
X759454Y143331D01*
X759457Y143347D01*
X759456Y143363D01*
X759459Y143419D01*
X759459Y161381D01*
X759458Y161390D01*
X759459Y161399D01*
X759438Y161548D01*
X759419Y161696D01*
X759416Y161705D01*
X759415Y161714D01*
X759363Y161866D01*
X758809Y163202D01*
X758809Y166998D01*
X759363Y168334D01*
X759365Y168343D01*
X759370Y168351D01*
X759379Y168388D01*
X759394Y168420D01*
X759412Y168516D01*
X759447Y168641D01*
X759447Y168650D01*
X759449Y168659D01*
X759454Y168731D01*
X759454Y168732D01*
X759454Y168733D01*
X759459Y168819D01*
X759459Y186781D01*
X759458Y186790D01*
X759459Y186799D01*
X759438Y186948D01*
X759419Y187096D01*
X759416Y187105D01*
X759415Y187114D01*
X759363Y187266D01*
X758809Y188602D01*
X758809Y192398D01*
X759363Y193734D01*
X759365Y193743D01*
X759370Y193751D01*
X759378Y193784D01*
X759388Y193805D01*
X759400Y193870D01*
X759407Y193896D01*
X759447Y194041D01*
X759447Y194050D01*
X759449Y194059D01*
X759459Y194219D01*
X759459Y212181D01*
X759458Y212190D01*
X759459Y212199D01*
X759438Y212348D01*
X759419Y212496D01*
X759416Y212505D01*
X759415Y212514D01*
X759363Y212666D01*
X758809Y214002D01*
X758809Y217798D01*
X759363Y219134D01*
X759365Y219143D01*
X759370Y219151D01*
X759377Y219180D01*
X759382Y219190D01*
X759387Y219220D01*
X759407Y219296D01*
X759447Y219441D01*
X759447Y219450D01*
X759449Y219459D01*
X759459Y219619D01*
X759459Y237581D01*
X759458Y237590D01*
X759459Y237599D01*
X759438Y237748D01*
X759419Y237896D01*
X759416Y237905D01*
X759415Y237914D01*
X759363Y238066D01*
X758809Y239402D01*
X758809Y243198D01*
X759363Y244534D01*
X759365Y244543D01*
X759370Y244551D01*
X759407Y244696D01*
X759447Y244841D01*
X759447Y244850D01*
X759449Y244859D01*
X759459Y245019D01*
X759459Y262981D01*
X759458Y262990D01*
X759459Y262999D01*
X759438Y263148D01*
X759419Y263296D01*
X759416Y263305D01*
X759415Y263314D01*
X759363Y263466D01*
X758809Y264802D01*
X758809Y268598D01*
X759363Y269934D01*
X759365Y269943D01*
X759370Y269951D01*
X759407Y270096D01*
X759447Y270241D01*
X759447Y270250D01*
X759449Y270259D01*
X759459Y270419D01*
X759459Y288381D01*
X759458Y288390D01*
X759459Y288399D01*
X759438Y288548D01*
X759419Y288696D01*
X759416Y288705D01*
X759415Y288714D01*
X759363Y288866D01*
X758809Y290202D01*
X758809Y293998D01*
X759363Y295334D01*
X759365Y295343D01*
X759370Y295351D01*
X759407Y295496D01*
X759447Y295641D01*
X759447Y295650D01*
X759449Y295659D01*
X759459Y295819D01*
X759459Y313781D01*
X759458Y313790D01*
X759459Y313799D01*
X759438Y313948D01*
X759419Y314096D01*
X759416Y314105D01*
X759415Y314114D01*
X759363Y314266D01*
X758809Y315602D01*
X758809Y319398D01*
X759363Y320734D01*
X759365Y320743D01*
X759370Y320751D01*
X759407Y320896D01*
X759447Y321041D01*
X759447Y321050D01*
X759449Y321059D01*
X759459Y321219D01*
X759459Y339181D01*
X759458Y339190D01*
X759459Y339199D01*
X759438Y339348D01*
X759419Y339496D01*
X759416Y339505D01*
X759415Y339514D01*
X759363Y339666D01*
X758809Y341002D01*
X758809Y344798D01*
X759363Y346134D01*
X759365Y346143D01*
X759370Y346151D01*
X759407Y346296D01*
X759447Y346441D01*
X759447Y346450D01*
X759449Y346459D01*
X759459Y346619D01*
X759459Y364581D01*
X759458Y364590D01*
X759459Y364599D01*
X759438Y364748D01*
X759419Y364896D01*
X759416Y364905D01*
X759415Y364914D01*
X759363Y365066D01*
X758809Y366402D01*
X758809Y370198D01*
X759363Y371534D01*
X759365Y371543D01*
X759370Y371551D01*
X759407Y371696D01*
X759447Y371841D01*
X759447Y371850D01*
X759449Y371859D01*
X759459Y372019D01*
X759459Y389981D01*
X759458Y389990D01*
X759459Y389999D01*
X759438Y390148D01*
X759419Y390296D01*
X759416Y390305D01*
X759415Y390314D01*
X759363Y390466D01*
X758809Y391802D01*
X758809Y395598D01*
X759363Y396934D01*
X759365Y396943D01*
X759370Y396951D01*
X759407Y397096D01*
X759447Y397241D01*
X759447Y397250D01*
X759449Y397259D01*
X759459Y397419D01*
X759459Y415381D01*
X759458Y415390D01*
X759459Y415399D01*
X759438Y415548D01*
X759419Y415696D01*
X759416Y415705D01*
X759415Y415714D01*
X759363Y415866D01*
X758809Y417202D01*
X758809Y420998D01*
X759363Y422334D01*
X759365Y422343D01*
X759370Y422351D01*
X759407Y422496D01*
X759447Y422641D01*
X759447Y422650D01*
X759449Y422659D01*
X759459Y422819D01*
X759459Y440781D01*
X759458Y440790D01*
X759459Y440799D01*
X759438Y440948D01*
X759419Y441096D01*
X759416Y441105D01*
X759415Y441114D01*
X759363Y441266D01*
X758809Y442602D01*
X758809Y446398D01*
X759363Y447734D01*
X759365Y447743D01*
X759370Y447751D01*
X759407Y447896D01*
X759447Y448041D01*
X759447Y448050D01*
X759449Y448059D01*
X759459Y448219D01*
X759459Y466181D01*
X759458Y466190D01*
X759459Y466199D01*
X759438Y466348D01*
X759419Y466496D01*
X759416Y466505D01*
X759415Y466514D01*
X759363Y466666D01*
X758809Y468002D01*
X758809Y471798D01*
X759363Y473134D01*
X759365Y473143D01*
X759370Y473151D01*
X759407Y473296D01*
X759447Y473441D01*
X759447Y473450D01*
X759449Y473459D01*
X759459Y473619D01*
X759459Y491581D01*
X759458Y491590D01*
X759459Y491599D01*
X759438Y491748D01*
X759419Y491896D01*
X759416Y491905D01*
X759415Y491914D01*
X759363Y492066D01*
X758809Y493402D01*
X758809Y497198D01*
X759363Y498534D01*
X759365Y498543D01*
X759370Y498551D01*
X759407Y498696D01*
X759447Y498841D01*
X759447Y498850D01*
X759449Y498859D01*
X759459Y499019D01*
X759459Y504190D01*
X759444Y504308D01*
X759437Y504427D01*
X759424Y504465D01*
X759419Y504506D01*
X759376Y504616D01*
X759339Y504729D01*
X759317Y504764D01*
X759302Y504801D01*
X759233Y504897D01*
X759169Y504998D01*
X759139Y505026D01*
X759116Y505059D01*
X759024Y505135D01*
X758937Y505216D01*
X758902Y505236D01*
X758871Y505261D01*
X758763Y505312D01*
X758659Y505370D01*
X758619Y505380D01*
X758583Y505397D01*
X758466Y505419D01*
X758351Y505449D01*
X758291Y505453D01*
X758271Y505457D01*
X758250Y505455D01*
X758190Y505459D01*
X12748Y505459D01*
X12610Y505442D01*
X12471Y505429D01*
X12452Y505422D01*
X12432Y505419D01*
X12303Y505368D01*
X12172Y505321D01*
X12155Y505310D01*
X12136Y505302D01*
X12024Y505221D01*
X11909Y505143D01*
X11895Y505127D01*
X11879Y505116D01*
X11790Y505008D01*
X11698Y504904D01*
X11689Y504886D01*
X11676Y504871D01*
X11617Y504745D01*
X11554Y504621D01*
X11549Y504601D01*
X11541Y504583D01*
X11515Y504447D01*
X11484Y504311D01*
X11485Y504290D01*
X11481Y504271D01*
X11490Y504132D01*
X11494Y503993D01*
X11499Y503973D01*
X11501Y503953D01*
X11543Y503821D01*
X11582Y503687D01*
X11592Y503670D01*
X11599Y503651D01*
X11673Y503533D01*
X11744Y503413D01*
X11762Y503392D01*
X11769Y503382D01*
X11784Y503368D01*
X11850Y503293D01*
X14438Y500704D01*
X15891Y497198D01*
X15891Y493402D01*
X14438Y489896D01*
X11754Y487212D01*
X8248Y485759D01*
X4452Y485759D01*
X4296Y485824D01*
X4248Y485837D01*
X4203Y485858D01*
X4095Y485879D01*
X3989Y485908D01*
X3939Y485909D01*
X3890Y485918D01*
X3781Y485911D01*
X3671Y485913D01*
X3623Y485902D01*
X3573Y485898D01*
X3469Y485865D01*
X3362Y485839D01*
X3318Y485816D01*
X3271Y485800D01*
X3178Y485742D01*
X3081Y485690D01*
X3044Y485657D01*
X3002Y485630D01*
X2926Y485550D01*
X2845Y485476D01*
X2818Y485435D01*
X2784Y485399D01*
X2731Y485302D01*
X2671Y485211D01*
X2654Y485164D01*
X2630Y485120D01*
X2603Y485014D01*
X2567Y484910D01*
X2563Y484860D01*
X2551Y484812D01*
X2541Y484651D01*
X2541Y480549D01*
X2547Y480499D01*
X2545Y480450D01*
X2567Y480342D01*
X2581Y480233D01*
X2599Y480187D01*
X2609Y480138D01*
X2657Y480039D01*
X2698Y479937D01*
X2727Y479897D01*
X2749Y479852D01*
X2820Y479769D01*
X2884Y479680D01*
X2923Y479648D01*
X2955Y479610D01*
X3045Y479547D01*
X3129Y479477D01*
X3174Y479456D01*
X3215Y479427D01*
X3318Y479388D01*
X3417Y479342D01*
X3466Y479332D01*
X3512Y479315D01*
X3622Y479302D01*
X3729Y479282D01*
X3779Y479285D01*
X3829Y479279D01*
X3937Y479295D01*
X4047Y479302D01*
X4094Y479317D01*
X4143Y479324D01*
X4296Y479376D01*
X4452Y479441D01*
X8248Y479441D01*
X11754Y477988D01*
X13426Y476316D01*
X13466Y476286D01*
X13499Y476249D01*
X13546Y476218D01*
X13550Y476214D01*
X13561Y476208D01*
X13591Y476189D01*
X13678Y476121D01*
X13723Y476101D01*
X13765Y476074D01*
X13869Y476038D01*
X13970Y475995D01*
X14019Y475987D01*
X14066Y475971D01*
X14175Y475962D01*
X14284Y475945D01*
X14333Y475950D01*
X14383Y475946D01*
X14491Y475964D01*
X14600Y475975D01*
X14647Y475992D01*
X14696Y476000D01*
X14796Y476045D01*
X14900Y476082D01*
X14941Y476110D01*
X14986Y476131D01*
X15072Y476199D01*
X15163Y476261D01*
X15196Y476298D01*
X15234Y476329D01*
X15300Y476417D01*
X15373Y476499D01*
X15396Y476544D01*
X15426Y476583D01*
X15497Y476728D01*
X18181Y483209D01*
X24791Y489819D01*
X33426Y493396D01*
X42774Y493396D01*
X51409Y489819D01*
X58019Y483209D01*
X61596Y474574D01*
X61596Y465226D01*
X58019Y456591D01*
X51409Y449981D01*
X42774Y446404D01*
X33426Y446404D01*
X24791Y449981D01*
X18181Y456591D01*
X15497Y463072D01*
X15472Y463115D01*
X15455Y463162D01*
X15394Y463253D01*
X15339Y463348D01*
X15304Y463384D01*
X15277Y463425D01*
X15194Y463498D01*
X15118Y463577D01*
X15075Y463603D01*
X15038Y463636D01*
X14940Y463686D01*
X14847Y463743D01*
X14799Y463758D01*
X14755Y463780D01*
X14648Y463804D01*
X14543Y463837D01*
X14493Y463839D01*
X14445Y463850D01*
X14335Y463847D01*
X14225Y463852D01*
X14177Y463842D01*
X14127Y463840D01*
X14021Y463810D01*
X13914Y463787D01*
X13869Y463766D01*
X13821Y463752D01*
X13727Y463696D01*
X13628Y463648D01*
X13590Y463615D01*
X13547Y463590D01*
X13426Y463484D01*
X11754Y461812D01*
X8248Y460359D01*
X4452Y460359D01*
X4296Y460424D01*
X4248Y460437D01*
X4203Y460458D01*
X4095Y460479D01*
X3989Y460508D01*
X3939Y460509D01*
X3890Y460518D01*
X3781Y460511D01*
X3671Y460513D01*
X3623Y460502D01*
X3573Y460498D01*
X3469Y460465D01*
X3362Y460439D01*
X3318Y460416D01*
X3271Y460400D01*
X3178Y460342D01*
X3081Y460290D01*
X3044Y460257D01*
X3002Y460230D01*
X2926Y460150D01*
X2845Y460076D01*
X2818Y460035D01*
X2784Y459999D01*
X2731Y459902D01*
X2671Y459811D01*
X2654Y459764D01*
X2630Y459720D01*
X2603Y459614D01*
X2567Y459510D01*
X2563Y459460D01*
X2551Y459412D01*
X2541Y459251D01*
X2541Y455149D01*
X2547Y455099D01*
X2545Y455050D01*
X2567Y454942D01*
X2581Y454833D01*
X2599Y454787D01*
X2609Y454738D01*
X2657Y454639D01*
X2698Y454537D01*
X2727Y454497D01*
X2749Y454452D01*
X2820Y454369D01*
X2884Y454280D01*
X2923Y454248D01*
X2955Y454210D01*
X3045Y454147D01*
X3129Y454077D01*
X3174Y454056D01*
X3215Y454027D01*
X3318Y453988D01*
X3417Y453942D01*
X3466Y453932D01*
X3512Y453915D01*
X3622Y453902D01*
X3729Y453882D01*
X3779Y453885D01*
X3829Y453879D01*
X3937Y453895D01*
X4047Y453902D01*
X4094Y453917D01*
X4143Y453924D01*
X4296Y453976D01*
X4452Y454041D01*
X8248Y454041D01*
X11754Y452588D01*
X14438Y449904D01*
X15891Y446398D01*
X15891Y442602D01*
X14438Y439096D01*
X11754Y436412D01*
X8248Y434959D01*
X4452Y434959D01*
X4296Y435024D01*
X4248Y435037D01*
X4203Y435058D01*
X4095Y435079D01*
X3989Y435108D01*
X3939Y435109D01*
X3890Y435118D01*
X3781Y435111D01*
X3671Y435113D01*
X3623Y435102D01*
X3573Y435098D01*
X3469Y435065D01*
X3362Y435039D01*
X3318Y435016D01*
X3271Y435000D01*
X3178Y434942D01*
X3081Y434890D01*
X3044Y434857D01*
X3002Y434830D01*
X2926Y434750D01*
X2845Y434676D01*
X2818Y434635D01*
X2784Y434599D01*
X2731Y434502D01*
X2671Y434411D01*
X2654Y434364D01*
X2630Y434320D01*
X2603Y434214D01*
X2567Y434110D01*
X2563Y434060D01*
X2551Y434012D01*
X2541Y433851D01*
X2541Y429749D01*
X2547Y429699D01*
X2545Y429650D01*
X2567Y429542D01*
X2581Y429433D01*
X2599Y429387D01*
X2609Y429338D01*
X2657Y429239D01*
X2698Y429137D01*
X2727Y429097D01*
X2749Y429052D01*
X2820Y428969D01*
X2884Y428880D01*
X2923Y428848D01*
X2955Y428810D01*
X3045Y428747D01*
X3129Y428677D01*
X3174Y428656D01*
X3215Y428627D01*
X3318Y428588D01*
X3417Y428542D01*
X3466Y428532D01*
X3512Y428515D01*
X3622Y428502D01*
X3729Y428482D01*
X3779Y428485D01*
X3829Y428479D01*
X3937Y428495D01*
X4047Y428502D01*
X4094Y428517D01*
X4143Y428524D01*
X4296Y428576D01*
X4452Y428641D01*
X8248Y428641D01*
X11754Y427188D01*
X14438Y424504D01*
X15891Y420998D01*
X15891Y417202D01*
X14438Y413696D01*
X11754Y411012D01*
X8248Y409559D01*
X4452Y409559D01*
X4296Y409624D01*
X4248Y409637D01*
X4203Y409658D01*
X4095Y409679D01*
X3989Y409708D01*
X3939Y409709D01*
X3890Y409718D01*
X3781Y409711D01*
X3671Y409713D01*
X3623Y409702D01*
X3573Y409698D01*
X3469Y409665D01*
X3362Y409639D01*
X3318Y409616D01*
X3271Y409600D01*
X3178Y409542D01*
X3081Y409490D01*
X3044Y409457D01*
X3002Y409430D01*
X2926Y409350D01*
X2845Y409276D01*
X2818Y409235D01*
X2784Y409199D01*
X2731Y409102D01*
X2671Y409011D01*
X2654Y408964D01*
X2630Y408920D01*
X2603Y408814D01*
X2567Y408710D01*
X2563Y408660D01*
X2551Y408612D01*
X2541Y408451D01*
X2541Y404349D01*
X2547Y404299D01*
X2545Y404250D01*
X2567Y404142D01*
X2581Y404033D01*
X2599Y403987D01*
X2609Y403938D01*
X2657Y403839D01*
X2698Y403737D01*
X2727Y403697D01*
X2749Y403652D01*
X2820Y403569D01*
X2884Y403480D01*
X2923Y403448D01*
X2955Y403410D01*
X3045Y403347D01*
X3129Y403277D01*
X3174Y403256D01*
X3215Y403227D01*
X3318Y403188D01*
X3417Y403142D01*
X3466Y403132D01*
X3512Y403115D01*
X3622Y403102D01*
X3729Y403082D01*
X3779Y403085D01*
X3829Y403079D01*
X3937Y403095D01*
X4047Y403102D01*
X4094Y403117D01*
X4143Y403124D01*
X4296Y403176D01*
X4452Y403241D01*
X8248Y403241D01*
X11754Y401788D01*
X14438Y399104D01*
X15891Y395598D01*
X15891Y391802D01*
X14438Y388296D01*
X11754Y385612D01*
X8248Y384159D01*
X4452Y384159D01*
X4296Y384224D01*
X4248Y384237D01*
X4203Y384258D01*
X4095Y384279D01*
X3989Y384308D01*
X3939Y384309D01*
X3890Y384318D01*
X3781Y384311D01*
X3671Y384313D01*
X3623Y384302D01*
X3573Y384298D01*
X3469Y384265D01*
X3362Y384239D01*
X3318Y384216D01*
X3271Y384200D01*
X3178Y384142D01*
X3081Y384090D01*
X3044Y384057D01*
X3002Y384030D01*
X2926Y383950D01*
X2845Y383876D01*
X2818Y383835D01*
X2784Y383799D01*
X2731Y383702D01*
X2671Y383611D01*
X2654Y383564D01*
X2630Y383520D01*
X2603Y383414D01*
X2567Y383310D01*
X2563Y383260D01*
X2551Y383212D01*
X2541Y383051D01*
X2541Y378949D01*
X2547Y378899D01*
X2545Y378850D01*
X2567Y378742D01*
X2581Y378633D01*
X2599Y378587D01*
X2609Y378538D01*
X2657Y378439D01*
X2698Y378337D01*
X2727Y378297D01*
X2749Y378252D01*
X2820Y378169D01*
X2884Y378080D01*
X2923Y378048D01*
X2955Y378010D01*
X3045Y377947D01*
X3129Y377877D01*
X3174Y377856D01*
X3215Y377827D01*
X3318Y377788D01*
X3417Y377742D01*
X3466Y377732D01*
X3512Y377715D01*
X3622Y377702D01*
X3729Y377682D01*
X3779Y377685D01*
X3829Y377679D01*
X3937Y377695D01*
X4047Y377702D01*
X4094Y377717D01*
X4143Y377724D01*
X4296Y377776D01*
X4452Y377841D01*
X8248Y377841D01*
X11754Y376388D01*
X14438Y373704D01*
X15891Y370198D01*
X15891Y366402D01*
X14438Y362896D01*
X11754Y360212D01*
X8248Y358759D01*
X4452Y358759D01*
X4296Y358824D01*
X4248Y358837D01*
X4203Y358858D01*
X4095Y358879D01*
X3989Y358908D01*
X3939Y358909D01*
X3890Y358918D01*
X3781Y358911D01*
X3671Y358913D01*
X3623Y358902D01*
X3573Y358898D01*
X3469Y358865D01*
X3362Y358839D01*
X3318Y358816D01*
X3271Y358800D01*
X3178Y358742D01*
X3081Y358690D01*
X3044Y358657D01*
X3002Y358630D01*
X2926Y358550D01*
X2845Y358476D01*
X2818Y358435D01*
X2784Y358399D01*
X2731Y358302D01*
X2671Y358211D01*
X2654Y358164D01*
X2630Y358120D01*
X2603Y358014D01*
X2567Y357910D01*
X2563Y357860D01*
X2551Y357812D01*
X2541Y357651D01*
X2541Y353549D01*
X2547Y353499D01*
X2545Y353450D01*
X2567Y353342D01*
X2581Y353233D01*
X2599Y353187D01*
X2609Y353138D01*
X2657Y353039D01*
X2698Y352937D01*
X2727Y352897D01*
X2749Y352852D01*
X2820Y352769D01*
X2884Y352680D01*
X2923Y352648D01*
X2955Y352610D01*
X3045Y352547D01*
X3129Y352477D01*
X3174Y352456D01*
X3215Y352427D01*
X3318Y352388D01*
X3417Y352342D01*
X3466Y352332D01*
X3512Y352315D01*
X3622Y352302D01*
X3729Y352282D01*
X3779Y352285D01*
X3829Y352279D01*
X3937Y352295D01*
X4047Y352302D01*
X4094Y352317D01*
X4143Y352324D01*
X4296Y352376D01*
X4452Y352441D01*
X8248Y352441D01*
X11754Y350988D01*
X14438Y348304D01*
X15891Y344798D01*
X15891Y341002D01*
X14438Y337496D01*
X11754Y334812D01*
X8248Y333359D01*
X4452Y333359D01*
X4296Y333424D01*
X4248Y333437D01*
X4203Y333458D01*
X4095Y333479D01*
X3989Y333508D01*
X3939Y333509D01*
X3890Y333518D01*
X3781Y333511D01*
X3671Y333513D01*
X3623Y333502D01*
X3573Y333498D01*
X3469Y333465D01*
X3362Y333439D01*
X3318Y333416D01*
X3271Y333400D01*
X3178Y333342D01*
X3081Y333290D01*
X3044Y333257D01*
X3002Y333230D01*
X2926Y333150D01*
X2845Y333076D01*
X2818Y333035D01*
X2784Y332999D01*
X2731Y332902D01*
X2671Y332811D01*
X2654Y332764D01*
X2630Y332720D01*
X2603Y332614D01*
X2567Y332510D01*
X2563Y332460D01*
X2551Y332412D01*
X2541Y332251D01*
X2541Y328149D01*
X2547Y328099D01*
X2545Y328050D01*
X2567Y327942D01*
X2581Y327833D01*
X2599Y327787D01*
X2609Y327738D01*
X2657Y327639D01*
X2698Y327537D01*
X2727Y327497D01*
X2749Y327452D01*
X2820Y327369D01*
X2884Y327280D01*
X2923Y327248D01*
X2955Y327210D01*
X3045Y327147D01*
X3129Y327077D01*
X3174Y327056D01*
X3215Y327027D01*
X3318Y326988D01*
X3417Y326942D01*
X3466Y326932D01*
X3512Y326915D01*
X3622Y326902D01*
X3729Y326882D01*
X3779Y326885D01*
X3829Y326879D01*
X3937Y326895D01*
X4047Y326902D01*
X4094Y326917D01*
X4143Y326924D01*
X4296Y326976D01*
X4452Y327041D01*
X8248Y327041D01*
X11754Y325588D01*
X14438Y322904D01*
X15891Y319398D01*
X15891Y315602D01*
X14438Y312096D01*
X11754Y309412D01*
X8248Y307959D01*
X4452Y307959D01*
X4296Y308024D01*
X4248Y308037D01*
X4203Y308058D01*
X4095Y308079D01*
X3989Y308108D01*
X3939Y308109D01*
X3890Y308118D01*
X3781Y308111D01*
X3671Y308113D01*
X3623Y308102D01*
X3573Y308098D01*
X3469Y308065D01*
X3362Y308039D01*
X3318Y308016D01*
X3271Y308000D01*
X3178Y307942D01*
X3081Y307890D01*
X3044Y307857D01*
X3002Y307830D01*
X2926Y307750D01*
X2845Y307676D01*
X2818Y307635D01*
X2784Y307599D01*
X2731Y307502D01*
X2671Y307411D01*
X2654Y307364D01*
X2630Y307320D01*
X2603Y307214D01*
X2567Y307110D01*
X2563Y307060D01*
X2551Y307012D01*
X2541Y306851D01*
X2541Y302749D01*
X2547Y302699D01*
X2545Y302650D01*
X2567Y302542D01*
X2581Y302433D01*
X2599Y302387D01*
X2609Y302338D01*
X2657Y302239D01*
X2698Y302137D01*
X2727Y302097D01*
X2749Y302052D01*
X2820Y301969D01*
X2884Y301880D01*
X2923Y301848D01*
X2955Y301810D01*
X3045Y301747D01*
X3129Y301677D01*
X3174Y301656D01*
X3215Y301627D01*
X3318Y301588D01*
X3417Y301542D01*
X3466Y301532D01*
X3512Y301515D01*
X3622Y301502D01*
X3729Y301482D01*
X3779Y301485D01*
X3829Y301479D01*
X3937Y301495D01*
X4047Y301502D01*
X4094Y301517D01*
X4143Y301524D01*
X4296Y301576D01*
X4452Y301641D01*
X8248Y301641D01*
X11754Y300188D01*
X14438Y297504D01*
X15891Y293998D01*
X15891Y290202D01*
X14438Y286696D01*
X11754Y284012D01*
X8248Y282559D01*
X4452Y282559D01*
X4296Y282624D01*
X4248Y282637D01*
X4203Y282658D01*
X4095Y282679D01*
X3989Y282708D01*
X3939Y282709D01*
X3890Y282718D01*
X3781Y282711D01*
X3671Y282713D01*
X3623Y282702D01*
X3573Y282698D01*
X3469Y282665D01*
X3362Y282639D01*
X3318Y282616D01*
X3271Y282600D01*
X3178Y282542D01*
X3081Y282490D01*
X3044Y282457D01*
X3002Y282430D01*
X2926Y282350D01*
X2845Y282276D01*
X2818Y282235D01*
X2784Y282199D01*
X2731Y282102D01*
X2671Y282011D01*
X2654Y281964D01*
X2630Y281920D01*
X2603Y281814D01*
X2567Y281710D01*
X2563Y281660D01*
X2551Y281612D01*
X2541Y281451D01*
X2541Y277349D01*
X2547Y277299D01*
X2545Y277250D01*
X2567Y277142D01*
X2581Y277033D01*
X2599Y276987D01*
X2609Y276938D01*
X2657Y276839D01*
X2698Y276737D01*
X2727Y276697D01*
X2749Y276652D01*
X2820Y276569D01*
X2884Y276480D01*
X2923Y276448D01*
X2955Y276410D01*
X3045Y276347D01*
X3129Y276277D01*
X3174Y276256D01*
X3215Y276227D01*
X3318Y276188D01*
X3417Y276142D01*
X3466Y276132D01*
X3512Y276115D01*
X3622Y276102D01*
X3729Y276082D01*
X3779Y276085D01*
X3829Y276079D01*
X3937Y276095D01*
X4047Y276102D01*
X4094Y276117D01*
X4143Y276124D01*
X4296Y276176D01*
X4452Y276241D01*
X8248Y276241D01*
X11754Y274788D01*
X14438Y272104D01*
X15891Y268598D01*
X15891Y264802D01*
X14438Y261296D01*
X11754Y258612D01*
X8248Y257159D01*
X4452Y257159D01*
X4296Y257224D01*
X4248Y257237D01*
X4203Y257258D01*
X4095Y257279D01*
X3989Y257308D01*
X3939Y257309D01*
X3890Y257318D01*
X3781Y257311D01*
X3671Y257313D01*
X3623Y257302D01*
X3573Y257298D01*
X3469Y257265D01*
X3362Y257239D01*
X3318Y257216D01*
X3271Y257200D01*
X3178Y257142D01*
X3081Y257090D01*
X3044Y257057D01*
X3002Y257030D01*
X2926Y256950D01*
X2845Y256876D01*
X2818Y256835D01*
X2784Y256799D01*
X2731Y256702D01*
X2671Y256611D01*
X2654Y256564D01*
X2630Y256520D01*
X2603Y256414D01*
X2567Y256310D01*
X2563Y256260D01*
X2551Y256212D01*
X2541Y256051D01*
X2541Y251949D01*
X2547Y251899D01*
X2545Y251850D01*
X2567Y251742D01*
X2581Y251633D01*
X2599Y251587D01*
X2609Y251538D01*
X2657Y251439D01*
X2698Y251337D01*
X2727Y251297D01*
X2749Y251252D01*
X2820Y251169D01*
X2884Y251080D01*
X2923Y251048D01*
X2955Y251010D01*
X3045Y250947D01*
X3129Y250877D01*
X3174Y250856D01*
X3215Y250827D01*
X3318Y250788D01*
X3417Y250742D01*
X3466Y250732D01*
X3512Y250715D01*
X3622Y250702D01*
X3729Y250682D01*
X3779Y250685D01*
X3829Y250679D01*
X3937Y250695D01*
X4047Y250702D01*
X4094Y250717D01*
X4143Y250724D01*
X4296Y250776D01*
X4452Y250841D01*
X8248Y250841D01*
X11754Y249388D01*
X14438Y246704D01*
X15891Y243198D01*
X15891Y239402D01*
X14438Y235896D01*
X11754Y233212D01*
X8248Y231759D01*
X4452Y231759D01*
X4296Y231824D01*
X4248Y231837D01*
X4203Y231858D01*
X4095Y231879D01*
X3989Y231908D01*
X3939Y231909D01*
X3890Y231918D01*
X3781Y231911D01*
X3671Y231913D01*
X3623Y231902D01*
X3573Y231898D01*
X3469Y231865D01*
X3362Y231839D01*
X3318Y231816D01*
X3271Y231800D01*
X3178Y231742D01*
X3081Y231690D01*
X3044Y231657D01*
X3002Y231630D01*
X2926Y231550D01*
X2845Y231476D01*
X2818Y231435D01*
X2784Y231399D01*
X2731Y231302D01*
X2671Y231211D01*
X2654Y231164D01*
X2630Y231120D01*
X2603Y231014D01*
X2567Y230910D01*
X2563Y230860D01*
X2551Y230812D01*
X2541Y230651D01*
X2541Y226549D01*
X2547Y226499D01*
X2545Y226450D01*
X2567Y226342D01*
X2581Y226233D01*
X2599Y226187D01*
X2609Y226138D01*
X2657Y226039D01*
X2698Y225937D01*
X2727Y225897D01*
X2749Y225852D01*
X2820Y225769D01*
X2884Y225680D01*
X2923Y225648D01*
X2955Y225610D01*
X3045Y225547D01*
X3129Y225477D01*
X3174Y225456D01*
X3215Y225427D01*
X3318Y225388D01*
X3417Y225342D01*
X3466Y225332D01*
X3512Y225315D01*
X3622Y225302D01*
X3729Y225282D01*
X3779Y225285D01*
X3829Y225279D01*
X3937Y225295D01*
X4047Y225302D01*
X4094Y225317D01*
X4143Y225324D01*
X4296Y225376D01*
X4452Y225441D01*
X8248Y225441D01*
X11754Y223988D01*
X14438Y221304D01*
X15891Y217798D01*
X15891Y214002D01*
X14438Y210496D01*
X11754Y207812D01*
X8248Y206359D01*
X4452Y206359D01*
X4296Y206424D01*
X4248Y206437D01*
X4203Y206458D01*
X4095Y206479D01*
X3989Y206508D01*
X3939Y206509D01*
X3890Y206518D01*
X3781Y206511D01*
X3671Y206513D01*
X3623Y206502D01*
X3573Y206498D01*
X3469Y206465D01*
X3362Y206439D01*
X3318Y206416D01*
X3271Y206400D01*
X3178Y206342D01*
X3081Y206290D01*
X3044Y206257D01*
X3002Y206230D01*
X2926Y206150D01*
X2845Y206076D01*
X2818Y206035D01*
X2784Y205999D01*
X2731Y205902D01*
X2671Y205811D01*
X2654Y205764D01*
X2630Y205720D01*
X2603Y205614D01*
X2567Y205510D01*
X2563Y205460D01*
X2551Y205412D01*
X2541Y205251D01*
X2541Y201149D01*
X2547Y201099D01*
X2545Y201050D01*
X2567Y200942D01*
X2581Y200833D01*
X2599Y200787D01*
X2609Y200738D01*
X2657Y200639D01*
X2698Y200537D01*
X2727Y200497D01*
X2749Y200452D01*
X2820Y200369D01*
X2884Y200280D01*
X2923Y200248D01*
X2955Y200210D01*
X3045Y200147D01*
X3129Y200077D01*
X3174Y200056D01*
X3215Y200027D01*
X3318Y199988D01*
X3417Y199942D01*
X3466Y199932D01*
X3512Y199915D01*
X3622Y199902D01*
X3729Y199882D01*
X3779Y199885D01*
X3829Y199879D01*
X3937Y199895D01*
X4047Y199902D01*
X4094Y199917D01*
X4143Y199924D01*
X4296Y199976D01*
X4452Y200041D01*
X8248Y200041D01*
X11754Y198588D01*
X14438Y195904D01*
X15891Y192398D01*
X15891Y188602D01*
X14438Y185096D01*
X11754Y182412D01*
X8248Y180959D01*
X4452Y180959D01*
X4296Y181024D01*
X4248Y181037D01*
X4203Y181058D01*
X4095Y181079D01*
X3989Y181108D01*
X3939Y181109D01*
X3890Y181118D01*
X3781Y181111D01*
X3671Y181113D01*
X3623Y181102D01*
X3573Y181098D01*
X3469Y181065D01*
X3362Y181039D01*
X3318Y181016D01*
X3271Y181000D01*
X3178Y180942D01*
X3081Y180890D01*
X3044Y180857D01*
X3002Y180830D01*
X2926Y180750D01*
X2845Y180676D01*
X2818Y180635D01*
X2784Y180599D01*
X2731Y180502D01*
X2671Y180411D01*
X2654Y180364D01*
X2630Y180320D01*
X2603Y180214D01*
X2567Y180110D01*
X2563Y180060D01*
X2551Y180012D01*
X2541Y179851D01*
X2541Y175749D01*
X2547Y175699D01*
X2545Y175650D01*
X2567Y175542D01*
X2581Y175433D01*
X2599Y175387D01*
X2609Y175338D01*
X2657Y175239D01*
X2698Y175137D01*
X2727Y175097D01*
X2749Y175052D01*
X2820Y174969D01*
X2884Y174880D01*
X2923Y174848D01*
X2955Y174810D01*
X3045Y174747D01*
X3129Y174677D01*
X3174Y174656D01*
X3215Y174627D01*
X3318Y174588D01*
X3417Y174542D01*
X3466Y174532D01*
X3512Y174515D01*
X3622Y174502D01*
X3729Y174482D01*
X3779Y174485D01*
X3829Y174479D01*
X3937Y174495D01*
X4047Y174502D01*
X4094Y174517D01*
X4143Y174524D01*
X4296Y174576D01*
X4452Y174641D01*
X8248Y174641D01*
X11754Y173188D01*
X14438Y170504D01*
X15891Y166998D01*
X15891Y163202D01*
X14438Y159696D01*
X11754Y157012D01*
X8248Y155559D01*
X4452Y155559D01*
X4296Y155624D01*
X4248Y155637D01*
X4203Y155658D01*
X4095Y155679D01*
X3989Y155708D01*
X3939Y155709D01*
X3890Y155718D01*
X3781Y155711D01*
X3671Y155713D01*
X3623Y155702D01*
X3573Y155698D01*
X3469Y155665D01*
X3362Y155639D01*
X3318Y155616D01*
X3271Y155600D01*
X3178Y155542D01*
X3081Y155490D01*
X3044Y155457D01*
X3002Y155430D01*
X2926Y155350D01*
X2845Y155276D01*
X2818Y155235D01*
X2784Y155199D01*
X2731Y155102D01*
X2671Y155011D01*
X2654Y154964D01*
X2630Y154920D01*
X2603Y154814D01*
X2567Y154710D01*
X2563Y154660D01*
X2551Y154612D01*
X2541Y154451D01*
X2541Y150349D01*
X2547Y150299D01*
X2545Y150250D01*
X2567Y150142D01*
X2581Y150033D01*
X2599Y149987D01*
X2609Y149938D01*
X2657Y149839D01*
X2698Y149737D01*
X2727Y149697D01*
X2749Y149652D01*
X2820Y149569D01*
X2884Y149480D01*
X2923Y149448D01*
X2955Y149410D01*
X3045Y149347D01*
X3129Y149277D01*
X3174Y149256D01*
X3215Y149227D01*
X3318Y149188D01*
X3417Y149142D01*
X3466Y149132D01*
X3512Y149115D01*
X3622Y149102D01*
X3729Y149082D01*
X3779Y149085D01*
X3829Y149079D01*
X3937Y149095D01*
X4047Y149102D01*
X4094Y149117D01*
X4143Y149124D01*
X4296Y149176D01*
X4452Y149241D01*
X8248Y149241D01*
X11754Y147788D01*
X14438Y145104D01*
X15891Y141598D01*
X15891Y137802D01*
X14438Y134296D01*
X11754Y131612D01*
X8248Y130159D01*
X4452Y130159D01*
X4296Y130224D01*
X4248Y130237D01*
X4203Y130258D01*
X4095Y130279D01*
X3989Y130308D01*
X3939Y130309D01*
X3890Y130318D01*
X3781Y130311D01*
X3671Y130313D01*
X3623Y130302D01*
X3573Y130298D01*
X3469Y130265D01*
X3362Y130239D01*
X3318Y130216D01*
X3271Y130200D01*
X3178Y130142D01*
X3081Y130090D01*
X3044Y130057D01*
X3002Y130030D01*
X2926Y129950D01*
X2845Y129876D01*
X2818Y129835D01*
X2784Y129799D01*
X2731Y129702D01*
X2671Y129611D01*
X2654Y129564D01*
X2630Y129520D01*
X2603Y129414D01*
X2567Y129310D01*
X2563Y129260D01*
X2551Y129212D01*
X2541Y129051D01*
X2541Y124949D01*
X2547Y124899D01*
X2545Y124850D01*
X2567Y124742D01*
X2581Y124633D01*
X2599Y124587D01*
X2609Y124538D01*
X2657Y124439D01*
X2698Y124337D01*
X2727Y124297D01*
X2749Y124252D01*
X2820Y124169D01*
X2884Y124080D01*
X2923Y124048D01*
X2955Y124010D01*
X3045Y123947D01*
X3129Y123877D01*
X3174Y123856D01*
X3215Y123827D01*
X3318Y123788D01*
X3417Y123742D01*
X3466Y123732D01*
X3512Y123715D01*
X3622Y123702D01*
X3729Y123682D01*
X3779Y123685D01*
X3829Y123679D01*
X3937Y123695D01*
X4047Y123702D01*
X4094Y123717D01*
X4143Y123724D01*
X4296Y123776D01*
X4452Y123841D01*
X8248Y123841D01*
X11754Y122388D01*
X14438Y119704D01*
X15891Y116198D01*
X15891Y112402D01*
X14438Y108896D01*
X11754Y106212D01*
X8248Y104759D01*
X4452Y104759D01*
X4296Y104824D01*
X4248Y104837D01*
X4203Y104858D01*
X4095Y104879D01*
X3989Y104908D01*
X3939Y104909D01*
X3890Y104918D01*
X3781Y104911D01*
X3671Y104913D01*
X3623Y104902D01*
X3573Y104898D01*
X3469Y104865D01*
X3362Y104839D01*
X3318Y104816D01*
X3271Y104800D01*
X3178Y104742D01*
X3081Y104690D01*
X3044Y104657D01*
X3002Y104630D01*
X2926Y104550D01*
X2845Y104476D01*
X2818Y104435D01*
X2784Y104399D01*
X2731Y104302D01*
X2671Y104211D01*
X2654Y104164D01*
X2630Y104120D01*
X2603Y104014D01*
X2567Y103910D01*
X2563Y103860D01*
X2551Y103812D01*
X2541Y103651D01*
X2541Y93740D01*
X2556Y93622D01*
X2563Y93503D01*
X2576Y93465D01*
X2581Y93424D01*
X2624Y93314D01*
X2661Y93201D01*
X2683Y93166D01*
X2698Y93129D01*
X2767Y93033D01*
X2831Y92932D01*
X2861Y92904D01*
X2884Y92871D01*
X2976Y92795D01*
X3063Y92714D01*
X3098Y92694D01*
X3129Y92669D01*
X3237Y92618D01*
X3341Y92560D01*
X3381Y92550D01*
X3417Y92533D01*
X3534Y92511D01*
X3649Y92481D01*
X3709Y92477D01*
X3729Y92473D01*
X3750Y92475D01*
X3810Y92471D01*
X10850Y92471D01*
X19164Y89027D01*
X25527Y82664D01*
X26767Y79669D01*
X26802Y79608D01*
X26828Y79543D01*
X26880Y79471D01*
X26925Y79393D01*
X26973Y79343D01*
X27014Y79286D01*
X27084Y79229D01*
X27146Y79164D01*
X27206Y79128D01*
X27259Y79083D01*
X27341Y79045D01*
X27417Y78998D01*
X27484Y78977D01*
X27547Y78948D01*
X27635Y78931D01*
X27721Y78904D01*
X27791Y78901D01*
X27860Y78888D01*
X27949Y78894D01*
X28039Y78889D01*
X28107Y78903D01*
X28177Y78908D01*
X28262Y78935D01*
X28350Y78954D01*
X28413Y78984D01*
X28479Y79006D01*
X28555Y79054D01*
X28636Y79093D01*
X28689Y79139D01*
X28748Y79176D01*
X28810Y79241D01*
X28878Y79300D01*
X28918Y79357D01*
X28966Y79407D01*
X29009Y79486D01*
X29061Y79560D01*
X29086Y79625D01*
X29120Y79686D01*
X29142Y79773D01*
X29174Y79857D01*
X29182Y79926D01*
X29199Y79994D01*
X29209Y80155D01*
X29209Y102652D01*
X30698Y104141D01*
X744002Y104141D01*
X745491Y102652D01*
X745491Y80155D01*
X745499Y80085D01*
X745498Y80016D01*
X745519Y79928D01*
X745531Y79839D01*
X745556Y79774D01*
X745573Y79706D01*
X745615Y79627D01*
X745648Y79543D01*
X745689Y79487D01*
X745721Y79425D01*
X745782Y79359D01*
X745834Y79286D01*
X745888Y79242D01*
X745935Y79190D01*
X746010Y79141D01*
X746079Y79083D01*
X746143Y79054D01*
X746201Y79015D01*
X746286Y78986D01*
X746367Y78948D01*
X746436Y78935D01*
X746502Y78912D01*
X746591Y78905D01*
X746679Y78888D01*
X746749Y78892D01*
X746819Y78887D01*
X746907Y78902D01*
G37*
G36*
X57560Y2544D02*
X57560Y2544D01*
X57590Y2542D01*
X57718Y2564D01*
X57847Y2581D01*
X57874Y2591D01*
X57903Y2596D01*
X58022Y2650D01*
X58142Y2698D01*
X58166Y2715D01*
X58193Y2727D01*
X58294Y2808D01*
X58400Y2884D01*
X58419Y2907D01*
X58442Y2926D01*
X58519Y3029D01*
X58602Y3129D01*
X58615Y3156D01*
X58633Y3180D01*
X58704Y3324D01*
X60388Y7390D01*
X63860Y10862D01*
X68395Y12741D01*
X73305Y12741D01*
X77840Y10862D01*
X81312Y7390D01*
X82996Y3324D01*
X83011Y3299D01*
X83020Y3271D01*
X83089Y3161D01*
X83154Y3048D01*
X83174Y3027D01*
X83190Y3002D01*
X83285Y2913D01*
X83375Y2820D01*
X83400Y2804D01*
X83422Y2784D01*
X83535Y2721D01*
X83646Y2653D01*
X83674Y2645D01*
X83700Y2630D01*
X83826Y2598D01*
X83950Y2560D01*
X83980Y2558D01*
X84008Y2551D01*
X84169Y2541D01*
X182531Y2541D01*
X182560Y2544D01*
X182590Y2542D01*
X182718Y2564D01*
X182847Y2581D01*
X182874Y2591D01*
X182903Y2596D01*
X183022Y2650D01*
X183142Y2698D01*
X183166Y2715D01*
X183193Y2727D01*
X183295Y2808D01*
X183400Y2884D01*
X183419Y2907D01*
X183442Y2926D01*
X183520Y3029D01*
X183603Y3129D01*
X183615Y3156D01*
X183633Y3180D01*
X183704Y3324D01*
X185388Y7390D01*
X188860Y10862D01*
X193395Y12741D01*
X198305Y12741D01*
X202840Y10862D01*
X206312Y7390D01*
X207996Y3324D01*
X208011Y3299D01*
X208020Y3271D01*
X208089Y3161D01*
X208154Y3048D01*
X208174Y3027D01*
X208190Y3002D01*
X208285Y2913D01*
X208375Y2820D01*
X208400Y2804D01*
X208422Y2784D01*
X208536Y2721D01*
X208646Y2653D01*
X208674Y2645D01*
X208700Y2630D01*
X208826Y2598D01*
X208950Y2560D01*
X208980Y2558D01*
X209008Y2551D01*
X209169Y2541D01*
X269678Y2541D01*
X269707Y2544D01*
X269736Y2542D01*
X269864Y2564D01*
X269993Y2581D01*
X270020Y2591D01*
X270050Y2596D01*
X270168Y2650D01*
X270289Y2698D01*
X270313Y2715D01*
X270340Y2727D01*
X270441Y2808D01*
X270546Y2884D01*
X270565Y2907D01*
X270588Y2926D01*
X270666Y3029D01*
X270749Y3129D01*
X270761Y3156D01*
X270779Y3180D01*
X270850Y3324D01*
X271712Y5404D01*
X274396Y8088D01*
X277902Y9541D01*
X281698Y9541D01*
X285204Y8088D01*
X287888Y5404D01*
X288750Y3324D01*
X288764Y3299D01*
X288774Y3271D01*
X288843Y3161D01*
X288907Y3048D01*
X288928Y3027D01*
X288944Y3002D01*
X289038Y2913D01*
X289129Y2820D01*
X289154Y2804D01*
X289175Y2784D01*
X289289Y2721D01*
X289400Y2653D01*
X289428Y2645D01*
X289454Y2630D01*
X289580Y2598D01*
X289704Y2560D01*
X289733Y2558D01*
X289762Y2551D01*
X289922Y2541D01*
X294678Y2541D01*
X294707Y2544D01*
X294736Y2542D01*
X294864Y2564D01*
X294993Y2581D01*
X295020Y2591D01*
X295050Y2596D01*
X295168Y2650D01*
X295289Y2698D01*
X295313Y2715D01*
X295340Y2727D01*
X295441Y2808D01*
X295546Y2884D01*
X295565Y2907D01*
X295588Y2926D01*
X295666Y3029D01*
X295749Y3129D01*
X295761Y3156D01*
X295779Y3180D01*
X295850Y3324D01*
X296712Y5404D01*
X299396Y8088D01*
X302902Y9541D01*
X306698Y9541D01*
X310204Y8088D01*
X312888Y5404D01*
X313750Y3324D01*
X313764Y3299D01*
X313774Y3271D01*
X313843Y3161D01*
X313907Y3048D01*
X313928Y3027D01*
X313944Y3002D01*
X314038Y2913D01*
X314129Y2820D01*
X314154Y2804D01*
X314175Y2784D01*
X314289Y2721D01*
X314400Y2653D01*
X314428Y2645D01*
X314454Y2630D01*
X314580Y2598D01*
X314704Y2560D01*
X314733Y2558D01*
X314762Y2551D01*
X314922Y2541D01*
X319678Y2541D01*
X319707Y2544D01*
X319736Y2542D01*
X319864Y2564D01*
X319993Y2581D01*
X320020Y2591D01*
X320050Y2596D01*
X320168Y2650D01*
X320289Y2698D01*
X320313Y2715D01*
X320340Y2727D01*
X320441Y2808D01*
X320546Y2884D01*
X320565Y2907D01*
X320588Y2926D01*
X320666Y3029D01*
X320749Y3129D01*
X320761Y3156D01*
X320779Y3180D01*
X320850Y3324D01*
X321712Y5404D01*
X324396Y8088D01*
X327902Y9541D01*
X331698Y9541D01*
X335204Y8088D01*
X337888Y5404D01*
X338750Y3324D01*
X338764Y3299D01*
X338774Y3271D01*
X338843Y3161D01*
X338907Y3048D01*
X338928Y3027D01*
X338944Y3002D01*
X339038Y2913D01*
X339129Y2820D01*
X339154Y2804D01*
X339175Y2784D01*
X339289Y2721D01*
X339400Y2653D01*
X339428Y2645D01*
X339454Y2630D01*
X339580Y2598D01*
X339704Y2560D01*
X339733Y2558D01*
X339762Y2551D01*
X339922Y2541D01*
X422078Y2541D01*
X422107Y2544D01*
X422136Y2542D01*
X422264Y2564D01*
X422393Y2581D01*
X422420Y2591D01*
X422450Y2596D01*
X422568Y2650D01*
X422689Y2698D01*
X422713Y2715D01*
X422740Y2727D01*
X422841Y2808D01*
X422946Y2884D01*
X422965Y2907D01*
X422988Y2926D01*
X423066Y3029D01*
X423149Y3129D01*
X423161Y3156D01*
X423179Y3180D01*
X423250Y3324D01*
X424112Y5404D01*
X426796Y8088D01*
X430302Y9541D01*
X434098Y9541D01*
X437604Y8088D01*
X440288Y5404D01*
X441150Y3324D01*
X441164Y3299D01*
X441174Y3271D01*
X441243Y3161D01*
X441307Y3048D01*
X441328Y3027D01*
X441344Y3002D01*
X441438Y2913D01*
X441529Y2820D01*
X441554Y2804D01*
X441575Y2784D01*
X441689Y2721D01*
X441800Y2653D01*
X441828Y2645D01*
X441854Y2630D01*
X441980Y2598D01*
X442104Y2560D01*
X442133Y2558D01*
X442162Y2551D01*
X442322Y2541D01*
X447078Y2541D01*
X447107Y2544D01*
X447136Y2542D01*
X447264Y2564D01*
X447393Y2581D01*
X447420Y2591D01*
X447450Y2596D01*
X447568Y2650D01*
X447689Y2698D01*
X447713Y2715D01*
X447740Y2727D01*
X447841Y2808D01*
X447946Y2884D01*
X447965Y2907D01*
X447988Y2926D01*
X448066Y3029D01*
X448149Y3129D01*
X448161Y3156D01*
X448179Y3180D01*
X448250Y3324D01*
X449112Y5404D01*
X451796Y8088D01*
X455302Y9541D01*
X459098Y9541D01*
X462604Y8088D01*
X465288Y5404D01*
X466150Y3324D01*
X466164Y3299D01*
X466174Y3271D01*
X466243Y3161D01*
X466307Y3048D01*
X466328Y3027D01*
X466344Y3002D01*
X466438Y2913D01*
X466529Y2820D01*
X466554Y2804D01*
X466575Y2784D01*
X466689Y2721D01*
X466800Y2653D01*
X466828Y2645D01*
X466854Y2630D01*
X466980Y2598D01*
X467104Y2560D01*
X467133Y2558D01*
X467162Y2551D01*
X467322Y2541D01*
X472078Y2541D01*
X472107Y2544D01*
X472136Y2542D01*
X472264Y2564D01*
X472393Y2581D01*
X472420Y2591D01*
X472450Y2596D01*
X472568Y2650D01*
X472689Y2698D01*
X472713Y2715D01*
X472740Y2727D01*
X472841Y2808D01*
X472946Y2884D01*
X472965Y2907D01*
X472988Y2926D01*
X473066Y3029D01*
X473149Y3129D01*
X473161Y3156D01*
X473179Y3180D01*
X473250Y3324D01*
X474112Y5404D01*
X476796Y8088D01*
X480302Y9541D01*
X484098Y9541D01*
X487604Y8088D01*
X490288Y5404D01*
X491150Y3324D01*
X491164Y3299D01*
X491174Y3271D01*
X491243Y3161D01*
X491307Y3048D01*
X491328Y3027D01*
X491344Y3002D01*
X491438Y2913D01*
X491529Y2820D01*
X491554Y2804D01*
X491575Y2784D01*
X491689Y2721D01*
X491800Y2653D01*
X491828Y2645D01*
X491854Y2630D01*
X491980Y2598D01*
X492104Y2560D01*
X492133Y2558D01*
X492162Y2551D01*
X492322Y2541D01*
X552831Y2541D01*
X552860Y2544D01*
X552890Y2542D01*
X553018Y2564D01*
X553147Y2581D01*
X553174Y2591D01*
X553203Y2596D01*
X553322Y2650D01*
X553442Y2698D01*
X553466Y2715D01*
X553493Y2727D01*
X553594Y2808D01*
X553700Y2884D01*
X553719Y2907D01*
X553742Y2926D01*
X553819Y3029D01*
X553902Y3129D01*
X553915Y3156D01*
X553933Y3180D01*
X554004Y3324D01*
X555688Y7390D01*
X559160Y10862D01*
X563695Y12741D01*
X568605Y12741D01*
X573140Y10862D01*
X576612Y7390D01*
X578296Y3324D01*
X578311Y3299D01*
X578320Y3271D01*
X578389Y3161D01*
X578454Y3048D01*
X578474Y3027D01*
X578490Y3002D01*
X578585Y2913D01*
X578675Y2820D01*
X578700Y2804D01*
X578722Y2784D01*
X578835Y2721D01*
X578946Y2653D01*
X578974Y2645D01*
X579000Y2630D01*
X579126Y2598D01*
X579250Y2560D01*
X579280Y2558D01*
X579308Y2551D01*
X579469Y2541D01*
X677831Y2541D01*
X677860Y2544D01*
X677890Y2542D01*
X678018Y2564D01*
X678147Y2581D01*
X678174Y2591D01*
X678203Y2596D01*
X678322Y2650D01*
X678442Y2698D01*
X678466Y2715D01*
X678493Y2727D01*
X678595Y2808D01*
X678700Y2884D01*
X678719Y2907D01*
X678742Y2926D01*
X678820Y3029D01*
X678903Y3129D01*
X678915Y3156D01*
X678933Y3180D01*
X679004Y3324D01*
X680688Y7390D01*
X684160Y10862D01*
X688695Y12741D01*
X693605Y12741D01*
X698140Y10862D01*
X701612Y7390D01*
X703296Y3324D01*
X703311Y3299D01*
X703320Y3271D01*
X703389Y3161D01*
X703454Y3048D01*
X703474Y3027D01*
X703490Y3002D01*
X703585Y2913D01*
X703675Y2820D01*
X703700Y2804D01*
X703722Y2784D01*
X703836Y2721D01*
X703946Y2653D01*
X703974Y2645D01*
X704000Y2630D01*
X704126Y2598D01*
X704250Y2560D01*
X704280Y2558D01*
X704308Y2551D01*
X704469Y2541D01*
X758190Y2541D01*
X758308Y2556D01*
X758427Y2563D01*
X758465Y2576D01*
X758506Y2581D01*
X758616Y2624D01*
X758729Y2661D01*
X758764Y2683D01*
X758801Y2698D01*
X758897Y2767D01*
X758998Y2831D01*
X759026Y2861D01*
X759059Y2884D01*
X759135Y2976D01*
X759216Y3063D01*
X759236Y3098D01*
X759261Y3129D01*
X759312Y3237D01*
X759370Y3341D01*
X759380Y3381D01*
X759397Y3417D01*
X759419Y3534D01*
X759449Y3649D01*
X759453Y3709D01*
X759457Y3729D01*
X759455Y3750D01*
X759459Y3810D01*
X759459Y41168D01*
X759449Y41247D01*
X759449Y41326D01*
X759429Y41404D01*
X759419Y41484D01*
X759390Y41557D01*
X759371Y41634D01*
X759332Y41705D01*
X759302Y41779D01*
X759256Y41843D01*
X759218Y41913D01*
X759163Y41972D01*
X759116Y42037D01*
X759054Y42087D01*
X759000Y42145D01*
X758933Y42188D01*
X758871Y42239D01*
X758799Y42273D01*
X758732Y42316D01*
X758583Y42375D01*
X758582Y42375D01*
X755507Y43374D01*
X748347Y48577D01*
X746846Y50642D01*
X746840Y50649D01*
X746835Y50658D01*
X746731Y50765D01*
X746629Y50873D01*
X746620Y50879D01*
X746613Y50886D01*
X746487Y50964D01*
X746360Y51044D01*
X746351Y51047D01*
X746342Y51052D01*
X746200Y51096D01*
X746058Y51142D01*
X746048Y51143D01*
X746038Y51146D01*
X745890Y51153D01*
X745740Y51162D01*
X745730Y51160D01*
X745721Y51161D01*
X745575Y51131D01*
X745428Y51103D01*
X745419Y51099D01*
X745409Y51097D01*
X745274Y51031D01*
X745140Y50968D01*
X745132Y50961D01*
X745123Y50957D01*
X745010Y50860D01*
X744895Y50765D01*
X744889Y50757D01*
X744881Y50751D01*
X744796Y50629D01*
X744708Y50508D01*
X744704Y50499D01*
X744698Y50491D01*
X744645Y50349D01*
X744590Y50212D01*
X744589Y50203D01*
X744586Y50193D01*
X744569Y50044D01*
X744550Y49897D01*
X744552Y49887D01*
X744550Y49877D01*
X744571Y49729D01*
X744590Y49581D01*
X744593Y49572D01*
X744595Y49562D01*
X744647Y49410D01*
X747396Y42774D01*
X747396Y33426D01*
X743819Y24791D01*
X737209Y18181D01*
X728574Y14604D01*
X719226Y14604D01*
X710591Y18181D01*
X703981Y24791D01*
X700404Y33426D01*
X700404Y39379D01*
X700399Y39418D01*
X700402Y39458D01*
X700384Y39550D01*
X700382Y39586D01*
X700376Y39605D01*
X700364Y39694D01*
X700350Y39731D01*
X700342Y39770D01*
X700291Y39879D01*
X700247Y39990D01*
X700224Y40022D01*
X700207Y40058D01*
X700131Y40150D01*
X700061Y40247D01*
X700030Y40273D01*
X700005Y40303D01*
X699908Y40374D01*
X699816Y40450D01*
X699780Y40467D01*
X699747Y40490D01*
X699636Y40535D01*
X699528Y40586D01*
X699489Y40593D01*
X699452Y40608D01*
X699333Y40623D01*
X699216Y40645D01*
X699176Y40643D01*
X699136Y40648D01*
X699018Y40633D01*
X698898Y40626D01*
X698860Y40613D01*
X698821Y40608D01*
X698710Y40564D01*
X698596Y40528D01*
X698562Y40506D01*
X698525Y40492D01*
X698389Y40405D01*
X697618Y39845D01*
X695887Y38963D01*
X694040Y38363D01*
X693689Y38308D01*
X693689Y49130D01*
X693674Y49248D01*
X693667Y49367D01*
X693654Y49405D01*
X693649Y49445D01*
X693606Y49556D01*
X693569Y49669D01*
X693547Y49703D01*
X693532Y49741D01*
X693462Y49837D01*
X693399Y49938D01*
X693369Y49966D01*
X693345Y49998D01*
X693254Y50074D01*
X693167Y50156D01*
X693132Y50175D01*
X693101Y50201D01*
X692993Y50252D01*
X692889Y50309D01*
X692849Y50320D01*
X692813Y50337D01*
X692696Y50359D01*
X692581Y50389D01*
X692520Y50393D01*
X692500Y50397D01*
X692480Y50395D01*
X692420Y50399D01*
X691149Y50399D01*
X691149Y50401D01*
X692420Y50401D01*
X692538Y50416D01*
X692657Y50423D01*
X692695Y50436D01*
X692735Y50441D01*
X692846Y50485D01*
X692959Y50521D01*
X692994Y50543D01*
X693031Y50558D01*
X693127Y50628D01*
X693228Y50691D01*
X693256Y50721D01*
X693289Y50745D01*
X693364Y50836D01*
X693446Y50923D01*
X693466Y50958D01*
X693491Y50990D01*
X693542Y51097D01*
X693600Y51202D01*
X693610Y51241D01*
X693627Y51277D01*
X693649Y51394D01*
X693679Y51509D01*
X693683Y51570D01*
X693687Y51590D01*
X693685Y51610D01*
X693689Y51670D01*
X693689Y62492D01*
X694040Y62437D01*
X695887Y61837D01*
X697618Y60955D01*
X699189Y59813D01*
X700563Y58439D01*
X701705Y56868D01*
X702587Y55137D01*
X703203Y53241D01*
X703245Y53151D01*
X703279Y53057D01*
X703313Y53007D01*
X703338Y52953D01*
X703402Y52876D01*
X703457Y52794D01*
X703502Y52754D01*
X703541Y52708D01*
X703621Y52649D01*
X703696Y52584D01*
X703749Y52556D01*
X703798Y52521D01*
X703891Y52484D01*
X703979Y52439D01*
X704038Y52426D01*
X704094Y52404D01*
X704192Y52391D01*
X704289Y52369D01*
X704350Y52371D01*
X704409Y52364D01*
X704508Y52376D01*
X704607Y52379D01*
X704665Y52396D01*
X704725Y52403D01*
X704817Y52440D01*
X704913Y52467D01*
X704964Y52498D01*
X705021Y52520D01*
X705101Y52579D01*
X705187Y52629D01*
X705261Y52695D01*
X705278Y52707D01*
X705286Y52716D01*
X705307Y52735D01*
X710591Y58019D01*
X719226Y61596D01*
X728574Y61596D01*
X737209Y58019D01*
X741447Y53781D01*
X741495Y53744D01*
X741536Y53700D01*
X741620Y53647D01*
X741699Y53586D01*
X741754Y53562D01*
X741804Y53530D01*
X741899Y53499D01*
X741990Y53459D01*
X742050Y53450D01*
X742107Y53432D01*
X742206Y53425D01*
X742304Y53410D01*
X742364Y53415D01*
X742424Y53411D01*
X742522Y53430D01*
X742621Y53439D01*
X742677Y53460D01*
X742736Y53471D01*
X742827Y53513D01*
X742920Y53547D01*
X742970Y53581D01*
X743024Y53606D01*
X743101Y53670D01*
X743183Y53726D01*
X743223Y53770D01*
X743269Y53809D01*
X743328Y53889D01*
X743394Y53964D01*
X743421Y54017D01*
X743456Y54066D01*
X743493Y54158D01*
X743539Y54247D01*
X743552Y54306D01*
X743574Y54361D01*
X743586Y54460D01*
X743608Y54558D01*
X743606Y54617D01*
X743614Y54677D01*
X743602Y54776D01*
X743599Y54875D01*
X743582Y54933D01*
X743574Y54992D01*
X743538Y55085D01*
X743510Y55181D01*
X743480Y55232D01*
X743458Y55288D01*
X743372Y55424D01*
X743144Y55737D01*
X740409Y64155D01*
X740409Y97790D01*
X740394Y97908D01*
X740387Y98027D01*
X740374Y98065D01*
X740369Y98106D01*
X740326Y98216D01*
X740289Y98329D01*
X740267Y98364D01*
X740252Y98401D01*
X740183Y98497D01*
X740119Y98598D01*
X740089Y98626D01*
X740066Y98659D01*
X739974Y98735D01*
X739887Y98816D01*
X739852Y98836D01*
X739821Y98861D01*
X739713Y98912D01*
X739609Y98970D01*
X739569Y98980D01*
X739533Y98997D01*
X739416Y99019D01*
X739301Y99049D01*
X739241Y99053D01*
X739221Y99057D01*
X739200Y99055D01*
X739140Y99059D01*
X35560Y99059D01*
X35442Y99044D01*
X35323Y99037D01*
X35285Y99024D01*
X35244Y99019D01*
X35134Y98976D01*
X35021Y98939D01*
X34986Y98917D01*
X34949Y98902D01*
X34853Y98833D01*
X34752Y98769D01*
X34724Y98739D01*
X34691Y98716D01*
X34615Y98624D01*
X34534Y98537D01*
X34514Y98502D01*
X34489Y98471D01*
X34438Y98363D01*
X34380Y98259D01*
X34370Y98219D01*
X34353Y98183D01*
X34331Y98066D01*
X34301Y97951D01*
X34297Y97891D01*
X34293Y97871D01*
X34295Y97850D01*
X34291Y97790D01*
X34291Y64155D01*
X33999Y63257D01*
X33962Y63063D01*
X33940Y62945D01*
X33951Y62760D01*
X33959Y62628D01*
X33959Y62627D01*
X34008Y62477D01*
X34057Y62326D01*
X34058Y62325D01*
X34146Y62185D01*
X34228Y62057D01*
X34228Y62056D01*
X34336Y61955D01*
X34459Y61839D01*
X34460Y61839D01*
X34592Y61766D01*
X34738Y61685D01*
X34905Y61642D01*
X35046Y61606D01*
X35047Y61606D01*
X35206Y61596D01*
X42774Y61596D01*
X51409Y58019D01*
X56693Y52735D01*
X56771Y52674D01*
X56843Y52606D01*
X56896Y52577D01*
X56944Y52540D01*
X57035Y52501D01*
X57122Y52453D01*
X57180Y52438D01*
X57236Y52414D01*
X57334Y52399D01*
X57430Y52374D01*
X57490Y52374D01*
X57550Y52364D01*
X57649Y52374D01*
X57748Y52374D01*
X57806Y52388D01*
X57866Y52394D01*
X57960Y52428D01*
X58056Y52452D01*
X58109Y52481D01*
X58166Y52502D01*
X58248Y52557D01*
X58335Y52605D01*
X58379Y52646D01*
X58429Y52680D01*
X58495Y52755D01*
X58567Y52823D01*
X58599Y52873D01*
X58639Y52919D01*
X58685Y53007D01*
X58738Y53091D01*
X58774Y53184D01*
X58784Y53202D01*
X58787Y53214D01*
X58797Y53241D01*
X59413Y55137D01*
X60295Y56868D01*
X61437Y58439D01*
X62811Y59813D01*
X64382Y60955D01*
X66113Y61837D01*
X67960Y62437D01*
X68311Y62492D01*
X68311Y51670D01*
X68326Y51552D01*
X68333Y51433D01*
X68346Y51395D01*
X68351Y51355D01*
X68394Y51244D01*
X68431Y51131D01*
X68453Y51097D01*
X68468Y51059D01*
X68538Y50963D01*
X68601Y50862D01*
X68631Y50834D01*
X68654Y50802D01*
X68746Y50726D01*
X68833Y50644D01*
X68868Y50625D01*
X68899Y50599D01*
X69007Y50548D01*
X69111Y50491D01*
X69151Y50480D01*
X69187Y50463D01*
X69304Y50441D01*
X69419Y50411D01*
X69480Y50407D01*
X69500Y50403D01*
X69520Y50405D01*
X69580Y50401D01*
X70851Y50401D01*
X70851Y50399D01*
X69580Y50399D01*
X69462Y50384D01*
X69343Y50377D01*
X69305Y50364D01*
X69264Y50359D01*
X69154Y50315D01*
X69041Y50279D01*
X69006Y50257D01*
X68969Y50242D01*
X68873Y50172D01*
X68772Y50109D01*
X68744Y50079D01*
X68711Y50055D01*
X68636Y49964D01*
X68554Y49877D01*
X68534Y49842D01*
X68509Y49810D01*
X68458Y49703D01*
X68400Y49598D01*
X68390Y49559D01*
X68373Y49523D01*
X68351Y49406D01*
X68321Y49291D01*
X68317Y49230D01*
X68313Y49210D01*
X68315Y49190D01*
X68311Y49130D01*
X68311Y38308D01*
X67960Y38363D01*
X66113Y38963D01*
X64382Y39845D01*
X63611Y40405D01*
X63576Y40425D01*
X63546Y40450D01*
X63437Y40501D01*
X63332Y40559D01*
X63294Y40569D01*
X63258Y40586D01*
X63141Y40608D01*
X63024Y40638D01*
X62984Y40638D01*
X62945Y40645D01*
X62826Y40638D01*
X62706Y40638D01*
X62668Y40628D01*
X62628Y40626D01*
X62514Y40589D01*
X62398Y40559D01*
X62363Y40540D01*
X62326Y40528D01*
X62224Y40463D01*
X62120Y40406D01*
X62091Y40379D01*
X62057Y40357D01*
X61975Y40270D01*
X61888Y40188D01*
X61866Y40155D01*
X61839Y40126D01*
X61781Y40021D01*
X61717Y39920D01*
X61705Y39882D01*
X61685Y39847D01*
X61658Y39742D01*
X61658Y39740D01*
X61656Y39731D01*
X61618Y39618D01*
X61616Y39578D01*
X61606Y39539D01*
X61599Y39435D01*
X61598Y39429D01*
X61599Y39424D01*
X61596Y39379D01*
X61596Y33426D01*
X58019Y24791D01*
X51409Y18181D01*
X42774Y14604D01*
X33426Y14604D01*
X24791Y18181D01*
X18181Y24791D01*
X14604Y33426D01*
X14604Y40136D01*
X14585Y40287D01*
X14565Y40451D01*
X14564Y40452D01*
X14506Y40599D01*
X14448Y40747D01*
X14447Y40748D01*
X14355Y40875D01*
X14261Y41004D01*
X14261Y41005D01*
X14147Y41099D01*
X14016Y41207D01*
X14016Y41208D01*
X13903Y41261D01*
X13729Y41343D01*
X13728Y41343D01*
X13605Y41367D01*
X13416Y41403D01*
X13270Y41394D01*
X13099Y41383D01*
X13098Y41383D01*
X13097Y41383D01*
X12943Y41344D01*
X10775Y40639D01*
X3810Y40639D01*
X3692Y40624D01*
X3573Y40617D01*
X3535Y40604D01*
X3494Y40599D01*
X3384Y40556D01*
X3271Y40519D01*
X3236Y40497D01*
X3199Y40482D01*
X3103Y40413D01*
X3002Y40349D01*
X2974Y40319D01*
X2941Y40296D01*
X2865Y40204D01*
X2784Y40117D01*
X2764Y40082D01*
X2739Y40051D01*
X2688Y39943D01*
X2630Y39839D01*
X2620Y39799D01*
X2603Y39763D01*
X2581Y39646D01*
X2551Y39531D01*
X2547Y39471D01*
X2543Y39451D01*
X2544Y39435D01*
X2543Y39429D01*
X2544Y39420D01*
X2541Y39370D01*
X2541Y3810D01*
X2556Y3692D01*
X2563Y3573D01*
X2576Y3535D01*
X2581Y3494D01*
X2624Y3384D01*
X2661Y3271D01*
X2683Y3236D01*
X2698Y3199D01*
X2767Y3103D01*
X2831Y3002D01*
X2861Y2974D01*
X2884Y2941D01*
X2976Y2865D01*
X3063Y2784D01*
X3098Y2764D01*
X3129Y2739D01*
X3237Y2688D01*
X3341Y2630D01*
X3381Y2620D01*
X3417Y2603D01*
X3534Y2581D01*
X3649Y2551D01*
X3709Y2547D01*
X3729Y2543D01*
X3750Y2545D01*
X3810Y2541D01*
X57531Y2541D01*
X57560Y2544D01*
G37*
%LPC*%
G36*
X719226Y446404D02*
X719226Y446404D01*
X710591Y449981D01*
X703981Y456591D01*
X700404Y465226D01*
X700404Y474574D01*
X703981Y483209D01*
X710591Y489819D01*
X719226Y493396D01*
X728574Y493396D01*
X737209Y489819D01*
X743819Y483209D01*
X747396Y474574D01*
X747396Y465226D01*
X743819Y456591D01*
X737209Y449981D01*
X728574Y446404D01*
X719226Y446404D01*
G37*
%LPD*%
%LPC*%
G36*
X658392Y291459D02*
X658392Y291459D01*
X651541Y294297D01*
X646297Y299541D01*
X643459Y306392D01*
X643459Y313808D01*
X646297Y320659D01*
X651541Y325903D01*
X658392Y328741D01*
X665808Y328741D01*
X672659Y325903D01*
X677903Y320659D01*
X680741Y313808D01*
X680741Y306392D01*
X677903Y299541D01*
X672659Y294297D01*
X665808Y291459D01*
X658392Y291459D01*
G37*
%LPD*%
%LPC*%
G36*
X658392Y160059D02*
X658392Y160059D01*
X651541Y162897D01*
X646297Y168141D01*
X643459Y174992D01*
X643459Y182408D01*
X646297Y189259D01*
X651541Y194503D01*
X658392Y197341D01*
X665808Y197341D01*
X672659Y194503D01*
X677903Y189259D01*
X680741Y182408D01*
X680741Y174992D01*
X677903Y168141D01*
X672659Y162897D01*
X665808Y160059D01*
X658392Y160059D01*
G37*
%LPD*%
%LPC*%
G36*
X633214Y225419D02*
X633214Y225419D01*
X629913Y226786D01*
X627386Y229313D01*
X626019Y232614D01*
X626019Y236186D01*
X627386Y239487D01*
X629913Y242014D01*
X632843Y243227D01*
X632964Y243296D01*
X633087Y243361D01*
X633102Y243375D01*
X633120Y243385D01*
X633220Y243482D01*
X633322Y243575D01*
X633333Y243592D01*
X633348Y243606D01*
X633421Y243725D01*
X633497Y243841D01*
X633504Y243860D01*
X633514Y243877D01*
X633555Y244010D01*
X633600Y244142D01*
X633602Y244162D01*
X633608Y244181D01*
X633615Y244320D01*
X633626Y244459D01*
X633622Y244479D01*
X633623Y244499D01*
X633595Y244635D01*
X633571Y244772D01*
X633563Y244791D01*
X633559Y244810D01*
X633497Y244936D01*
X633441Y245062D01*
X633428Y245078D01*
X633419Y245096D01*
X633329Y245202D01*
X633242Y245310D01*
X633226Y245323D01*
X633213Y245338D01*
X633099Y245418D01*
X632988Y245502D01*
X632963Y245514D01*
X632953Y245521D01*
X632933Y245528D01*
X632843Y245573D01*
X629913Y246786D01*
X627386Y249313D01*
X626019Y252614D01*
X626019Y256186D01*
X627386Y259487D01*
X629913Y262014D01*
X633214Y263381D01*
X636786Y263381D01*
X640087Y262014D01*
X642614Y259487D01*
X643981Y256186D01*
X643981Y252614D01*
X642614Y249313D01*
X640087Y246786D01*
X637157Y245573D01*
X637036Y245504D01*
X636913Y245439D01*
X636898Y245425D01*
X636880Y245415D01*
X636780Y245318D01*
X636678Y245225D01*
X636666Y245208D01*
X636652Y245194D01*
X636579Y245076D01*
X636503Y244959D01*
X636496Y244940D01*
X636486Y244923D01*
X636445Y244790D01*
X636400Y244658D01*
X636398Y244638D01*
X636392Y244619D01*
X636385Y244480D01*
X636374Y244341D01*
X636378Y244321D01*
X636377Y244301D01*
X636405Y244165D01*
X636429Y244028D01*
X636437Y244009D01*
X636441Y243990D01*
X636502Y243865D01*
X636559Y243738D01*
X636572Y243722D01*
X636581Y243704D01*
X636671Y243598D01*
X636758Y243490D01*
X636774Y243477D01*
X636787Y243462D01*
X636901Y243382D01*
X637012Y243298D01*
X637037Y243286D01*
X637047Y243279D01*
X637067Y243272D01*
X637157Y243227D01*
X640087Y242014D01*
X642614Y239487D01*
X643981Y236186D01*
X643981Y232614D01*
X642614Y229313D01*
X640087Y226786D01*
X636786Y225419D01*
X633214Y225419D01*
G37*
%LPD*%
%LPC*%
G36*
X608488Y337311D02*
X608488Y337311D01*
X606434Y338162D01*
X604862Y339734D01*
X604011Y341788D01*
X604011Y344012D01*
X604862Y346066D01*
X606434Y347638D01*
X607495Y348077D01*
X607616Y348146D01*
X607739Y348211D01*
X607754Y348225D01*
X607771Y348235D01*
X607872Y348332D01*
X607974Y348425D01*
X607985Y348442D01*
X608000Y348456D01*
X608073Y348575D01*
X608149Y348691D01*
X608156Y348710D01*
X608166Y348727D01*
X608207Y348860D01*
X608252Y348992D01*
X608254Y349012D01*
X608260Y349031D01*
X608266Y349170D01*
X608277Y349309D01*
X608274Y349329D01*
X608275Y349349D01*
X608247Y349485D01*
X608223Y349622D01*
X608215Y349641D01*
X608211Y349660D01*
X608150Y349785D01*
X608092Y349912D01*
X608080Y349928D01*
X608071Y349946D01*
X607980Y350052D01*
X607894Y350160D01*
X607878Y350173D01*
X607865Y350188D01*
X607750Y350268D01*
X607640Y350352D01*
X607615Y350364D01*
X607605Y350371D01*
X607585Y350378D01*
X607495Y350423D01*
X606434Y350862D01*
X604862Y352434D01*
X604011Y354488D01*
X604011Y356712D01*
X604862Y358766D01*
X606434Y360338D01*
X607495Y360777D01*
X607616Y360846D01*
X607739Y360911D01*
X607754Y360925D01*
X607771Y360935D01*
X607872Y361032D01*
X607974Y361125D01*
X607985Y361142D01*
X608000Y361156D01*
X608073Y361275D01*
X608149Y361391D01*
X608156Y361410D01*
X608166Y361427D01*
X608207Y361560D01*
X608252Y361692D01*
X608254Y361712D01*
X608260Y361731D01*
X608266Y361870D01*
X608277Y362009D01*
X608274Y362029D01*
X608275Y362049D01*
X608247Y362185D01*
X608223Y362322D01*
X608215Y362341D01*
X608211Y362360D01*
X608149Y362485D01*
X608092Y362612D01*
X608080Y362628D01*
X608071Y362646D01*
X607980Y362752D01*
X607894Y362860D01*
X607878Y362873D01*
X607865Y362888D01*
X607750Y362968D01*
X607640Y363052D01*
X607615Y363064D01*
X607605Y363071D01*
X607585Y363078D01*
X607495Y363123D01*
X606434Y363562D01*
X604862Y365134D01*
X604011Y367188D01*
X604011Y369412D01*
X604862Y371466D01*
X606434Y373038D01*
X608488Y373889D01*
X610712Y373889D01*
X612766Y373038D01*
X614338Y371466D01*
X615189Y369412D01*
X615189Y367188D01*
X614338Y365134D01*
X612766Y363562D01*
X611705Y363123D01*
X611584Y363054D01*
X611461Y362989D01*
X611446Y362975D01*
X611429Y362965D01*
X611329Y362868D01*
X611226Y362775D01*
X611215Y362758D01*
X611200Y362744D01*
X611127Y362625D01*
X611051Y362509D01*
X611044Y362490D01*
X611034Y362473D01*
X610993Y362340D01*
X610948Y362208D01*
X610946Y362188D01*
X610940Y362169D01*
X610934Y362030D01*
X610923Y361891D01*
X610926Y361871D01*
X610925Y361851D01*
X610953Y361715D01*
X610977Y361578D01*
X610985Y361559D01*
X610989Y361540D01*
X611051Y361415D01*
X611108Y361288D01*
X611120Y361272D01*
X611129Y361254D01*
X611219Y361148D01*
X611306Y361040D01*
X611322Y361027D01*
X611335Y361012D01*
X611449Y360932D01*
X611560Y360848D01*
X611586Y360836D01*
X611595Y360829D01*
X611614Y360822D01*
X611705Y360777D01*
X612766Y360338D01*
X614338Y358766D01*
X615189Y356712D01*
X615189Y354488D01*
X614338Y352434D01*
X612766Y350862D01*
X611705Y350423D01*
X611584Y350354D01*
X611461Y350289D01*
X611446Y350275D01*
X611429Y350265D01*
X611329Y350168D01*
X611226Y350075D01*
X611215Y350058D01*
X611200Y350044D01*
X611127Y349925D01*
X611051Y349809D01*
X611044Y349790D01*
X611034Y349773D01*
X610993Y349640D01*
X610948Y349508D01*
X610946Y349488D01*
X610940Y349469D01*
X610934Y349330D01*
X610923Y349191D01*
X610926Y349171D01*
X610925Y349151D01*
X610953Y349015D01*
X610977Y348878D01*
X610985Y348859D01*
X610989Y348840D01*
X611051Y348715D01*
X611108Y348588D01*
X611120Y348572D01*
X611129Y348554D01*
X611219Y348448D01*
X611306Y348340D01*
X611322Y348327D01*
X611335Y348312D01*
X611449Y348232D01*
X611560Y348148D01*
X611586Y348136D01*
X611595Y348129D01*
X611614Y348122D01*
X611705Y348077D01*
X612766Y347638D01*
X614338Y346066D01*
X615189Y344012D01*
X615189Y341788D01*
X614338Y339734D01*
X612766Y338162D01*
X610712Y337311D01*
X608488Y337311D01*
G37*
%LPD*%
%LPC*%
G36*
X659288Y337311D02*
X659288Y337311D01*
X657234Y338162D01*
X655662Y339734D01*
X654811Y341788D01*
X654811Y344012D01*
X655662Y346066D01*
X657234Y347638D01*
X658295Y348077D01*
X658416Y348146D01*
X658539Y348211D01*
X658554Y348225D01*
X658571Y348235D01*
X658672Y348332D01*
X658774Y348425D01*
X658785Y348442D01*
X658800Y348456D01*
X658873Y348575D01*
X658949Y348691D01*
X658956Y348710D01*
X658966Y348727D01*
X659007Y348860D01*
X659052Y348992D01*
X659054Y349012D01*
X659060Y349031D01*
X659066Y349170D01*
X659077Y349309D01*
X659074Y349329D01*
X659075Y349349D01*
X659047Y349485D01*
X659023Y349622D01*
X659015Y349641D01*
X659011Y349660D01*
X658950Y349785D01*
X658892Y349912D01*
X658880Y349928D01*
X658871Y349946D01*
X658780Y350052D01*
X658694Y350160D01*
X658678Y350173D01*
X658665Y350188D01*
X658550Y350268D01*
X658440Y350352D01*
X658415Y350364D01*
X658405Y350371D01*
X658385Y350378D01*
X658295Y350423D01*
X657234Y350862D01*
X655662Y352434D01*
X654811Y354488D01*
X654811Y356712D01*
X655662Y358766D01*
X657234Y360338D01*
X658295Y360777D01*
X658416Y360846D01*
X658539Y360911D01*
X658554Y360925D01*
X658571Y360935D01*
X658672Y361032D01*
X658774Y361125D01*
X658785Y361142D01*
X658800Y361156D01*
X658873Y361275D01*
X658949Y361391D01*
X658956Y361410D01*
X658966Y361427D01*
X659007Y361560D01*
X659052Y361692D01*
X659054Y361712D01*
X659060Y361731D01*
X659066Y361870D01*
X659077Y362009D01*
X659074Y362029D01*
X659075Y362049D01*
X659047Y362185D01*
X659023Y362322D01*
X659015Y362341D01*
X659011Y362360D01*
X658949Y362485D01*
X658892Y362612D01*
X658880Y362628D01*
X658871Y362646D01*
X658780Y362752D01*
X658694Y362860D01*
X658678Y362873D01*
X658665Y362888D01*
X658550Y362968D01*
X658440Y363052D01*
X658415Y363064D01*
X658405Y363071D01*
X658385Y363078D01*
X658295Y363123D01*
X657234Y363562D01*
X655662Y365134D01*
X654811Y367188D01*
X654811Y369412D01*
X655662Y371466D01*
X657234Y373038D01*
X659288Y373889D01*
X661512Y373889D01*
X663566Y373038D01*
X665138Y371466D01*
X665989Y369412D01*
X665989Y367188D01*
X665138Y365134D01*
X663566Y363562D01*
X662505Y363123D01*
X662384Y363054D01*
X662261Y362989D01*
X662246Y362975D01*
X662229Y362965D01*
X662129Y362868D01*
X662026Y362775D01*
X662015Y362758D01*
X662000Y362744D01*
X661927Y362625D01*
X661851Y362509D01*
X661844Y362490D01*
X661834Y362473D01*
X661793Y362340D01*
X661748Y362208D01*
X661746Y362188D01*
X661740Y362169D01*
X661734Y362030D01*
X661723Y361891D01*
X661726Y361871D01*
X661725Y361851D01*
X661753Y361715D01*
X661777Y361578D01*
X661785Y361559D01*
X661789Y361540D01*
X661851Y361415D01*
X661908Y361288D01*
X661920Y361272D01*
X661929Y361254D01*
X662019Y361148D01*
X662106Y361040D01*
X662122Y361027D01*
X662135Y361012D01*
X662249Y360932D01*
X662360Y360848D01*
X662386Y360836D01*
X662395Y360829D01*
X662414Y360822D01*
X662505Y360777D01*
X663566Y360338D01*
X665138Y358766D01*
X665989Y356712D01*
X665989Y354488D01*
X665138Y352434D01*
X663566Y350862D01*
X662505Y350423D01*
X662384Y350354D01*
X662261Y350289D01*
X662246Y350275D01*
X662229Y350265D01*
X662129Y350168D01*
X662026Y350075D01*
X662015Y350058D01*
X662000Y350044D01*
X661927Y349925D01*
X661851Y349809D01*
X661844Y349790D01*
X661834Y349773D01*
X661793Y349640D01*
X661748Y349508D01*
X661746Y349488D01*
X661740Y349469D01*
X661734Y349330D01*
X661723Y349191D01*
X661726Y349171D01*
X661725Y349151D01*
X661753Y349015D01*
X661777Y348878D01*
X661785Y348859D01*
X661789Y348840D01*
X661851Y348715D01*
X661908Y348588D01*
X661920Y348572D01*
X661929Y348554D01*
X662019Y348448D01*
X662106Y348340D01*
X662122Y348327D01*
X662135Y348312D01*
X662249Y348232D01*
X662360Y348148D01*
X662386Y348136D01*
X662395Y348129D01*
X662414Y348122D01*
X662505Y348077D01*
X663566Y347638D01*
X665138Y346066D01*
X665989Y344012D01*
X665989Y341788D01*
X665138Y339734D01*
X663566Y338162D01*
X661512Y337311D01*
X659288Y337311D01*
G37*
%LPD*%
%LPC*%
G36*
X633214Y270419D02*
X633214Y270419D01*
X629913Y271786D01*
X627386Y274313D01*
X626019Y277614D01*
X626019Y281186D01*
X627386Y284487D01*
X629913Y287014D01*
X633214Y288381D01*
X636786Y288381D01*
X640087Y287014D01*
X642614Y284487D01*
X643981Y281186D01*
X643981Y277614D01*
X642614Y274313D01*
X640087Y271786D01*
X636786Y270419D01*
X633214Y270419D01*
G37*
%LPD*%
%LPC*%
G36*
X336757Y413136D02*
X336757Y413136D01*
X333536Y414470D01*
X331070Y416936D01*
X329736Y420157D01*
X329736Y423643D01*
X331070Y426864D01*
X333536Y429330D01*
X336757Y430664D01*
X340243Y430664D01*
X343464Y429330D01*
X345930Y426864D01*
X347264Y423643D01*
X347264Y420157D01*
X345930Y416936D01*
X343464Y414470D01*
X340243Y413136D01*
X336757Y413136D01*
G37*
%LPD*%
%LPC*%
G36*
X311357Y413136D02*
X311357Y413136D01*
X308136Y414470D01*
X305670Y416936D01*
X304336Y420157D01*
X304336Y423643D01*
X305670Y426864D01*
X308136Y429330D01*
X311357Y430664D01*
X314843Y430664D01*
X318064Y429330D01*
X320530Y426864D01*
X321864Y423643D01*
X321864Y420157D01*
X320530Y416936D01*
X318064Y414470D01*
X314843Y413136D01*
X311357Y413136D01*
G37*
%LPD*%
%LPC*%
G36*
X285957Y413136D02*
X285957Y413136D01*
X282736Y414470D01*
X280270Y416936D01*
X278936Y420157D01*
X278936Y423643D01*
X280270Y426864D01*
X282736Y429330D01*
X285957Y430664D01*
X289443Y430664D01*
X292664Y429330D01*
X295130Y426864D01*
X296464Y423643D01*
X296464Y420157D01*
X295130Y416936D01*
X292664Y414470D01*
X289443Y413136D01*
X285957Y413136D01*
G37*
%LPD*%
%LPC*%
G36*
X209757Y413136D02*
X209757Y413136D01*
X206536Y414470D01*
X204070Y416936D01*
X202736Y420157D01*
X202736Y423643D01*
X204070Y426864D01*
X206536Y429330D01*
X209757Y430664D01*
X213243Y430664D01*
X216464Y429330D01*
X218930Y426864D01*
X220264Y423643D01*
X220264Y420157D01*
X218930Y416936D01*
X216464Y414470D01*
X213243Y413136D01*
X209757Y413136D01*
G37*
%LPD*%
%LPC*%
G36*
X184357Y413136D02*
X184357Y413136D01*
X181136Y414470D01*
X178670Y416936D01*
X177336Y420157D01*
X177336Y423643D01*
X178670Y426864D01*
X181136Y429330D01*
X184357Y430664D01*
X187843Y430664D01*
X191064Y429330D01*
X193530Y426864D01*
X194864Y423643D01*
X194864Y420157D01*
X193530Y416936D01*
X191064Y414470D01*
X187843Y413136D01*
X184357Y413136D01*
G37*
%LPD*%
%LPC*%
G36*
X158957Y413136D02*
X158957Y413136D01*
X155736Y414470D01*
X153270Y416936D01*
X151936Y420157D01*
X151936Y423643D01*
X153270Y426864D01*
X155736Y429330D01*
X158957Y430664D01*
X162443Y430664D01*
X165664Y429330D01*
X168130Y426864D01*
X169464Y423643D01*
X169464Y420157D01*
X168130Y416936D01*
X165664Y414470D01*
X162443Y413136D01*
X158957Y413136D01*
G37*
%LPD*%
%LPC*%
G36*
X133557Y413136D02*
X133557Y413136D01*
X130336Y414470D01*
X127870Y416936D01*
X126536Y420157D01*
X126536Y423643D01*
X127870Y426864D01*
X130336Y429330D01*
X133557Y430664D01*
X137043Y430664D01*
X140264Y429330D01*
X142730Y426864D01*
X144064Y423643D01*
X144064Y420157D01*
X142730Y416936D01*
X140264Y414470D01*
X137043Y413136D01*
X133557Y413136D01*
G37*
%LPD*%
%LPC*%
G36*
X108157Y413136D02*
X108157Y413136D01*
X104936Y414470D01*
X102470Y416936D01*
X101136Y420157D01*
X101136Y423643D01*
X102470Y426864D01*
X104936Y429330D01*
X108157Y430664D01*
X111643Y430664D01*
X114864Y429330D01*
X117330Y426864D01*
X118664Y423643D01*
X118664Y420157D01*
X117330Y416936D01*
X114864Y414470D01*
X111643Y413136D01*
X108157Y413136D01*
G37*
%LPD*%
%LPC*%
G36*
X82757Y413136D02*
X82757Y413136D01*
X79536Y414470D01*
X77070Y416936D01*
X75736Y420157D01*
X75736Y423643D01*
X77070Y426864D01*
X79536Y429330D01*
X82757Y430664D01*
X86243Y430664D01*
X89464Y429330D01*
X91930Y426864D01*
X93264Y423643D01*
X93264Y420157D01*
X91930Y416936D01*
X89464Y414470D01*
X86243Y413136D01*
X82757Y413136D01*
G37*
%LPD*%
%LPC*%
G36*
X209757Y133736D02*
X209757Y133736D01*
X206536Y135070D01*
X204070Y137536D01*
X202736Y140757D01*
X202736Y144243D01*
X204070Y147464D01*
X206536Y149930D01*
X209757Y151264D01*
X213243Y151264D01*
X216464Y149930D01*
X218930Y147464D01*
X220264Y144243D01*
X220264Y140757D01*
X218930Y137536D01*
X216464Y135070D01*
X213243Y133736D01*
X209757Y133736D01*
G37*
%LPD*%
%LPC*%
G36*
X235157Y133736D02*
X235157Y133736D01*
X231936Y135070D01*
X229470Y137536D01*
X228136Y140757D01*
X228136Y144243D01*
X229470Y147464D01*
X231936Y149930D01*
X235157Y151264D01*
X238643Y151264D01*
X241864Y149930D01*
X244330Y147464D01*
X245664Y144243D01*
X245664Y140757D01*
X244330Y137536D01*
X241864Y135070D01*
X238643Y133736D01*
X235157Y133736D01*
G37*
%LPD*%
%LPC*%
G36*
X362157Y133736D02*
X362157Y133736D01*
X358936Y135070D01*
X356470Y137536D01*
X355136Y140757D01*
X355136Y144243D01*
X356470Y147464D01*
X358936Y149930D01*
X362157Y151264D01*
X365643Y151264D01*
X368864Y149930D01*
X371330Y147464D01*
X372664Y144243D01*
X372664Y140757D01*
X371330Y137536D01*
X368864Y135070D01*
X365643Y133736D01*
X362157Y133736D01*
G37*
%LPD*%
%LPC*%
G36*
X311357Y159136D02*
X311357Y159136D01*
X308136Y160470D01*
X305670Y162936D01*
X304336Y166157D01*
X304336Y169643D01*
X305670Y172864D01*
X308136Y175330D01*
X311357Y176664D01*
X314843Y176664D01*
X318064Y175330D01*
X320530Y172864D01*
X321864Y169643D01*
X321864Y166157D01*
X320530Y162936D01*
X318064Y160470D01*
X314843Y159136D01*
X311357Y159136D01*
G37*
%LPD*%
%LPC*%
G36*
X362157Y413136D02*
X362157Y413136D01*
X358936Y414470D01*
X356470Y416936D01*
X355136Y420157D01*
X355136Y423643D01*
X356470Y426864D01*
X358936Y429330D01*
X362157Y430664D01*
X365643Y430664D01*
X368864Y429330D01*
X371330Y426864D01*
X372664Y423643D01*
X372664Y420157D01*
X371330Y416936D01*
X368864Y414470D01*
X365643Y413136D01*
X362157Y413136D01*
G37*
%LPD*%
%LPC*%
G36*
X184357Y133736D02*
X184357Y133736D01*
X181136Y135070D01*
X178670Y137536D01*
X177336Y140757D01*
X177336Y144243D01*
X178670Y147464D01*
X181136Y149930D01*
X184357Y151264D01*
X187843Y151264D01*
X191064Y149930D01*
X193530Y147464D01*
X194864Y144243D01*
X194864Y140757D01*
X193530Y137536D01*
X191064Y135070D01*
X187843Y133736D01*
X184357Y133736D01*
G37*
%LPD*%
%LPC*%
G36*
X158957Y133736D02*
X158957Y133736D01*
X155736Y135070D01*
X153270Y137536D01*
X151936Y140757D01*
X151936Y144243D01*
X153270Y147464D01*
X155736Y149930D01*
X158957Y151264D01*
X162443Y151264D01*
X165664Y149930D01*
X168130Y147464D01*
X169464Y144243D01*
X169464Y140757D01*
X168130Y137536D01*
X165664Y135070D01*
X162443Y133736D01*
X158957Y133736D01*
G37*
%LPD*%
%LPC*%
G36*
X133557Y133736D02*
X133557Y133736D01*
X130336Y135070D01*
X127870Y137536D01*
X126536Y140757D01*
X126536Y144243D01*
X127870Y147464D01*
X130336Y149930D01*
X133557Y151264D01*
X137043Y151264D01*
X140264Y149930D01*
X142730Y147464D01*
X144064Y144243D01*
X144064Y140757D01*
X142730Y137536D01*
X140264Y135070D01*
X137043Y133736D01*
X133557Y133736D01*
G37*
%LPD*%
%LPC*%
G36*
X514557Y387736D02*
X514557Y387736D01*
X511336Y389070D01*
X508870Y391536D01*
X507536Y394757D01*
X507536Y398243D01*
X508870Y401464D01*
X511336Y403930D01*
X514557Y405264D01*
X518043Y405264D01*
X521264Y403930D01*
X523730Y401464D01*
X525064Y398243D01*
X525064Y394757D01*
X523730Y391536D01*
X521264Y389070D01*
X518043Y387736D01*
X514557Y387736D01*
G37*
%LPD*%
%LPC*%
G36*
X489157Y387736D02*
X489157Y387736D01*
X485936Y389070D01*
X483470Y391536D01*
X482136Y394757D01*
X482136Y398243D01*
X483470Y401464D01*
X485936Y403930D01*
X489157Y405264D01*
X492643Y405264D01*
X495864Y403930D01*
X498330Y401464D01*
X499664Y398243D01*
X499664Y394757D01*
X498330Y391536D01*
X495864Y389070D01*
X492643Y387736D01*
X489157Y387736D01*
G37*
%LPD*%
%LPC*%
G36*
X463757Y387736D02*
X463757Y387736D01*
X460536Y389070D01*
X458070Y391536D01*
X456736Y394757D01*
X456736Y398243D01*
X458070Y401464D01*
X460536Y403930D01*
X463757Y405264D01*
X467243Y405264D01*
X470464Y403930D01*
X472930Y401464D01*
X474264Y398243D01*
X474264Y394757D01*
X472930Y391536D01*
X470464Y389070D01*
X467243Y387736D01*
X463757Y387736D01*
G37*
%LPD*%
%LPC*%
G36*
X438357Y387736D02*
X438357Y387736D01*
X435136Y389070D01*
X432670Y391536D01*
X431336Y394757D01*
X431336Y398243D01*
X432670Y401464D01*
X435136Y403930D01*
X438357Y405264D01*
X441843Y405264D01*
X445064Y403930D01*
X447530Y401464D01*
X448864Y398243D01*
X448864Y394757D01*
X447530Y391536D01*
X445064Y389070D01*
X441843Y387736D01*
X438357Y387736D01*
G37*
%LPD*%
%LPC*%
G36*
X412957Y387736D02*
X412957Y387736D01*
X409736Y389070D01*
X407270Y391536D01*
X405936Y394757D01*
X405936Y398243D01*
X407270Y401464D01*
X409736Y403930D01*
X412957Y405264D01*
X416443Y405264D01*
X419664Y403930D01*
X422130Y401464D01*
X423464Y398243D01*
X423464Y394757D01*
X422130Y391536D01*
X419664Y389070D01*
X416443Y387736D01*
X412957Y387736D01*
G37*
%LPD*%
%LPC*%
G36*
X311357Y387736D02*
X311357Y387736D01*
X308136Y389070D01*
X305670Y391536D01*
X304336Y394757D01*
X304336Y398243D01*
X305670Y401464D01*
X308136Y403930D01*
X311357Y405264D01*
X314843Y405264D01*
X318064Y403930D01*
X320530Y401464D01*
X321864Y398243D01*
X321864Y394757D01*
X320530Y391536D01*
X318064Y389070D01*
X314843Y387736D01*
X311357Y387736D01*
G37*
%LPD*%
%LPC*%
G36*
X285957Y387736D02*
X285957Y387736D01*
X282736Y389070D01*
X280270Y391536D01*
X278936Y394757D01*
X278936Y398243D01*
X280270Y401464D01*
X282736Y403930D01*
X285957Y405264D01*
X289443Y405264D01*
X292664Y403930D01*
X295130Y401464D01*
X296464Y398243D01*
X296464Y394757D01*
X295130Y391536D01*
X292664Y389070D01*
X289443Y387736D01*
X285957Y387736D01*
G37*
%LPD*%
%LPC*%
G36*
X235157Y387736D02*
X235157Y387736D01*
X231936Y389070D01*
X229470Y391536D01*
X228136Y394757D01*
X228136Y398243D01*
X229470Y401464D01*
X231936Y403930D01*
X235157Y405264D01*
X238643Y405264D01*
X241864Y403930D01*
X244330Y401464D01*
X245664Y398243D01*
X245664Y394757D01*
X244330Y391536D01*
X241864Y389070D01*
X238643Y387736D01*
X235157Y387736D01*
G37*
%LPD*%
%LPC*%
G36*
X209757Y387736D02*
X209757Y387736D01*
X206536Y389070D01*
X204070Y391536D01*
X202736Y394757D01*
X202736Y398243D01*
X204070Y401464D01*
X206536Y403930D01*
X209757Y405264D01*
X213243Y405264D01*
X216464Y403930D01*
X218930Y401464D01*
X220264Y398243D01*
X220264Y394757D01*
X218930Y391536D01*
X216464Y389070D01*
X213243Y387736D01*
X209757Y387736D01*
G37*
%LPD*%
%LPC*%
G36*
X184357Y387736D02*
X184357Y387736D01*
X181136Y389070D01*
X178670Y391536D01*
X177336Y394757D01*
X177336Y398243D01*
X178670Y401464D01*
X181136Y403930D01*
X184357Y405264D01*
X187843Y405264D01*
X191064Y403930D01*
X193530Y401464D01*
X194864Y398243D01*
X194864Y394757D01*
X193530Y391536D01*
X191064Y389070D01*
X187843Y387736D01*
X184357Y387736D01*
G37*
%LPD*%
%LPC*%
G36*
X158957Y387736D02*
X158957Y387736D01*
X155736Y389070D01*
X153270Y391536D01*
X151936Y394757D01*
X151936Y398243D01*
X153270Y401464D01*
X155736Y403930D01*
X158957Y405264D01*
X162443Y405264D01*
X165664Y403930D01*
X168130Y401464D01*
X169464Y398243D01*
X169464Y394757D01*
X168130Y391536D01*
X165664Y389070D01*
X162443Y387736D01*
X158957Y387736D01*
G37*
%LPD*%
%LPC*%
G36*
X133557Y387736D02*
X133557Y387736D01*
X130336Y389070D01*
X127870Y391536D01*
X126536Y394757D01*
X126536Y398243D01*
X127870Y401464D01*
X130336Y403930D01*
X133557Y405264D01*
X137043Y405264D01*
X140264Y403930D01*
X142730Y401464D01*
X144064Y398243D01*
X144064Y394757D01*
X142730Y391536D01*
X140264Y389070D01*
X137043Y387736D01*
X133557Y387736D01*
G37*
%LPD*%
%LPC*%
G36*
X108157Y387736D02*
X108157Y387736D01*
X104936Y389070D01*
X102470Y391536D01*
X101136Y394757D01*
X101136Y398243D01*
X102470Y401464D01*
X104936Y403930D01*
X108157Y405264D01*
X111643Y405264D01*
X114864Y403930D01*
X117330Y401464D01*
X118664Y398243D01*
X118664Y394757D01*
X117330Y391536D01*
X114864Y389070D01*
X111643Y387736D01*
X108157Y387736D01*
G37*
%LPD*%
%LPC*%
G36*
X82757Y387736D02*
X82757Y387736D01*
X79536Y389070D01*
X77070Y391536D01*
X75736Y394757D01*
X75736Y398243D01*
X77070Y401464D01*
X79536Y403930D01*
X82757Y405264D01*
X86243Y405264D01*
X89464Y403930D01*
X91930Y401464D01*
X93264Y398243D01*
X93264Y394757D01*
X91930Y391536D01*
X89464Y389070D01*
X86243Y387736D01*
X82757Y387736D01*
G37*
%LPD*%
%LPC*%
G36*
X387557Y387736D02*
X387557Y387736D01*
X384336Y389070D01*
X381870Y391536D01*
X380536Y394757D01*
X380536Y398243D01*
X381870Y401464D01*
X384336Y403930D01*
X387557Y405264D01*
X391043Y405264D01*
X394264Y403930D01*
X396730Y401464D01*
X398064Y398243D01*
X398064Y394757D01*
X396730Y391536D01*
X394264Y389070D01*
X391043Y387736D01*
X387557Y387736D01*
G37*
%LPD*%
%LPC*%
G36*
X362157Y387736D02*
X362157Y387736D01*
X358936Y389070D01*
X356470Y391536D01*
X355136Y394757D01*
X355136Y398243D01*
X356470Y401464D01*
X358936Y403930D01*
X362157Y405264D01*
X365643Y405264D01*
X368864Y403930D01*
X371330Y401464D01*
X372664Y398243D01*
X372664Y394757D01*
X371330Y391536D01*
X368864Y389070D01*
X365643Y387736D01*
X362157Y387736D01*
G37*
%LPD*%
%LPC*%
G36*
X108157Y133736D02*
X108157Y133736D01*
X104936Y135070D01*
X102470Y137536D01*
X101136Y140757D01*
X101136Y144243D01*
X102470Y147464D01*
X104936Y149930D01*
X108157Y151264D01*
X111643Y151264D01*
X114864Y149930D01*
X117330Y147464D01*
X118664Y144243D01*
X118664Y140757D01*
X117330Y137536D01*
X114864Y135070D01*
X111643Y133736D01*
X108157Y133736D01*
G37*
%LPD*%
%LPC*%
G36*
X82757Y133736D02*
X82757Y133736D01*
X79536Y135070D01*
X77070Y137536D01*
X75736Y140757D01*
X75736Y144243D01*
X77070Y147464D01*
X79536Y149930D01*
X82757Y151264D01*
X86243Y151264D01*
X89464Y149930D01*
X91930Y147464D01*
X93264Y144243D01*
X93264Y140757D01*
X91930Y137536D01*
X89464Y135070D01*
X86243Y133736D01*
X82757Y133736D01*
G37*
%LPD*%
%LPC*%
G36*
X311357Y133736D02*
X311357Y133736D01*
X308136Y135070D01*
X305670Y137536D01*
X304336Y140757D01*
X304336Y144243D01*
X305670Y147464D01*
X308136Y149930D01*
X311357Y151264D01*
X314843Y151264D01*
X318064Y149930D01*
X320530Y147464D01*
X321864Y144243D01*
X321864Y140757D01*
X320530Y137536D01*
X318064Y135070D01*
X314843Y133736D01*
X311357Y133736D01*
G37*
%LPD*%
%LPC*%
G36*
X336757Y133736D02*
X336757Y133736D01*
X333536Y135070D01*
X331070Y137536D01*
X329736Y140757D01*
X329736Y144243D01*
X331070Y147464D01*
X333536Y149930D01*
X336757Y151264D01*
X340243Y151264D01*
X343464Y149930D01*
X345930Y147464D01*
X347264Y144243D01*
X347264Y140757D01*
X345930Y137536D01*
X343464Y135070D01*
X340243Y133736D01*
X336757Y133736D01*
G37*
%LPD*%
%LPC*%
G36*
X260557Y133736D02*
X260557Y133736D01*
X257336Y135070D01*
X254870Y137536D01*
X253536Y140757D01*
X253536Y144243D01*
X254870Y147464D01*
X257336Y149930D01*
X260557Y151264D01*
X264043Y151264D01*
X267264Y149930D01*
X269730Y147464D01*
X271064Y144243D01*
X271064Y140757D01*
X269730Y137536D01*
X267264Y135070D01*
X264043Y133736D01*
X260557Y133736D01*
G37*
%LPD*%
%LPC*%
G36*
X285957Y133736D02*
X285957Y133736D01*
X282736Y135070D01*
X280270Y137536D01*
X278936Y140757D01*
X278936Y144243D01*
X280270Y147464D01*
X282736Y149930D01*
X285957Y151264D01*
X289443Y151264D01*
X292664Y149930D01*
X295130Y147464D01*
X296464Y144243D01*
X296464Y140757D01*
X295130Y137536D01*
X292664Y135070D01*
X289443Y133736D01*
X285957Y133736D01*
G37*
%LPD*%
%LPC*%
G36*
X514557Y133736D02*
X514557Y133736D01*
X511336Y135070D01*
X508870Y137536D01*
X507536Y140757D01*
X507536Y144243D01*
X508870Y147464D01*
X511336Y149930D01*
X514557Y151264D01*
X518043Y151264D01*
X521264Y149930D01*
X523730Y147464D01*
X525064Y144243D01*
X525064Y140757D01*
X523730Y137536D01*
X521264Y135070D01*
X518043Y133736D01*
X514557Y133736D01*
G37*
%LPD*%
%LPC*%
G36*
X489157Y133736D02*
X489157Y133736D01*
X485936Y135070D01*
X483470Y137536D01*
X482136Y140757D01*
X482136Y144243D01*
X483470Y147464D01*
X485936Y149930D01*
X489157Y151264D01*
X492643Y151264D01*
X495864Y149930D01*
X498330Y147464D01*
X499664Y144243D01*
X499664Y140757D01*
X498330Y137536D01*
X495864Y135070D01*
X492643Y133736D01*
X489157Y133736D01*
G37*
%LPD*%
%LPC*%
G36*
X387557Y413136D02*
X387557Y413136D01*
X384336Y414470D01*
X381870Y416936D01*
X380536Y420157D01*
X380536Y423643D01*
X381870Y426864D01*
X384336Y429330D01*
X387557Y430664D01*
X391043Y430664D01*
X394264Y429330D01*
X396730Y426864D01*
X398064Y423643D01*
X398064Y420157D01*
X396730Y416936D01*
X394264Y414470D01*
X391043Y413136D01*
X387557Y413136D01*
G37*
%LPD*%
%LPC*%
G36*
X463757Y413136D02*
X463757Y413136D01*
X460536Y414470D01*
X458070Y416936D01*
X456736Y420157D01*
X456736Y423643D01*
X458070Y426864D01*
X460536Y429330D01*
X463757Y430664D01*
X467243Y430664D01*
X470464Y429330D01*
X472930Y426864D01*
X474264Y423643D01*
X474264Y420157D01*
X472930Y416936D01*
X470464Y414470D01*
X467243Y413136D01*
X463757Y413136D01*
G37*
%LPD*%
%LPC*%
G36*
X489157Y413136D02*
X489157Y413136D01*
X485936Y414470D01*
X483470Y416936D01*
X482136Y420157D01*
X482136Y423643D01*
X483470Y426864D01*
X485936Y429330D01*
X489157Y430664D01*
X492643Y430664D01*
X495864Y429330D01*
X498330Y426864D01*
X499664Y423643D01*
X499664Y420157D01*
X498330Y416936D01*
X495864Y414470D01*
X492643Y413136D01*
X489157Y413136D01*
G37*
%LPD*%
%LPC*%
G36*
X514557Y413136D02*
X514557Y413136D01*
X511336Y414470D01*
X508870Y416936D01*
X507536Y420157D01*
X507536Y423643D01*
X508870Y426864D01*
X511336Y429330D01*
X514557Y430664D01*
X518043Y430664D01*
X521264Y429330D01*
X523730Y426864D01*
X525064Y423643D01*
X525064Y420157D01*
X523730Y416936D01*
X521264Y414470D01*
X518043Y413136D01*
X514557Y413136D01*
G37*
%LPD*%
%LPC*%
G36*
X412957Y413136D02*
X412957Y413136D01*
X409736Y414470D01*
X407270Y416936D01*
X405936Y420157D01*
X405936Y423643D01*
X407270Y426864D01*
X409736Y429330D01*
X412957Y430664D01*
X416443Y430664D01*
X419664Y429330D01*
X422130Y426864D01*
X423464Y423643D01*
X423464Y420157D01*
X422130Y416936D01*
X419664Y414470D01*
X416443Y413136D01*
X412957Y413136D01*
G37*
%LPD*%
%LPC*%
G36*
X362157Y159136D02*
X362157Y159136D01*
X358936Y160470D01*
X356470Y162936D01*
X355136Y166157D01*
X355136Y169643D01*
X356470Y172864D01*
X358936Y175330D01*
X362157Y176664D01*
X365643Y176664D01*
X368864Y175330D01*
X371330Y172864D01*
X372664Y169643D01*
X372664Y166157D01*
X371330Y162936D01*
X368864Y160470D01*
X365643Y159136D01*
X362157Y159136D01*
G37*
%LPD*%
%LPC*%
G36*
X463757Y133736D02*
X463757Y133736D01*
X460536Y135070D01*
X458070Y137536D01*
X456736Y140757D01*
X456736Y144243D01*
X458070Y147464D01*
X460536Y149930D01*
X463757Y151264D01*
X467243Y151264D01*
X470464Y149930D01*
X472930Y147464D01*
X474264Y144243D01*
X474264Y140757D01*
X472930Y137536D01*
X470464Y135070D01*
X467243Y133736D01*
X463757Y133736D01*
G37*
%LPD*%
%LPC*%
G36*
X438357Y133736D02*
X438357Y133736D01*
X435136Y135070D01*
X432670Y137536D01*
X431336Y140757D01*
X431336Y144243D01*
X432670Y147464D01*
X435136Y149930D01*
X438357Y151264D01*
X441843Y151264D01*
X445064Y149930D01*
X447530Y147464D01*
X448864Y144243D01*
X448864Y140757D01*
X447530Y137536D01*
X445064Y135070D01*
X441843Y133736D01*
X438357Y133736D01*
G37*
%LPD*%
%LPC*%
G36*
X412957Y133736D02*
X412957Y133736D01*
X409736Y135070D01*
X407270Y137536D01*
X405936Y140757D01*
X405936Y144243D01*
X407270Y147464D01*
X409736Y149930D01*
X412957Y151264D01*
X416443Y151264D01*
X419664Y149930D01*
X422130Y147464D01*
X423464Y144243D01*
X423464Y140757D01*
X422130Y137536D01*
X419664Y135070D01*
X416443Y133736D01*
X412957Y133736D01*
G37*
%LPD*%
%LPC*%
G36*
X387557Y133736D02*
X387557Y133736D01*
X384336Y135070D01*
X381870Y137536D01*
X380536Y140757D01*
X380536Y144243D01*
X381870Y147464D01*
X384336Y149930D01*
X387557Y151264D01*
X391043Y151264D01*
X394264Y149930D01*
X396730Y147464D01*
X398064Y144243D01*
X398064Y140757D01*
X396730Y137536D01*
X394264Y135070D01*
X391043Y133736D01*
X387557Y133736D01*
G37*
%LPD*%
%LPC*%
G36*
X438357Y413136D02*
X438357Y413136D01*
X435136Y414470D01*
X432670Y416936D01*
X431336Y420157D01*
X431336Y423643D01*
X432670Y426864D01*
X435136Y429330D01*
X438357Y430664D01*
X441843Y430664D01*
X445064Y429330D01*
X447530Y426864D01*
X448864Y423643D01*
X448864Y420157D01*
X447530Y416936D01*
X445064Y414470D01*
X441843Y413136D01*
X438357Y413136D01*
G37*
%LPD*%
%LPC*%
G36*
X235157Y159136D02*
X235157Y159136D01*
X231936Y160470D01*
X229470Y162936D01*
X228136Y166157D01*
X228136Y169643D01*
X229470Y172864D01*
X231936Y175330D01*
X235157Y176664D01*
X238643Y176664D01*
X241864Y175330D01*
X244330Y172864D01*
X245664Y169643D01*
X245664Y166157D01*
X244330Y162936D01*
X241864Y160470D01*
X238643Y159136D01*
X235157Y159136D01*
G37*
%LPD*%
%LPC*%
G36*
X412957Y159136D02*
X412957Y159136D01*
X409736Y160470D01*
X407270Y162936D01*
X405936Y166157D01*
X405936Y169643D01*
X407270Y172864D01*
X409736Y175330D01*
X412957Y176664D01*
X416443Y176664D01*
X419664Y175330D01*
X422130Y172864D01*
X423464Y169643D01*
X423464Y166157D01*
X422130Y162936D01*
X419664Y160470D01*
X416443Y159136D01*
X412957Y159136D01*
G37*
%LPD*%
%LPC*%
G36*
X184357Y159136D02*
X184357Y159136D01*
X181136Y160470D01*
X178670Y162936D01*
X177336Y166157D01*
X177336Y169643D01*
X178670Y172864D01*
X181136Y175330D01*
X184357Y176664D01*
X187843Y176664D01*
X191064Y175330D01*
X193530Y172864D01*
X194864Y169643D01*
X194864Y166157D01*
X193530Y162936D01*
X191064Y160470D01*
X187843Y159136D01*
X184357Y159136D01*
G37*
%LPD*%
%LPC*%
G36*
X209757Y159136D02*
X209757Y159136D01*
X206536Y160470D01*
X204070Y162936D01*
X202736Y166157D01*
X202736Y169643D01*
X204070Y172864D01*
X206536Y175330D01*
X209757Y176664D01*
X213243Y176664D01*
X216464Y175330D01*
X218930Y172864D01*
X220264Y169643D01*
X220264Y166157D01*
X218930Y162936D01*
X216464Y160470D01*
X213243Y159136D01*
X209757Y159136D01*
G37*
%LPD*%
%LPC*%
G36*
X133557Y159136D02*
X133557Y159136D01*
X130336Y160470D01*
X127870Y162936D01*
X126536Y166157D01*
X126536Y169643D01*
X127870Y172864D01*
X130336Y175330D01*
X133557Y176664D01*
X137043Y176664D01*
X140264Y175330D01*
X142730Y172864D01*
X144064Y169643D01*
X144064Y166157D01*
X142730Y162936D01*
X140264Y160470D01*
X137043Y159136D01*
X133557Y159136D01*
G37*
%LPD*%
%LPC*%
G36*
X285957Y159136D02*
X285957Y159136D01*
X282736Y160470D01*
X280270Y162936D01*
X278936Y166157D01*
X278936Y169643D01*
X280270Y172864D01*
X282736Y175330D01*
X285957Y176664D01*
X289443Y176664D01*
X292664Y175330D01*
X295130Y172864D01*
X296464Y169643D01*
X296464Y166157D01*
X295130Y162936D01*
X292664Y160470D01*
X289443Y159136D01*
X285957Y159136D01*
G37*
%LPD*%
%LPC*%
G36*
X82757Y159136D02*
X82757Y159136D01*
X79536Y160470D01*
X77070Y162936D01*
X75736Y166157D01*
X75736Y169643D01*
X77070Y172864D01*
X79536Y175330D01*
X82757Y176664D01*
X86243Y176664D01*
X89464Y175330D01*
X91930Y172864D01*
X93264Y169643D01*
X93264Y166157D01*
X91930Y162936D01*
X89464Y160470D01*
X86243Y159136D01*
X82757Y159136D01*
G37*
%LPD*%
%LPC*%
G36*
X108157Y159136D02*
X108157Y159136D01*
X104936Y160470D01*
X102470Y162936D01*
X101136Y166157D01*
X101136Y169643D01*
X102470Y172864D01*
X104936Y175330D01*
X108157Y176664D01*
X111643Y176664D01*
X114864Y175330D01*
X117330Y172864D01*
X118664Y169643D01*
X118664Y166157D01*
X117330Y162936D01*
X114864Y160470D01*
X111643Y159136D01*
X108157Y159136D01*
G37*
%LPD*%
%LPC*%
G36*
X514557Y159136D02*
X514557Y159136D01*
X511336Y160470D01*
X508870Y162936D01*
X507536Y166157D01*
X507536Y169643D01*
X508870Y172864D01*
X511336Y175330D01*
X514557Y176664D01*
X518043Y176664D01*
X521264Y175330D01*
X523730Y172864D01*
X525064Y169643D01*
X525064Y166157D01*
X523730Y162936D01*
X521264Y160470D01*
X518043Y159136D01*
X514557Y159136D01*
G37*
%LPD*%
%LPC*%
G36*
X489157Y159136D02*
X489157Y159136D01*
X485936Y160470D01*
X483470Y162936D01*
X482136Y166157D01*
X482136Y169643D01*
X483470Y172864D01*
X485936Y175330D01*
X489157Y176664D01*
X492643Y176664D01*
X495864Y175330D01*
X498330Y172864D01*
X499664Y169643D01*
X499664Y166157D01*
X498330Y162936D01*
X495864Y160470D01*
X492643Y159136D01*
X489157Y159136D01*
G37*
%LPD*%
%LPC*%
G36*
X463757Y159136D02*
X463757Y159136D01*
X460536Y160470D01*
X458070Y162936D01*
X456736Y166157D01*
X456736Y169643D01*
X458070Y172864D01*
X460536Y175330D01*
X463757Y176664D01*
X467243Y176664D01*
X470464Y175330D01*
X472930Y172864D01*
X474264Y169643D01*
X474264Y166157D01*
X472930Y162936D01*
X470464Y160470D01*
X467243Y159136D01*
X463757Y159136D01*
G37*
%LPD*%
%LPC*%
G36*
X438357Y159136D02*
X438357Y159136D01*
X435136Y160470D01*
X432670Y162936D01*
X431336Y166157D01*
X431336Y169643D01*
X432670Y172864D01*
X435136Y175330D01*
X438357Y176664D01*
X441843Y176664D01*
X445064Y175330D01*
X447530Y172864D01*
X448864Y169643D01*
X448864Y166157D01*
X447530Y162936D01*
X445064Y160470D01*
X441843Y159136D01*
X438357Y159136D01*
G37*
%LPD*%
%LPC*%
G36*
X158957Y159136D02*
X158957Y159136D01*
X155736Y160470D01*
X153270Y162936D01*
X151936Y166157D01*
X151936Y169643D01*
X153270Y172864D01*
X155736Y175330D01*
X158957Y176664D01*
X162443Y176664D01*
X165664Y175330D01*
X168130Y172864D01*
X169464Y169643D01*
X169464Y166157D01*
X168130Y162936D01*
X165664Y160470D01*
X162443Y159136D01*
X158957Y159136D01*
G37*
%LPD*%
%LPC*%
G36*
X387557Y159136D02*
X387557Y159136D01*
X384336Y160470D01*
X381870Y162936D01*
X380536Y166157D01*
X380536Y169643D01*
X381870Y172864D01*
X384336Y175330D01*
X387557Y176664D01*
X391043Y176664D01*
X394264Y175330D01*
X396730Y172864D01*
X398064Y169643D01*
X398064Y166157D01*
X396730Y162936D01*
X394264Y160470D01*
X391043Y159136D01*
X387557Y159136D01*
G37*
%LPD*%
%LPC*%
G36*
X550068Y240791D02*
X550068Y240791D01*
X548014Y241642D01*
X546442Y243214D01*
X545591Y245268D01*
X545591Y247492D01*
X546442Y249546D01*
X547459Y250563D01*
X547532Y250657D01*
X547611Y250746D01*
X547629Y250782D01*
X547654Y250814D01*
X547701Y250923D01*
X547755Y251029D01*
X547764Y251068D01*
X547780Y251106D01*
X547799Y251223D01*
X547825Y251339D01*
X547824Y251380D01*
X547830Y251420D01*
X547819Y251538D01*
X547815Y251657D01*
X547804Y251696D01*
X547800Y251736D01*
X547760Y251848D01*
X547727Y251963D01*
X547706Y251998D01*
X547693Y252036D01*
X547626Y252134D01*
X547565Y252237D01*
X547526Y252282D01*
X547514Y252299D01*
X547499Y252312D01*
X547459Y252358D01*
X546442Y253374D01*
X545591Y255428D01*
X545591Y257652D01*
X546442Y259706D01*
X548014Y261278D01*
X550068Y262129D01*
X552292Y262129D01*
X554346Y261278D01*
X555918Y259706D01*
X556769Y257652D01*
X556769Y255428D01*
X555918Y253374D01*
X554901Y252358D01*
X554828Y252264D01*
X554749Y252174D01*
X554731Y252138D01*
X554706Y252106D01*
X554659Y251997D01*
X554605Y251891D01*
X554596Y251852D01*
X554580Y251814D01*
X554561Y251697D01*
X554535Y251581D01*
X554536Y251540D01*
X554530Y251500D01*
X554541Y251382D01*
X554545Y251263D01*
X554556Y251224D01*
X554560Y251184D01*
X554600Y251071D01*
X554633Y250957D01*
X554654Y250923D01*
X554667Y250884D01*
X554734Y250786D01*
X554795Y250683D01*
X554835Y250638D01*
X554846Y250621D01*
X554861Y250608D01*
X554901Y250563D01*
X555918Y249546D01*
X556769Y247492D01*
X556769Y245268D01*
X555918Y243214D01*
X554346Y241642D01*
X552292Y240791D01*
X550068Y240791D01*
G37*
%LPD*%
%LPC*%
G36*
X227488Y50291D02*
X227488Y50291D01*
X225434Y51142D01*
X223862Y52714D01*
X223011Y54768D01*
X223011Y56992D01*
X223862Y59046D01*
X225434Y60618D01*
X227488Y61469D01*
X229712Y61469D01*
X231766Y60618D01*
X233338Y59046D01*
X234189Y56992D01*
X234189Y54768D01*
X233338Y52714D01*
X231766Y51142D01*
X229712Y50291D01*
X227488Y50291D01*
G37*
%LPD*%
%LPC*%
G36*
X73389Y52939D02*
X73389Y52939D01*
X73389Y62492D01*
X73740Y62437D01*
X75587Y61837D01*
X77318Y60955D01*
X78889Y59813D01*
X80263Y58439D01*
X81405Y56868D01*
X82287Y55137D01*
X82887Y53290D01*
X82942Y52939D01*
X73389Y52939D01*
G37*
%LPD*%
%LPC*%
G36*
X198389Y52939D02*
X198389Y52939D01*
X198389Y62492D01*
X198740Y62437D01*
X200587Y61837D01*
X202318Y60955D01*
X203889Y59813D01*
X205263Y58439D01*
X206405Y56868D01*
X207287Y55137D01*
X207887Y53290D01*
X207942Y52939D01*
X198389Y52939D01*
G37*
%LPD*%
%LPC*%
G36*
X568689Y52939D02*
X568689Y52939D01*
X568689Y62492D01*
X569040Y62437D01*
X570887Y61837D01*
X572618Y60955D01*
X574189Y59813D01*
X575563Y58439D01*
X576705Y56868D01*
X577587Y55137D01*
X578187Y53290D01*
X578242Y52939D01*
X568689Y52939D01*
G37*
%LPD*%
%LPC*%
G36*
X73389Y47861D02*
X73389Y47861D01*
X82942Y47861D01*
X82887Y47510D01*
X82287Y45663D01*
X81405Y43932D01*
X80263Y42361D01*
X78889Y40987D01*
X77318Y39845D01*
X75587Y38963D01*
X73740Y38363D01*
X73389Y38308D01*
X73389Y47861D01*
G37*
%LPD*%
%LPC*%
G36*
X183758Y52939D02*
X183758Y52939D01*
X183813Y53290D01*
X184413Y55137D01*
X185295Y56868D01*
X186437Y58439D01*
X187811Y59813D01*
X189382Y60955D01*
X191113Y61837D01*
X192960Y62437D01*
X193311Y62492D01*
X193311Y52939D01*
X183758Y52939D01*
G37*
%LPD*%
%LPC*%
G36*
X554058Y52939D02*
X554058Y52939D01*
X554113Y53290D01*
X554713Y55137D01*
X555595Y56868D01*
X556737Y58439D01*
X558111Y59813D01*
X559682Y60955D01*
X561413Y61837D01*
X563260Y62437D01*
X563611Y62492D01*
X563611Y52939D01*
X554058Y52939D01*
G37*
%LPD*%
%LPC*%
G36*
X198389Y47861D02*
X198389Y47861D01*
X207942Y47861D01*
X207887Y47510D01*
X207287Y45663D01*
X206405Y43932D01*
X205263Y42361D01*
X203889Y40987D01*
X202318Y39845D01*
X200587Y38963D01*
X198740Y38363D01*
X198389Y38308D01*
X198389Y47861D01*
G37*
%LPD*%
%LPC*%
G36*
X679058Y52939D02*
X679058Y52939D01*
X679113Y53290D01*
X679713Y55137D01*
X680595Y56868D01*
X681737Y58439D01*
X683111Y59813D01*
X684682Y60955D01*
X686413Y61837D01*
X688260Y62437D01*
X688611Y62492D01*
X688611Y52939D01*
X679058Y52939D01*
G37*
%LPD*%
%LPC*%
G36*
X568689Y47861D02*
X568689Y47861D01*
X578242Y47861D01*
X578187Y47510D01*
X577587Y45663D01*
X576705Y43932D01*
X575563Y42361D01*
X574189Y40987D01*
X572618Y39845D01*
X570887Y38963D01*
X569040Y38363D01*
X568689Y38308D01*
X568689Y47861D01*
G37*
%LPD*%
%LPC*%
G36*
X563260Y38363D02*
X563260Y38363D01*
X561413Y38963D01*
X559682Y39845D01*
X558111Y40987D01*
X556737Y42361D01*
X555595Y43932D01*
X554713Y45663D01*
X554113Y47510D01*
X554058Y47861D01*
X563611Y47861D01*
X563611Y38308D01*
X563260Y38363D01*
G37*
%LPD*%
%LPC*%
G36*
X688260Y38363D02*
X688260Y38363D01*
X686413Y38963D01*
X684682Y39845D01*
X683111Y40987D01*
X681737Y42361D01*
X680595Y43932D01*
X679713Y45663D01*
X679113Y47510D01*
X679058Y47861D01*
X688611Y47861D01*
X688611Y38308D01*
X688260Y38363D01*
G37*
%LPD*%
%LPC*%
G36*
X192960Y38363D02*
X192960Y38363D01*
X191113Y38963D01*
X189382Y39845D01*
X187811Y40987D01*
X186437Y42361D01*
X185295Y43932D01*
X184413Y45663D01*
X183813Y47510D01*
X183758Y47861D01*
X193311Y47861D01*
X193311Y38308D01*
X192960Y38363D01*
G37*
%LPD*%
%LPC*%
G36*
X637299Y211699D02*
X637299Y211699D01*
X637299Y218099D01*
X637620Y218036D01*
X639254Y217359D01*
X640725Y216376D01*
X641976Y215125D01*
X642959Y213654D01*
X643636Y212020D01*
X643699Y211699D01*
X637299Y211699D01*
G37*
%LPD*%
%LPC*%
G36*
X637299Y207101D02*
X637299Y207101D01*
X643699Y207101D01*
X643636Y206780D01*
X642959Y205146D01*
X641976Y203675D01*
X640725Y202424D01*
X639254Y201441D01*
X637620Y200764D01*
X637299Y200701D01*
X637299Y207101D01*
G37*
%LPD*%
%LPC*%
G36*
X626301Y211699D02*
X626301Y211699D01*
X626364Y212020D01*
X627041Y213654D01*
X628024Y215125D01*
X629275Y216376D01*
X630746Y217359D01*
X632380Y218036D01*
X632701Y218099D01*
X632701Y211699D01*
X626301Y211699D01*
G37*
%LPD*%
%LPC*%
G36*
X632380Y200764D02*
X632380Y200764D01*
X630746Y201441D01*
X629275Y202424D01*
X628024Y203675D01*
X627041Y205146D01*
X626364Y206780D01*
X626301Y207101D01*
X632701Y207101D01*
X632701Y200701D01*
X632380Y200764D01*
G37*
%LPD*%
%LPC*%
G36*
X239122Y424122D02*
X239122Y424122D01*
X239122Y430393D01*
X239456Y430327D01*
X241051Y429666D01*
X242487Y428707D01*
X243707Y427487D01*
X244666Y426051D01*
X245327Y424456D01*
X245393Y424122D01*
X239122Y424122D01*
G37*
%LPD*%
%LPC*%
G36*
X340722Y170122D02*
X340722Y170122D01*
X340722Y176393D01*
X341056Y176327D01*
X342651Y175666D01*
X344087Y174707D01*
X345307Y173487D01*
X346266Y172051D01*
X346927Y170456D01*
X346993Y170122D01*
X340722Y170122D01*
G37*
%LPD*%
%LPC*%
G36*
X264522Y170122D02*
X264522Y170122D01*
X264522Y176393D01*
X264856Y176327D01*
X266451Y175666D01*
X267887Y174707D01*
X269107Y173487D01*
X270066Y172051D01*
X270727Y170456D01*
X270793Y170122D01*
X264522Y170122D01*
G37*
%LPD*%
%LPC*%
G36*
X264522Y424122D02*
X264522Y424122D01*
X264522Y430393D01*
X264856Y430327D01*
X266451Y429666D01*
X267887Y428707D01*
X269107Y427487D01*
X270066Y426051D01*
X270727Y424456D01*
X270793Y424122D01*
X264522Y424122D01*
G37*
%LPD*%
%LPC*%
G36*
X264522Y398722D02*
X264522Y398722D01*
X264522Y404993D01*
X264856Y404927D01*
X266451Y404266D01*
X267887Y403307D01*
X269107Y402087D01*
X270066Y400651D01*
X270727Y399056D01*
X270793Y398722D01*
X264522Y398722D01*
G37*
%LPD*%
%LPC*%
G36*
X340722Y398722D02*
X340722Y398722D01*
X340722Y404993D01*
X341056Y404927D01*
X342651Y404266D01*
X344087Y403307D01*
X345307Y402087D01*
X346266Y400651D01*
X346927Y399056D01*
X346993Y398722D01*
X340722Y398722D01*
G37*
%LPD*%
%LPC*%
G36*
X253807Y398722D02*
X253807Y398722D01*
X253873Y399056D01*
X254534Y400651D01*
X255493Y402087D01*
X256713Y403307D01*
X258149Y404266D01*
X259744Y404927D01*
X260078Y404993D01*
X260078Y398722D01*
X253807Y398722D01*
G37*
%LPD*%
%LPC*%
G36*
X340722Y165678D02*
X340722Y165678D01*
X346993Y165678D01*
X346927Y165344D01*
X346266Y163749D01*
X345307Y162313D01*
X344087Y161093D01*
X342651Y160134D01*
X341056Y159473D01*
X340722Y159407D01*
X340722Y165678D01*
G37*
%LPD*%
%LPC*%
G36*
X239122Y419678D02*
X239122Y419678D01*
X245393Y419678D01*
X245327Y419344D01*
X244666Y417749D01*
X243707Y416313D01*
X242487Y415093D01*
X241051Y414134D01*
X239456Y413473D01*
X239122Y413407D01*
X239122Y419678D01*
G37*
%LPD*%
%LPC*%
G36*
X264522Y165678D02*
X264522Y165678D01*
X270793Y165678D01*
X270727Y165344D01*
X270066Y163749D01*
X269107Y162313D01*
X267887Y161093D01*
X266451Y160134D01*
X264856Y159473D01*
X264522Y159407D01*
X264522Y165678D01*
G37*
%LPD*%
%LPC*%
G36*
X264522Y419678D02*
X264522Y419678D01*
X270793Y419678D01*
X270727Y419344D01*
X270066Y417749D01*
X269107Y416313D01*
X267887Y415093D01*
X266451Y414134D01*
X264856Y413473D01*
X264522Y413407D01*
X264522Y419678D01*
G37*
%LPD*%
%LPC*%
G36*
X330007Y398722D02*
X330007Y398722D01*
X330073Y399056D01*
X330734Y400651D01*
X331693Y402087D01*
X332913Y403307D01*
X334349Y404266D01*
X335944Y404927D01*
X336278Y404993D01*
X336278Y398722D01*
X330007Y398722D01*
G37*
%LPD*%
%LPC*%
G36*
X340722Y394278D02*
X340722Y394278D01*
X346993Y394278D01*
X346927Y393944D01*
X346266Y392349D01*
X345307Y390913D01*
X344087Y389693D01*
X342651Y388734D01*
X341056Y388073D01*
X340722Y388007D01*
X340722Y394278D01*
G37*
%LPD*%
%LPC*%
G36*
X253807Y424122D02*
X253807Y424122D01*
X253873Y424456D01*
X254534Y426051D01*
X255493Y427487D01*
X256713Y428707D01*
X258149Y429666D01*
X259744Y430327D01*
X260078Y430393D01*
X260078Y424122D01*
X253807Y424122D01*
G37*
%LPD*%
%LPC*%
G36*
X330007Y170122D02*
X330007Y170122D01*
X330073Y170456D01*
X330734Y172051D01*
X331693Y173487D01*
X332913Y174707D01*
X334349Y175666D01*
X335944Y176327D01*
X336278Y176393D01*
X336278Y170122D01*
X330007Y170122D01*
G37*
%LPD*%
%LPC*%
G36*
X264522Y394278D02*
X264522Y394278D01*
X270793Y394278D01*
X270727Y393944D01*
X270066Y392349D01*
X269107Y390913D01*
X267887Y389693D01*
X266451Y388734D01*
X264856Y388073D01*
X264522Y388007D01*
X264522Y394278D01*
G37*
%LPD*%
%LPC*%
G36*
X253807Y170122D02*
X253807Y170122D01*
X253873Y170456D01*
X254534Y172051D01*
X255493Y173487D01*
X256713Y174707D01*
X258149Y175666D01*
X259744Y176327D01*
X260078Y176393D01*
X260078Y170122D01*
X253807Y170122D01*
G37*
%LPD*%
%LPC*%
G36*
X228407Y424122D02*
X228407Y424122D01*
X228473Y424456D01*
X229134Y426051D01*
X230093Y427487D01*
X231313Y428707D01*
X232749Y429666D01*
X234344Y430327D01*
X234678Y430393D01*
X234678Y424122D01*
X228407Y424122D01*
G37*
%LPD*%
%LPC*%
G36*
X259744Y388073D02*
X259744Y388073D01*
X258149Y388734D01*
X256713Y389693D01*
X255493Y390913D01*
X254534Y392349D01*
X253873Y393944D01*
X253807Y394278D01*
X260078Y394278D01*
X260078Y388007D01*
X259744Y388073D01*
G37*
%LPD*%
%LPC*%
G36*
X259744Y159473D02*
X259744Y159473D01*
X258149Y160134D01*
X256713Y161093D01*
X255493Y162313D01*
X254534Y163749D01*
X253873Y165344D01*
X253807Y165678D01*
X260078Y165678D01*
X260078Y159407D01*
X259744Y159473D01*
G37*
%LPD*%
%LPC*%
G36*
X335944Y159473D02*
X335944Y159473D01*
X334349Y160134D01*
X332913Y161093D01*
X331693Y162313D01*
X330734Y163749D01*
X330073Y165344D01*
X330007Y165678D01*
X336278Y165678D01*
X336278Y159407D01*
X335944Y159473D01*
G37*
%LPD*%
%LPC*%
G36*
X335944Y388073D02*
X335944Y388073D01*
X334349Y388734D01*
X332913Y389693D01*
X331693Y390913D01*
X330734Y392349D01*
X330073Y393944D01*
X330007Y394278D01*
X336278Y394278D01*
X336278Y388007D01*
X335944Y388073D01*
G37*
%LPD*%
%LPC*%
G36*
X234344Y413473D02*
X234344Y413473D01*
X232749Y414134D01*
X231313Y415093D01*
X230093Y416313D01*
X229134Y417749D01*
X228473Y419344D01*
X228407Y419678D01*
X234678Y419678D01*
X234678Y413407D01*
X234344Y413473D01*
G37*
%LPD*%
%LPC*%
G36*
X259744Y413473D02*
X259744Y413473D01*
X258149Y414134D01*
X256713Y415093D01*
X255493Y416313D01*
X254534Y417749D01*
X253873Y419344D01*
X253807Y419678D01*
X260078Y419678D01*
X260078Y413407D01*
X259744Y413473D01*
G37*
%LPD*%
%LPC*%
G36*
X566149Y50399D02*
X566149Y50399D01*
X566149Y50401D01*
X566151Y50401D01*
X566151Y50399D01*
X566149Y50399D01*
G37*
%LPD*%
%LPC*%
G36*
X195849Y50399D02*
X195849Y50399D01*
X195849Y50401D01*
X195851Y50401D01*
X195851Y50399D01*
X195849Y50399D01*
G37*
%LPD*%
D10*
X84500Y421900D03*
X84500Y396500D03*
X109900Y421900D03*
X109900Y396500D03*
X135300Y421900D03*
X135300Y396500D03*
X160700Y421900D03*
X160700Y396500D03*
X186100Y421900D03*
X186100Y396500D03*
X211500Y421900D03*
X211500Y396500D03*
X236900Y421900D03*
X236900Y396500D03*
X262300Y421900D03*
X262300Y396500D03*
X287700Y421900D03*
X287700Y396500D03*
X313100Y421900D03*
X313100Y396500D03*
X338500Y421900D03*
X338500Y396500D03*
X363900Y421900D03*
X363900Y396500D03*
X389300Y421900D03*
X389300Y396500D03*
X414700Y421900D03*
X414700Y396500D03*
X440100Y421900D03*
X440100Y396500D03*
X465500Y421900D03*
X465500Y396500D03*
X490900Y421900D03*
X490900Y396500D03*
X516300Y421900D03*
X516300Y396500D03*
X84500Y167900D03*
X84500Y142500D03*
X109900Y167900D03*
X109900Y142500D03*
X135300Y167900D03*
X135300Y142500D03*
X160700Y167900D03*
X160700Y142500D03*
X186100Y167900D03*
X186100Y142500D03*
X211500Y167900D03*
X211500Y142500D03*
X236900Y167900D03*
X236900Y142500D03*
X262300Y167900D03*
X262300Y142500D03*
X287700Y167900D03*
X287700Y142500D03*
X313100Y167900D03*
X313100Y142500D03*
X338500Y167900D03*
X338500Y142500D03*
X363900Y167900D03*
X363900Y142500D03*
X389300Y167900D03*
X389300Y142500D03*
X414700Y167900D03*
X414700Y142500D03*
X440100Y167900D03*
X440100Y142500D03*
X465500Y167900D03*
X465500Y142500D03*
X490900Y167900D03*
X490900Y142500D03*
X516300Y167900D03*
X516300Y142500D03*
D11*
X482200Y0D03*
X457200Y0D03*
X432200Y0D03*
D12*
X70850Y400D03*
X70850Y50400D03*
X195850Y50400D03*
X195850Y400D03*
D13*
X38100Y469900D03*
X38100Y38100D03*
X723900Y38100D03*
X723900Y469900D03*
D14*
X635000Y279400D03*
X635000Y254400D03*
X635000Y234400D03*
X635000Y209400D03*
D15*
X662100Y310100D03*
X662100Y178700D03*
D11*
X6350Y114300D03*
X6350Y139700D03*
X6350Y165100D03*
X6350Y190500D03*
X6350Y215900D03*
X6350Y241300D03*
X6350Y266700D03*
X6350Y292100D03*
X6350Y317500D03*
X6350Y342900D03*
X6350Y368300D03*
X6350Y393700D03*
X6350Y419100D03*
X6350Y444500D03*
X6350Y469900D03*
X6350Y495300D03*
X6350Y520700D03*
X6350Y546100D03*
X6350Y571500D03*
X6350Y596900D03*
X768350Y114300D03*
X768350Y139700D03*
X768350Y165100D03*
X768350Y190500D03*
X768350Y215900D03*
X768350Y241300D03*
X768350Y266700D03*
X768350Y292100D03*
X768350Y317500D03*
X768350Y342900D03*
X768350Y368300D03*
X768350Y393700D03*
X768350Y419100D03*
X768350Y444500D03*
X768350Y469900D03*
X768350Y495300D03*
X768350Y520700D03*
X768350Y546100D03*
X768350Y571500D03*
X768350Y596900D03*
D16*
X768350Y69850D03*
X768350Y641350D03*
X6350Y69850D03*
X6350Y641350D03*
D11*
X329800Y0D03*
X304800Y0D03*
X279800Y0D03*
D12*
X566150Y400D03*
X566150Y50400D03*
X691150Y50400D03*
X691150Y400D03*
D17*
X690880Y279400D03*
X690880Y406400D03*
X693420Y111760D03*
X721360Y111760D03*
X609600Y469900D03*
X609600Y457200D03*
X609600Y444500D03*
X660400Y444500D03*
X660400Y469900D03*
X609600Y368300D03*
X660400Y368300D03*
X660400Y355600D03*
X660400Y342900D03*
X609600Y355600D03*
X609600Y342900D03*
X228600Y55880D03*
X551180Y256540D03*
X551180Y246380D03*
M02*
