G04 EAGLE Gerber RS-274X export*
G75*
%MOMM*%
%FSLAX34Y34*%
%LPD*%
%INBottom Copper*%
%IPPOS*%
%AMOC8*
5,1,8,0,0,1.08239X$1,22.5*%
G01*
%ADD10R,1.524000X1.524000*%
%ADD11P,1.649562X8X22.500000*%
%ADD12C,1.400000*%
%ADD13C,1.960000*%
%ADD14C,4.445000*%
%ADD15C,1.016000*%
%ADD16R,1.288000X1.288000*%
%ADD17C,1.288000*%
%ADD18C,3.220000*%
%ADD19R,2.000000X4.100000*%
%ADD20R,1.676400X1.676400*%
%ADD21C,1.676400*%
%ADD22C,4.016000*%
%ADD23C,0.609600*%
%ADD24C,0.508000*%
%ADD25C,0.254000*%

G36*
X647818Y265446D02*
X647818Y265446D01*
X647937Y265453D01*
X647975Y265466D01*
X648016Y265471D01*
X648126Y265514D01*
X648239Y265551D01*
X648274Y265573D01*
X648311Y265588D01*
X648407Y265658D01*
X648508Y265721D01*
X648536Y265751D01*
X648569Y265774D01*
X648645Y265866D01*
X648726Y265953D01*
X648746Y265988D01*
X648771Y266019D01*
X648822Y266127D01*
X648880Y266231D01*
X648890Y266271D01*
X648907Y266307D01*
X648929Y266424D01*
X648959Y266539D01*
X648963Y266600D01*
X648967Y266620D01*
X648965Y266640D01*
X648969Y266700D01*
X648969Y296343D01*
X648957Y296441D01*
X648954Y296540D01*
X648937Y296599D01*
X648929Y296659D01*
X648893Y296751D01*
X648865Y296846D01*
X648835Y296898D01*
X648812Y296954D01*
X648754Y297034D01*
X648704Y297120D01*
X648638Y297195D01*
X648626Y297212D01*
X648616Y297219D01*
X648598Y297241D01*
X646297Y299541D01*
X643459Y306392D01*
X643459Y313808D01*
X646297Y320659D01*
X648598Y322959D01*
X648658Y323038D01*
X648726Y323110D01*
X648755Y323163D01*
X648792Y323211D01*
X648832Y323302D01*
X648880Y323388D01*
X648895Y323447D01*
X648919Y323503D01*
X648934Y323601D01*
X648959Y323696D01*
X648965Y323796D01*
X648969Y323817D01*
X648967Y323829D01*
X648969Y323857D01*
X648969Y328931D01*
X673100Y328931D01*
X673218Y328946D01*
X673337Y328953D01*
X673375Y328966D01*
X673416Y328971D01*
X673526Y329014D01*
X673639Y329051D01*
X673674Y329073D01*
X673711Y329088D01*
X673807Y329158D01*
X673908Y329221D01*
X673936Y329251D01*
X673969Y329274D01*
X674045Y329366D01*
X674126Y329453D01*
X674146Y329488D01*
X674171Y329519D01*
X674222Y329627D01*
X674280Y329731D01*
X674290Y329771D01*
X674307Y329807D01*
X674329Y329924D01*
X674359Y330039D01*
X674363Y330100D01*
X674367Y330120D01*
X674365Y330140D01*
X674369Y330200D01*
X674369Y381000D01*
X674354Y381118D01*
X674347Y381237D01*
X674334Y381275D01*
X674329Y381316D01*
X674286Y381426D01*
X674249Y381539D01*
X674227Y381574D01*
X674212Y381611D01*
X674143Y381707D01*
X674079Y381808D01*
X674049Y381836D01*
X674026Y381869D01*
X673934Y381945D01*
X673847Y382026D01*
X673812Y382046D01*
X673781Y382071D01*
X673673Y382122D01*
X673569Y382180D01*
X673529Y382190D01*
X673493Y382207D01*
X673376Y382229D01*
X673261Y382259D01*
X673201Y382263D01*
X673181Y382267D01*
X673160Y382265D01*
X673100Y382269D01*
X648810Y382269D01*
X648692Y382254D01*
X648573Y382247D01*
X648535Y382234D01*
X648494Y382229D01*
X648384Y382186D01*
X648271Y382149D01*
X648236Y382127D01*
X648199Y382112D01*
X648103Y382043D01*
X648002Y381979D01*
X647974Y381949D01*
X647941Y381926D01*
X647865Y381834D01*
X647784Y381747D01*
X647764Y381712D01*
X647739Y381681D01*
X647688Y381573D01*
X647630Y381469D01*
X647620Y381429D01*
X647603Y381393D01*
X647581Y381276D01*
X647551Y381161D01*
X647547Y381101D01*
X647543Y381081D01*
X647545Y381060D01*
X647541Y381000D01*
X647541Y365439D01*
X636270Y365439D01*
X636152Y365424D01*
X636033Y365417D01*
X635995Y365404D01*
X635955Y365399D01*
X635844Y365355D01*
X635731Y365319D01*
X635696Y365297D01*
X635659Y365282D01*
X635563Y365212D01*
X635462Y365149D01*
X635434Y365119D01*
X635402Y365095D01*
X635326Y365004D01*
X635244Y364917D01*
X635225Y364882D01*
X635199Y364850D01*
X635148Y364743D01*
X635091Y364639D01*
X635080Y364599D01*
X635063Y364563D01*
X635041Y364446D01*
X635011Y364331D01*
X635007Y364270D01*
X635003Y364250D01*
X635005Y364230D01*
X635001Y364170D01*
X635001Y362899D01*
X634999Y362899D01*
X634999Y364170D01*
X634984Y364288D01*
X634977Y364407D01*
X634964Y364445D01*
X634959Y364485D01*
X634915Y364596D01*
X634879Y364709D01*
X634857Y364744D01*
X634842Y364781D01*
X634772Y364877D01*
X634709Y364978D01*
X634679Y365006D01*
X634655Y365038D01*
X634564Y365114D01*
X634477Y365196D01*
X634442Y365215D01*
X634410Y365241D01*
X634303Y365292D01*
X634199Y365349D01*
X634159Y365360D01*
X634123Y365377D01*
X634006Y365399D01*
X633891Y365429D01*
X633830Y365433D01*
X633810Y365437D01*
X633790Y365435D01*
X633730Y365439D01*
X622459Y365439D01*
X622459Y381000D01*
X622444Y381118D01*
X622437Y381237D01*
X622424Y381275D01*
X622419Y381316D01*
X622376Y381426D01*
X622339Y381539D01*
X622317Y381574D01*
X622302Y381611D01*
X622233Y381707D01*
X622169Y381808D01*
X622139Y381836D01*
X622116Y381869D01*
X622024Y381945D01*
X621937Y382026D01*
X621902Y382046D01*
X621871Y382071D01*
X621763Y382122D01*
X621659Y382180D01*
X621619Y382190D01*
X621583Y382207D01*
X621466Y382229D01*
X621351Y382259D01*
X621291Y382263D01*
X621271Y382267D01*
X621250Y382265D01*
X621190Y382269D01*
X596900Y382269D01*
X596782Y382254D01*
X596663Y382247D01*
X596625Y382234D01*
X596584Y382229D01*
X596474Y382186D01*
X596361Y382149D01*
X596326Y382127D01*
X596289Y382112D01*
X596193Y382043D01*
X596092Y381979D01*
X596064Y381949D01*
X596031Y381926D01*
X595956Y381834D01*
X595874Y381747D01*
X595854Y381712D01*
X595829Y381681D01*
X595778Y381573D01*
X595720Y381469D01*
X595710Y381429D01*
X595693Y381393D01*
X595671Y381276D01*
X595641Y381161D01*
X595637Y381101D01*
X595633Y381081D01*
X595635Y381060D01*
X595631Y381000D01*
X595631Y266700D01*
X595646Y266582D01*
X595653Y266463D01*
X595666Y266425D01*
X595671Y266384D01*
X595714Y266274D01*
X595751Y266161D01*
X595773Y266126D01*
X595788Y266089D01*
X595858Y265993D01*
X595921Y265892D01*
X595951Y265864D01*
X595974Y265831D01*
X596066Y265756D01*
X596153Y265674D01*
X596188Y265654D01*
X596219Y265629D01*
X596327Y265578D01*
X596431Y265520D01*
X596471Y265510D01*
X596507Y265493D01*
X596624Y265471D01*
X596739Y265441D01*
X596800Y265437D01*
X596820Y265433D01*
X596840Y265435D01*
X596900Y265431D01*
X647700Y265431D01*
X647818Y265446D01*
G37*
G36*
X621308Y430546D02*
X621308Y430546D01*
X621427Y430553D01*
X621465Y430566D01*
X621506Y430571D01*
X621616Y430614D01*
X621729Y430651D01*
X621764Y430673D01*
X621801Y430688D01*
X621897Y430758D01*
X621998Y430821D01*
X622026Y430851D01*
X622059Y430874D01*
X622135Y430966D01*
X622216Y431053D01*
X622236Y431088D01*
X622261Y431119D01*
X622312Y431227D01*
X622370Y431331D01*
X622380Y431371D01*
X622397Y431407D01*
X622419Y431524D01*
X622449Y431639D01*
X622453Y431700D01*
X622457Y431720D01*
X622455Y431740D01*
X622459Y431800D01*
X622459Y447361D01*
X633730Y447361D01*
X633848Y447376D01*
X633967Y447383D01*
X634005Y447396D01*
X634045Y447401D01*
X634156Y447444D01*
X634269Y447481D01*
X634304Y447503D01*
X634341Y447518D01*
X634437Y447588D01*
X634538Y447651D01*
X634566Y447681D01*
X634598Y447705D01*
X634674Y447796D01*
X634756Y447883D01*
X634775Y447918D01*
X634801Y447949D01*
X634852Y448057D01*
X634909Y448161D01*
X634920Y448201D01*
X634937Y448237D01*
X634959Y448354D01*
X634989Y448469D01*
X634993Y448530D01*
X634997Y448550D01*
X634995Y448570D01*
X634999Y448630D01*
X634999Y449901D01*
X635001Y449901D01*
X635001Y448630D01*
X635016Y448512D01*
X635023Y448393D01*
X635036Y448355D01*
X635041Y448315D01*
X635085Y448204D01*
X635121Y448091D01*
X635143Y448056D01*
X635158Y448019D01*
X635228Y447923D01*
X635291Y447822D01*
X635321Y447794D01*
X635345Y447761D01*
X635436Y447686D01*
X635523Y447604D01*
X635558Y447584D01*
X635590Y447559D01*
X635697Y447508D01*
X635801Y447450D01*
X635841Y447440D01*
X635877Y447423D01*
X635994Y447401D01*
X636109Y447371D01*
X636170Y447367D01*
X636190Y447363D01*
X636210Y447365D01*
X636270Y447361D01*
X647541Y447361D01*
X647541Y431800D01*
X647556Y431682D01*
X647563Y431563D01*
X647576Y431525D01*
X647581Y431484D01*
X647624Y431374D01*
X647661Y431261D01*
X647683Y431226D01*
X647698Y431189D01*
X647767Y431093D01*
X647831Y430992D01*
X647861Y430964D01*
X647884Y430931D01*
X647976Y430856D01*
X648063Y430774D01*
X648098Y430754D01*
X648129Y430729D01*
X648237Y430678D01*
X648341Y430620D01*
X648381Y430610D01*
X648417Y430593D01*
X648534Y430571D01*
X648649Y430541D01*
X648709Y430537D01*
X648729Y430533D01*
X648750Y430535D01*
X648810Y430531D01*
X673100Y430531D01*
X673218Y430546D01*
X673337Y430553D01*
X673375Y430566D01*
X673416Y430571D01*
X673526Y430614D01*
X673639Y430651D01*
X673674Y430673D01*
X673711Y430688D01*
X673807Y430758D01*
X673908Y430821D01*
X673936Y430851D01*
X673969Y430874D01*
X674045Y430966D01*
X674126Y431053D01*
X674146Y431088D01*
X674171Y431119D01*
X674222Y431227D01*
X674280Y431331D01*
X674290Y431371D01*
X674307Y431407D01*
X674329Y431524D01*
X674359Y431639D01*
X674363Y431700D01*
X674367Y431720D01*
X674365Y431740D01*
X674369Y431800D01*
X674369Y444822D01*
X674355Y444934D01*
X674349Y445046D01*
X674347Y445052D01*
X674347Y445059D01*
X674334Y445098D01*
X674329Y445138D01*
X674288Y445243D01*
X674255Y445350D01*
X674251Y445355D01*
X674249Y445362D01*
X674227Y445396D01*
X674212Y445434D01*
X674146Y445525D01*
X674087Y445620D01*
X674082Y445625D01*
X674079Y445630D01*
X674049Y445658D01*
X674026Y445691D01*
X673939Y445763D01*
X673858Y445840D01*
X673852Y445844D01*
X673847Y445848D01*
X673812Y445868D01*
X673781Y445894D01*
X673679Y445942D01*
X673581Y445997D01*
X673572Y446000D01*
X673569Y446002D01*
X673558Y446005D01*
X673512Y446020D01*
X673493Y446029D01*
X673475Y446033D01*
X673428Y446048D01*
X667568Y447619D01*
X663519Y451668D01*
X662036Y457200D01*
X663519Y462732D01*
X667568Y466781D01*
X673428Y468352D01*
X673532Y468394D01*
X673639Y468429D01*
X673674Y468450D01*
X673711Y468465D01*
X673717Y468469D01*
X673723Y468472D01*
X673813Y468539D01*
X673908Y468599D01*
X673936Y468628D01*
X673969Y468652D01*
X673973Y468657D01*
X673978Y468661D01*
X674049Y468748D01*
X674126Y468831D01*
X674146Y468866D01*
X674171Y468897D01*
X674174Y468903D01*
X674178Y468908D01*
X674225Y469010D01*
X674280Y469109D01*
X674290Y469148D01*
X674307Y469185D01*
X674308Y469192D01*
X674311Y469198D01*
X674331Y469308D01*
X674359Y469417D01*
X674363Y469477D01*
X674367Y469497D01*
X674366Y469504D01*
X674367Y469511D01*
X674366Y469529D01*
X674369Y469578D01*
X674369Y482600D01*
X674354Y482718D01*
X674347Y482837D01*
X674334Y482875D01*
X674329Y482916D01*
X674286Y483026D01*
X674249Y483139D01*
X674227Y483174D01*
X674212Y483211D01*
X674143Y483307D01*
X674079Y483408D01*
X674049Y483436D01*
X674026Y483469D01*
X673934Y483545D01*
X673847Y483626D01*
X673812Y483646D01*
X673781Y483671D01*
X673673Y483722D01*
X673569Y483780D01*
X673529Y483790D01*
X673493Y483807D01*
X673376Y483829D01*
X673261Y483859D01*
X673201Y483863D01*
X673181Y483867D01*
X673160Y483865D01*
X673100Y483869D01*
X596900Y483869D01*
X596782Y483854D01*
X596663Y483847D01*
X596625Y483834D01*
X596584Y483829D01*
X596474Y483786D01*
X596361Y483749D01*
X596326Y483727D01*
X596289Y483712D01*
X596193Y483643D01*
X596092Y483579D01*
X596064Y483549D01*
X596031Y483526D01*
X595956Y483434D01*
X595874Y483347D01*
X595854Y483312D01*
X595829Y483281D01*
X595778Y483173D01*
X595720Y483069D01*
X595710Y483029D01*
X595693Y482993D01*
X595671Y482876D01*
X595641Y482761D01*
X595637Y482701D01*
X595633Y482681D01*
X595635Y482660D01*
X595634Y482656D01*
X595633Y482651D01*
X595634Y482645D01*
X595631Y482600D01*
X595631Y431800D01*
X595646Y431682D01*
X595653Y431563D01*
X595666Y431525D01*
X595671Y431484D01*
X595714Y431374D01*
X595751Y431261D01*
X595773Y431226D01*
X595788Y431189D01*
X595858Y431093D01*
X595921Y430992D01*
X595951Y430964D01*
X595974Y430931D01*
X596066Y430856D01*
X596153Y430774D01*
X596188Y430754D01*
X596219Y430729D01*
X596327Y430678D01*
X596431Y430620D01*
X596471Y430610D01*
X596507Y430593D01*
X596624Y430571D01*
X596739Y430541D01*
X596800Y430537D01*
X596820Y430533D01*
X596840Y430535D01*
X596900Y430531D01*
X621190Y430531D01*
X621308Y430546D01*
G37*
%LPC*%
G36*
X637539Y452439D02*
X637539Y452439D01*
X637539Y472941D01*
X645334Y472941D01*
X645981Y472768D01*
X646560Y472433D01*
X647033Y471960D01*
X647368Y471381D01*
X647541Y470734D01*
X647541Y452439D01*
X637539Y452439D01*
G37*
%LPD*%
%LPC*%
G36*
X637539Y339859D02*
X637539Y339859D01*
X637539Y360361D01*
X647541Y360361D01*
X647541Y342066D01*
X647368Y341419D01*
X647033Y340840D01*
X646560Y340367D01*
X645981Y340032D01*
X645334Y339859D01*
X637539Y339859D01*
G37*
%LPD*%
%LPC*%
G36*
X622459Y452439D02*
X622459Y452439D01*
X622459Y470734D01*
X622632Y471381D01*
X622967Y471960D01*
X623440Y472433D01*
X624019Y472768D01*
X624666Y472941D01*
X632461Y472941D01*
X632461Y452439D01*
X622459Y452439D01*
G37*
%LPD*%
%LPC*%
G36*
X624666Y339859D02*
X624666Y339859D01*
X624019Y340032D01*
X623440Y340367D01*
X622967Y340840D01*
X622632Y341419D01*
X622459Y342066D01*
X622459Y360361D01*
X632461Y360361D01*
X632461Y339859D01*
X624666Y339859D01*
G37*
%LPD*%
%LPC*%
G36*
X637299Y281699D02*
X637299Y281699D01*
X637299Y288381D01*
X641774Y288381D01*
X642421Y288208D01*
X643000Y287873D01*
X643473Y287400D01*
X643808Y286821D01*
X643981Y286174D01*
X643981Y281699D01*
X637299Y281699D01*
G37*
%LPD*%
%LPC*%
G36*
X626019Y281699D02*
X626019Y281699D01*
X626019Y286174D01*
X626192Y286821D01*
X626527Y287400D01*
X627000Y287873D01*
X627579Y288208D01*
X628226Y288381D01*
X632701Y288381D01*
X632701Y281699D01*
X626019Y281699D01*
G37*
%LPD*%
%LPC*%
G36*
X637299Y270419D02*
X637299Y270419D01*
X637299Y277101D01*
X643981Y277101D01*
X643981Y272626D01*
X643808Y271979D01*
X643473Y271400D01*
X643000Y270927D01*
X642421Y270592D01*
X641774Y270419D01*
X637299Y270419D01*
G37*
%LPD*%
%LPC*%
G36*
X628226Y270419D02*
X628226Y270419D01*
X627579Y270592D01*
X627000Y270927D01*
X626527Y271400D01*
X626192Y271979D01*
X626019Y272626D01*
X626019Y277101D01*
X632701Y277101D01*
X632701Y270419D01*
X628226Y270419D01*
G37*
%LPD*%
D10*
X84500Y421900D03*
D11*
X84500Y396500D03*
X109900Y421900D03*
X109900Y396500D03*
X135300Y421900D03*
X135300Y396500D03*
X160700Y421900D03*
X160700Y396500D03*
X186100Y421900D03*
X186100Y396500D03*
X211500Y421900D03*
X211500Y396500D03*
X236900Y421900D03*
X236900Y396500D03*
X262300Y421900D03*
X262300Y396500D03*
X287700Y421900D03*
X287700Y396500D03*
X313100Y421900D03*
X313100Y396500D03*
X338500Y421900D03*
X338500Y396500D03*
X363900Y421900D03*
X363900Y396500D03*
X389300Y421900D03*
X389300Y396500D03*
X414700Y421900D03*
X414700Y396500D03*
X440100Y421900D03*
X440100Y396500D03*
X465500Y421900D03*
X465500Y396500D03*
X490900Y421900D03*
X490900Y396500D03*
X516300Y421900D03*
X516300Y396500D03*
D10*
X84500Y167900D03*
D11*
X84500Y142500D03*
X109900Y167900D03*
X109900Y142500D03*
X135300Y167900D03*
X135300Y142500D03*
X160700Y167900D03*
X160700Y142500D03*
X186100Y167900D03*
X186100Y142500D03*
X211500Y167900D03*
X211500Y142500D03*
X236900Y167900D03*
X236900Y142500D03*
X262300Y167900D03*
X262300Y142500D03*
X287700Y167900D03*
X287700Y142500D03*
X313100Y167900D03*
X313100Y142500D03*
X338500Y167900D03*
X338500Y142500D03*
X363900Y167900D03*
X363900Y142500D03*
X389300Y167900D03*
X389300Y142500D03*
X414700Y167900D03*
X414700Y142500D03*
X440100Y167900D03*
X440100Y142500D03*
X465500Y167900D03*
X465500Y142500D03*
X490900Y167900D03*
X490900Y142500D03*
X516300Y167900D03*
X516300Y142500D03*
D12*
X482200Y0D03*
X457200Y0D03*
X432200Y0D03*
D13*
X70850Y400D03*
X70850Y50400D03*
X195850Y50400D03*
X195850Y400D03*
D14*
X38100Y469900D03*
X38100Y38100D03*
X723900Y38100D03*
X723900Y469900D03*
D15*
X88900Y444500D03*
X673100Y457200D03*
X673100Y50800D03*
D16*
X635000Y279400D03*
D17*
X635000Y254400D03*
X635000Y234400D03*
X635000Y209400D03*
D18*
X662100Y310100D03*
X662100Y178700D03*
D19*
X635000Y362900D03*
X635000Y449900D03*
D20*
X6350Y114300D03*
D21*
X6350Y139700D03*
X6350Y165100D03*
X6350Y190500D03*
X6350Y215900D03*
X6350Y241300D03*
X6350Y266700D03*
X6350Y292100D03*
X6350Y317500D03*
X6350Y342900D03*
X6350Y368300D03*
X6350Y393700D03*
X6350Y419100D03*
X6350Y444500D03*
X6350Y469900D03*
X6350Y495300D03*
X6350Y520700D03*
X6350Y546100D03*
X6350Y571500D03*
X6350Y596900D03*
D20*
X768350Y114300D03*
D21*
X768350Y139700D03*
X768350Y165100D03*
X768350Y190500D03*
X768350Y215900D03*
X768350Y241300D03*
X768350Y266700D03*
X768350Y292100D03*
X768350Y317500D03*
X768350Y342900D03*
X768350Y368300D03*
X768350Y393700D03*
X768350Y419100D03*
X768350Y444500D03*
X768350Y469900D03*
X768350Y495300D03*
X768350Y520700D03*
X768350Y546100D03*
X768350Y571500D03*
X768350Y596900D03*
D22*
X768350Y69850D03*
X768350Y641350D03*
X6350Y69850D03*
X6350Y641350D03*
D12*
X329800Y0D03*
X304800Y0D03*
X279800Y0D03*
D13*
X566150Y400D03*
X566150Y50400D03*
X691150Y50400D03*
X691150Y400D03*
D23*
X690880Y279400D03*
X690880Y406400D03*
X693420Y111760D03*
X721360Y111760D03*
X609600Y469900D03*
X609600Y457200D03*
X609600Y444500D03*
X660400Y444500D03*
X660400Y469900D03*
X609600Y368300D03*
X660400Y368300D03*
X660400Y355600D03*
X660400Y342900D03*
X609600Y355600D03*
X609600Y342900D03*
D24*
X148000Y409200D02*
X135300Y421900D01*
X148000Y409200D02*
X148000Y379050D01*
X236900Y290150D02*
X236900Y167900D01*
X236900Y290150D02*
X148000Y379050D01*
X135300Y421900D02*
X156630Y443230D01*
X351200Y409200D02*
X363900Y396500D01*
X351200Y409200D02*
X351200Y429850D01*
X337820Y443230D02*
X156630Y443230D01*
X337820Y443230D02*
X351200Y429850D01*
D23*
X228600Y55880D03*
D25*
X106680Y124460D02*
X96520Y134620D01*
X96520Y155880D02*
X84500Y167900D01*
X208280Y124460D02*
X276340Y56400D01*
X208280Y124460D02*
X106680Y124460D01*
X96520Y134620D02*
X96520Y155880D01*
X516300Y396500D02*
X698760Y396500D01*
X708660Y406400D01*
X197530Y433330D02*
X186100Y421900D01*
X225470Y424770D02*
X225470Y415114D01*
X231644Y408940D02*
X243840Y408940D01*
X248920Y403860D01*
X216910Y433330D02*
X197530Y433330D01*
X216910Y433330D02*
X225470Y424770D01*
X225470Y415114D02*
X231644Y408940D01*
X248920Y403860D02*
X248920Y345440D01*
X391160Y304800D01*
X548640Y254000D02*
X551180Y256540D01*
D23*
X551180Y256540D03*
D25*
X548640Y254000D02*
X391160Y304800D01*
X223520Y409880D02*
X211500Y421900D01*
X223520Y409880D02*
X223520Y363220D01*
X248920Y325120D01*
X548640Y248920D02*
X551180Y246380D01*
D23*
X551180Y246380D03*
D25*
X548640Y248920D02*
X248920Y325120D01*
M02*
