G04 EAGLE Gerber RS-274X export*
G75*
%MOMM*%
%FSLAX34Y34*%
%LPD*%
%INTop Copper*%
%IPPOS*%
%AMOC8*
5,1,8,0,0,1.08239X$1,22.5*%
G01*
%ADD10R,1.524000X1.524000*%
%ADD11P,1.649562X8X22.500000*%
%ADD12R,0.800000X0.800000*%
%ADD13C,1.400000*%
%ADD14C,1.960000*%
%ADD15R,1.031241X0.949959*%
%ADD16C,4.445000*%
%ADD17C,1.016000*%
%ADD18R,1.270000X1.143000*%
%ADD19R,1.288000X1.288000*%
%ADD20C,1.288000*%
%ADD21C,3.220000*%
%ADD22R,1.676400X1.676400*%
%ADD23C,1.676400*%
%ADD24C,4.016000*%
%ADD25R,0.949959X1.031241*%
%ADD26C,0.254000*%
%ADD27C,0.609600*%

G36*
X25400Y252731D02*
X25400Y252731D01*
X25518Y252746D01*
X25637Y252753D01*
X25675Y252766D01*
X25716Y252771D01*
X25826Y252814D01*
X25939Y252851D01*
X25974Y252873D01*
X26011Y252888D01*
X26107Y252958D01*
X26208Y253021D01*
X26236Y253051D01*
X26269Y253074D01*
X26345Y253166D01*
X26426Y253253D01*
X26446Y253288D01*
X26471Y253319D01*
X26522Y253427D01*
X26580Y253531D01*
X26590Y253571D01*
X26607Y253607D01*
X26629Y253724D01*
X26659Y253839D01*
X26663Y253900D01*
X26667Y253920D01*
X26665Y253940D01*
X26669Y254000D01*
X26669Y430531D01*
X73772Y430531D01*
X73870Y430543D01*
X73969Y430546D01*
X74027Y430563D01*
X74087Y430571D01*
X74179Y430607D01*
X74275Y430635D01*
X74327Y430665D01*
X74383Y430688D01*
X74463Y430746D01*
X74549Y430796D01*
X74624Y430862D01*
X74640Y430874D01*
X74648Y430884D01*
X74669Y430903D01*
X75828Y432061D01*
X76200Y432061D01*
X76318Y432076D01*
X76437Y432083D01*
X76475Y432096D01*
X76516Y432101D01*
X76626Y432144D01*
X76739Y432181D01*
X76774Y432203D01*
X76811Y432218D01*
X76907Y432287D01*
X77008Y432351D01*
X77036Y432381D01*
X77069Y432404D01*
X77145Y432496D01*
X77226Y432583D01*
X77246Y432618D01*
X77271Y432649D01*
X77322Y432757D01*
X77380Y432861D01*
X77390Y432901D01*
X77407Y432937D01*
X77429Y433054D01*
X77459Y433169D01*
X77463Y433229D01*
X77467Y433249D01*
X77465Y433270D01*
X77469Y433330D01*
X77469Y481331D01*
X684531Y481331D01*
X684531Y431800D01*
X684546Y431682D01*
X684553Y431563D01*
X684566Y431525D01*
X684571Y431484D01*
X684614Y431374D01*
X684651Y431261D01*
X684673Y431226D01*
X684688Y431189D01*
X684758Y431093D01*
X684821Y430992D01*
X684851Y430964D01*
X684874Y430931D01*
X684966Y430856D01*
X685053Y430774D01*
X685088Y430754D01*
X685119Y430729D01*
X685227Y430678D01*
X685331Y430620D01*
X685371Y430610D01*
X685407Y430593D01*
X685524Y430571D01*
X685639Y430541D01*
X685700Y430537D01*
X685720Y430533D01*
X685740Y430535D01*
X685800Y430531D01*
X735331Y430531D01*
X735331Y411480D01*
X735346Y411362D01*
X735353Y411243D01*
X735366Y411205D01*
X735371Y411164D01*
X735414Y411054D01*
X735451Y410941D01*
X735473Y410906D01*
X735488Y410869D01*
X735558Y410773D01*
X735621Y410672D01*
X735651Y410644D01*
X735674Y410611D01*
X735766Y410535D01*
X735853Y410454D01*
X735888Y410434D01*
X735919Y410409D01*
X736027Y410358D01*
X736131Y410300D01*
X736171Y410290D01*
X736207Y410273D01*
X736324Y410251D01*
X736439Y410221D01*
X736500Y410217D01*
X736520Y410213D01*
X736540Y410215D01*
X736600Y410211D01*
X758190Y410211D01*
X758308Y410226D01*
X758427Y410233D01*
X758465Y410246D01*
X758506Y410251D01*
X758616Y410294D01*
X758729Y410331D01*
X758764Y410353D01*
X758801Y410368D01*
X758897Y410437D01*
X758998Y410501D01*
X759026Y410531D01*
X759059Y410554D01*
X759135Y410646D01*
X759216Y410733D01*
X759236Y410768D01*
X759261Y410799D01*
X759312Y410907D01*
X759370Y411011D01*
X759380Y411051D01*
X759397Y411087D01*
X759419Y411204D01*
X759449Y411319D01*
X759453Y411379D01*
X759457Y411399D01*
X759455Y411420D01*
X759459Y411480D01*
X759459Y412018D01*
X759447Y412116D01*
X759444Y412215D01*
X759427Y412273D01*
X759419Y412333D01*
X759383Y412426D01*
X759355Y412521D01*
X759325Y412573D01*
X759302Y412629D01*
X759244Y412709D01*
X759194Y412795D01*
X759128Y412870D01*
X759116Y412886D01*
X759106Y412894D01*
X759090Y412912D01*
X757427Y416927D01*
X757427Y421273D01*
X759091Y425289D01*
X759148Y425363D01*
X759216Y425435D01*
X759245Y425488D01*
X759282Y425536D01*
X759322Y425627D01*
X759370Y425713D01*
X759385Y425772D01*
X759409Y425828D01*
X759424Y425926D01*
X759449Y426021D01*
X759455Y426121D01*
X759459Y426142D01*
X759457Y426154D01*
X759459Y426182D01*
X759459Y437418D01*
X759447Y437516D01*
X759444Y437615D01*
X759427Y437673D01*
X759419Y437733D01*
X759383Y437826D01*
X759355Y437921D01*
X759325Y437973D01*
X759302Y438029D01*
X759244Y438109D01*
X759194Y438195D01*
X759128Y438270D01*
X759116Y438286D01*
X759106Y438294D01*
X759090Y438312D01*
X757427Y442327D01*
X757427Y446673D01*
X759091Y450689D01*
X759148Y450763D01*
X759216Y450835D01*
X759245Y450888D01*
X759282Y450936D01*
X759322Y451027D01*
X759370Y451113D01*
X759385Y451172D01*
X759409Y451228D01*
X759424Y451326D01*
X759449Y451421D01*
X759455Y451521D01*
X759459Y451542D01*
X759457Y451554D01*
X759459Y451582D01*
X759459Y462818D01*
X759447Y462916D01*
X759444Y463015D01*
X759427Y463073D01*
X759419Y463133D01*
X759383Y463226D01*
X759355Y463321D01*
X759325Y463373D01*
X759302Y463429D01*
X759244Y463509D01*
X759194Y463595D01*
X759128Y463670D01*
X759116Y463686D01*
X759106Y463694D01*
X759090Y463712D01*
X757427Y467727D01*
X757427Y472073D01*
X759091Y476089D01*
X759148Y476163D01*
X759216Y476235D01*
X759245Y476288D01*
X759282Y476336D01*
X759322Y476427D01*
X759370Y476513D01*
X759385Y476572D01*
X759409Y476628D01*
X759424Y476726D01*
X759449Y476821D01*
X759455Y476921D01*
X759459Y476942D01*
X759457Y476954D01*
X759459Y476982D01*
X759459Y488218D01*
X759447Y488316D01*
X759444Y488415D01*
X759427Y488473D01*
X759419Y488533D01*
X759383Y488626D01*
X759355Y488721D01*
X759325Y488773D01*
X759302Y488829D01*
X759244Y488909D01*
X759194Y488995D01*
X759128Y489070D01*
X759116Y489086D01*
X759106Y489094D01*
X759090Y489112D01*
X757427Y493127D01*
X757427Y497473D01*
X759091Y501489D01*
X759148Y501563D01*
X759216Y501635D01*
X759245Y501688D01*
X759282Y501736D01*
X759322Y501827D01*
X759370Y501913D01*
X759385Y501972D01*
X759409Y502028D01*
X759424Y502126D01*
X759449Y502221D01*
X759455Y502321D01*
X759459Y502342D01*
X759457Y502354D01*
X759459Y502382D01*
X759459Y504190D01*
X759444Y504308D01*
X759437Y504427D01*
X759424Y504465D01*
X759419Y504506D01*
X759376Y504616D01*
X759339Y504729D01*
X759317Y504764D01*
X759302Y504801D01*
X759233Y504897D01*
X759169Y504998D01*
X759139Y505026D01*
X759116Y505059D01*
X759024Y505135D01*
X758937Y505216D01*
X758902Y505236D01*
X758871Y505261D01*
X758763Y505312D01*
X758659Y505370D01*
X758619Y505380D01*
X758583Y505397D01*
X758466Y505419D01*
X758351Y505449D01*
X758291Y505453D01*
X758271Y505457D01*
X758250Y505455D01*
X758190Y505459D01*
X14702Y505459D01*
X14565Y505442D01*
X14426Y505429D01*
X14407Y505422D01*
X14386Y505419D01*
X14258Y505368D01*
X14126Y505321D01*
X14110Y505310D01*
X14091Y505302D01*
X13978Y505221D01*
X13863Y505143D01*
X13850Y505127D01*
X13833Y505116D01*
X13745Y505008D01*
X13653Y504904D01*
X13644Y504886D01*
X13631Y504871D01*
X13571Y504745D01*
X13508Y504621D01*
X13504Y504601D01*
X13495Y504583D01*
X13469Y504446D01*
X13439Y504311D01*
X13439Y504290D01*
X13435Y504271D01*
X13444Y504132D01*
X13448Y503993D01*
X13454Y503973D01*
X13455Y503953D01*
X13498Y503821D01*
X13537Y503687D01*
X13547Y503670D01*
X13553Y503651D01*
X13628Y503533D01*
X13698Y503413D01*
X13717Y503392D01*
X13723Y503382D01*
X13738Y503368D01*
X13805Y503293D01*
X15610Y501487D01*
X17273Y497473D01*
X17273Y493127D01*
X15610Y489113D01*
X12537Y486040D01*
X8523Y484377D01*
X4126Y484377D01*
X4095Y484383D01*
X3989Y484412D01*
X3939Y484413D01*
X3890Y484422D01*
X3781Y484415D01*
X3671Y484417D01*
X3623Y484406D01*
X3573Y484403D01*
X3469Y484369D01*
X3362Y484343D01*
X3318Y484320D01*
X3271Y484305D01*
X3178Y484246D01*
X3081Y484194D01*
X3044Y484161D01*
X3002Y484134D01*
X2927Y484054D01*
X2845Y483981D01*
X2818Y483939D01*
X2784Y483903D01*
X2731Y483807D01*
X2671Y483715D01*
X2654Y483668D01*
X2630Y483624D01*
X2603Y483518D01*
X2567Y483414D01*
X2563Y483364D01*
X2551Y483316D01*
X2541Y483156D01*
X2541Y482044D01*
X2547Y481995D01*
X2545Y481945D01*
X2567Y481838D01*
X2581Y481729D01*
X2599Y481682D01*
X2609Y481634D01*
X2657Y481535D01*
X2698Y481433D01*
X2727Y481393D01*
X2749Y481348D01*
X2820Y481264D01*
X2884Y481176D01*
X2923Y481144D01*
X2955Y481106D01*
X3045Y481043D01*
X3129Y480973D01*
X3175Y480952D01*
X3215Y480923D01*
X3318Y480884D01*
X3417Y480837D01*
X3466Y480828D01*
X3513Y480810D01*
X3622Y480798D01*
X3729Y480778D01*
X3779Y480781D01*
X3829Y480775D01*
X3938Y480791D01*
X4047Y480797D01*
X4094Y480813D01*
X4144Y480820D01*
X4152Y480823D01*
X8523Y480823D01*
X12537Y479160D01*
X13009Y478688D01*
X13076Y478636D01*
X13137Y478576D01*
X13201Y478539D01*
X13260Y478493D01*
X13338Y478459D01*
X13412Y478417D01*
X13484Y478396D01*
X13552Y478367D01*
X13636Y478353D01*
X13718Y478330D01*
X13792Y478329D01*
X13866Y478317D01*
X13951Y478325D01*
X14036Y478323D01*
X14109Y478340D01*
X14183Y478347D01*
X14263Y478376D01*
X14346Y478395D01*
X14412Y478429D01*
X14482Y478454D01*
X14552Y478502D01*
X14628Y478542D01*
X14684Y478591D01*
X14745Y478633D01*
X14802Y478697D01*
X14865Y478754D01*
X14906Y478816D01*
X14956Y478871D01*
X14994Y478947D01*
X15042Y479018D01*
X15096Y479146D01*
X15100Y479155D01*
X15101Y479159D01*
X15104Y479167D01*
X15183Y479392D01*
X16390Y481899D01*
X17870Y484254D01*
X19605Y486429D01*
X21571Y488395D01*
X23746Y490130D01*
X26101Y491610D01*
X28608Y492817D01*
X31233Y493735D01*
X33945Y494354D01*
X35561Y494536D01*
X35561Y471170D01*
X35576Y471052D01*
X35583Y470933D01*
X35596Y470895D01*
X35601Y470855D01*
X35644Y470744D01*
X35681Y470631D01*
X35703Y470597D01*
X35718Y470559D01*
X35788Y470463D01*
X35851Y470362D01*
X35881Y470334D01*
X35904Y470302D01*
X35996Y470226D01*
X36083Y470144D01*
X36118Y470125D01*
X36149Y470099D01*
X36257Y470048D01*
X36361Y469991D01*
X36401Y469980D01*
X36437Y469963D01*
X36554Y469941D01*
X36669Y469911D01*
X36730Y469907D01*
X36750Y469903D01*
X36770Y469905D01*
X36830Y469901D01*
X38101Y469901D01*
X38101Y469899D01*
X36830Y469899D01*
X36712Y469884D01*
X36593Y469877D01*
X36555Y469864D01*
X36514Y469859D01*
X36404Y469815D01*
X36291Y469779D01*
X36256Y469757D01*
X36219Y469742D01*
X36123Y469672D01*
X36022Y469609D01*
X35994Y469579D01*
X35961Y469555D01*
X35886Y469464D01*
X35804Y469377D01*
X35784Y469342D01*
X35759Y469310D01*
X35708Y469203D01*
X35650Y469098D01*
X35640Y469059D01*
X35623Y469023D01*
X35601Y468906D01*
X35571Y468791D01*
X35567Y468730D01*
X35563Y468710D01*
X35565Y468690D01*
X35561Y468630D01*
X35561Y445264D01*
X33945Y445446D01*
X31233Y446065D01*
X28608Y446983D01*
X26101Y448190D01*
X23746Y449670D01*
X21571Y451405D01*
X19605Y453371D01*
X17870Y455546D01*
X16390Y457901D01*
X15183Y460408D01*
X15104Y460633D01*
X15066Y460710D01*
X15038Y460790D01*
X14996Y460851D01*
X14963Y460918D01*
X14907Y460983D01*
X14859Y461053D01*
X14803Y461102D01*
X14755Y461159D01*
X14684Y461207D01*
X14621Y461264D01*
X14554Y461297D01*
X14493Y461340D01*
X14413Y461369D01*
X14337Y461408D01*
X14265Y461424D01*
X14195Y461450D01*
X14110Y461459D01*
X14027Y461478D01*
X13953Y461476D01*
X13879Y461483D01*
X13794Y461471D01*
X13709Y461468D01*
X13638Y461447D01*
X13564Y461437D01*
X13486Y461403D01*
X13404Y461380D01*
X13340Y461342D01*
X13271Y461313D01*
X13203Y461261D01*
X13130Y461218D01*
X13026Y461127D01*
X13018Y461121D01*
X13015Y461117D01*
X13009Y461112D01*
X12537Y460640D01*
X8523Y458977D01*
X4126Y458977D01*
X4095Y458983D01*
X3989Y459012D01*
X3939Y459013D01*
X3890Y459022D01*
X3781Y459016D01*
X3671Y459017D01*
X3623Y459006D01*
X3573Y459003D01*
X3469Y458969D01*
X3362Y458943D01*
X3318Y458920D01*
X3271Y458905D01*
X3178Y458846D01*
X3081Y458795D01*
X3044Y458761D01*
X3002Y458734D01*
X2927Y458654D01*
X2846Y458581D01*
X2818Y458539D01*
X2784Y458503D01*
X2731Y458407D01*
X2671Y458315D01*
X2655Y458268D01*
X2630Y458224D01*
X2603Y458118D01*
X2567Y458014D01*
X2563Y457965D01*
X2551Y457916D01*
X2541Y457756D01*
X2541Y456644D01*
X2547Y456595D01*
X2545Y456545D01*
X2567Y456438D01*
X2581Y456329D01*
X2599Y456282D01*
X2609Y456234D01*
X2657Y456135D01*
X2698Y456033D01*
X2727Y455993D01*
X2749Y455948D01*
X2820Y455864D01*
X2884Y455776D01*
X2923Y455744D01*
X2955Y455706D01*
X3045Y455643D01*
X3129Y455573D01*
X3175Y455552D01*
X3215Y455523D01*
X3318Y455484D01*
X3417Y455437D01*
X3466Y455428D01*
X3513Y455410D01*
X3622Y455398D01*
X3729Y455378D01*
X3779Y455381D01*
X3829Y455375D01*
X3938Y455391D01*
X4047Y455397D01*
X4094Y455413D01*
X4144Y455420D01*
X4152Y455423D01*
X8523Y455423D01*
X12537Y453760D01*
X15610Y450687D01*
X17273Y446673D01*
X17273Y442327D01*
X15610Y438313D01*
X12537Y435240D01*
X8523Y433577D01*
X4126Y433577D01*
X4095Y433583D01*
X3989Y433612D01*
X3939Y433613D01*
X3890Y433622D01*
X3781Y433616D01*
X3671Y433617D01*
X3623Y433606D01*
X3573Y433603D01*
X3469Y433569D01*
X3362Y433543D01*
X3318Y433520D01*
X3271Y433505D01*
X3178Y433446D01*
X3081Y433395D01*
X3044Y433361D01*
X3002Y433334D01*
X2927Y433254D01*
X2846Y433181D01*
X2818Y433139D01*
X2784Y433103D01*
X2731Y433007D01*
X2671Y432915D01*
X2655Y432868D01*
X2630Y432824D01*
X2603Y432718D01*
X2567Y432614D01*
X2563Y432565D01*
X2551Y432516D01*
X2541Y432356D01*
X2541Y431244D01*
X2547Y431195D01*
X2545Y431145D01*
X2567Y431038D01*
X2581Y430929D01*
X2599Y430882D01*
X2609Y430834D01*
X2657Y430735D01*
X2698Y430633D01*
X2727Y430593D01*
X2749Y430548D01*
X2820Y430464D01*
X2884Y430376D01*
X2923Y430344D01*
X2955Y430306D01*
X3045Y430243D01*
X3129Y430173D01*
X3175Y430152D01*
X3215Y430123D01*
X3318Y430084D01*
X3417Y430037D01*
X3466Y430028D01*
X3513Y430010D01*
X3622Y429998D01*
X3729Y429978D01*
X3779Y429981D01*
X3829Y429975D01*
X3938Y429991D01*
X4047Y429997D01*
X4094Y430013D01*
X4144Y430020D01*
X4152Y430023D01*
X8523Y430023D01*
X12537Y428360D01*
X15610Y425287D01*
X17273Y421273D01*
X17273Y416927D01*
X15610Y412913D01*
X12537Y409840D01*
X8523Y408177D01*
X4126Y408177D01*
X4095Y408183D01*
X3989Y408212D01*
X3939Y408213D01*
X3890Y408222D01*
X3781Y408216D01*
X3671Y408217D01*
X3623Y408206D01*
X3573Y408203D01*
X3469Y408169D01*
X3362Y408143D01*
X3318Y408120D01*
X3271Y408105D01*
X3178Y408046D01*
X3081Y407995D01*
X3044Y407961D01*
X3002Y407934D01*
X2927Y407854D01*
X2846Y407781D01*
X2818Y407739D01*
X2784Y407703D01*
X2731Y407607D01*
X2671Y407515D01*
X2655Y407468D01*
X2630Y407424D01*
X2603Y407318D01*
X2567Y407214D01*
X2563Y407165D01*
X2551Y407116D01*
X2541Y406956D01*
X2541Y405844D01*
X2547Y405795D01*
X2545Y405745D01*
X2567Y405638D01*
X2581Y405529D01*
X2599Y405482D01*
X2609Y405434D01*
X2657Y405335D01*
X2698Y405233D01*
X2727Y405193D01*
X2749Y405148D01*
X2820Y405064D01*
X2884Y404976D01*
X2923Y404944D01*
X2955Y404906D01*
X3045Y404843D01*
X3129Y404773D01*
X3175Y404752D01*
X3215Y404723D01*
X3318Y404684D01*
X3417Y404637D01*
X3466Y404628D01*
X3513Y404610D01*
X3622Y404598D01*
X3729Y404578D01*
X3779Y404581D01*
X3829Y404575D01*
X3938Y404591D01*
X4047Y404597D01*
X4094Y404613D01*
X4144Y404620D01*
X4152Y404623D01*
X8523Y404623D01*
X12537Y402960D01*
X15610Y399887D01*
X17273Y395873D01*
X17273Y391527D01*
X15610Y387513D01*
X12537Y384440D01*
X8523Y382777D01*
X4126Y382777D01*
X4095Y382783D01*
X3989Y382812D01*
X3939Y382813D01*
X3890Y382822D01*
X3781Y382816D01*
X3671Y382817D01*
X3623Y382806D01*
X3573Y382803D01*
X3469Y382769D01*
X3362Y382743D01*
X3318Y382720D01*
X3271Y382705D01*
X3178Y382646D01*
X3081Y382595D01*
X3044Y382561D01*
X3002Y382534D01*
X2927Y382454D01*
X2846Y382381D01*
X2818Y382339D01*
X2784Y382303D01*
X2731Y382207D01*
X2671Y382115D01*
X2655Y382068D01*
X2630Y382024D01*
X2603Y381918D01*
X2567Y381814D01*
X2563Y381765D01*
X2551Y381716D01*
X2541Y381556D01*
X2541Y380444D01*
X2547Y380395D01*
X2545Y380345D01*
X2567Y380238D01*
X2581Y380129D01*
X2599Y380083D01*
X2609Y380034D01*
X2657Y379935D01*
X2698Y379833D01*
X2727Y379793D01*
X2749Y379748D01*
X2820Y379665D01*
X2884Y379576D01*
X2923Y379544D01*
X2955Y379506D01*
X3045Y379443D01*
X3129Y379373D01*
X3174Y379352D01*
X3215Y379323D01*
X3318Y379284D01*
X3417Y379237D01*
X3466Y379228D01*
X3512Y379211D01*
X3622Y379198D01*
X3729Y379178D01*
X3779Y379181D01*
X3829Y379175D01*
X3937Y379191D01*
X4047Y379197D01*
X4094Y379213D01*
X4143Y379220D01*
X4152Y379223D01*
X8523Y379223D01*
X12537Y377560D01*
X15610Y374487D01*
X17273Y370473D01*
X17273Y366127D01*
X15610Y362113D01*
X12537Y359040D01*
X8523Y357377D01*
X4126Y357377D01*
X4095Y357383D01*
X3989Y357412D01*
X3939Y357413D01*
X3890Y357422D01*
X3781Y357415D01*
X3671Y357417D01*
X3623Y357406D01*
X3573Y357403D01*
X3469Y357369D01*
X3362Y357343D01*
X3318Y357320D01*
X3271Y357305D01*
X3178Y357246D01*
X3081Y357194D01*
X3044Y357161D01*
X3002Y357134D01*
X2927Y357054D01*
X2845Y356981D01*
X2818Y356939D01*
X2784Y356903D01*
X2731Y356807D01*
X2671Y356715D01*
X2654Y356668D01*
X2630Y356624D01*
X2603Y356518D01*
X2567Y356414D01*
X2563Y356364D01*
X2551Y356316D01*
X2541Y356156D01*
X2541Y355044D01*
X2547Y354995D01*
X2545Y354945D01*
X2567Y354838D01*
X2581Y354729D01*
X2599Y354683D01*
X2609Y354634D01*
X2657Y354535D01*
X2698Y354433D01*
X2727Y354393D01*
X2749Y354348D01*
X2820Y354265D01*
X2884Y354176D01*
X2923Y354144D01*
X2955Y354106D01*
X3045Y354043D01*
X3129Y353973D01*
X3174Y353952D01*
X3215Y353923D01*
X3318Y353884D01*
X3417Y353837D01*
X3466Y353828D01*
X3512Y353811D01*
X3622Y353798D01*
X3729Y353778D01*
X3779Y353781D01*
X3829Y353775D01*
X3937Y353791D01*
X4047Y353797D01*
X4094Y353813D01*
X4143Y353820D01*
X4152Y353823D01*
X8523Y353823D01*
X12537Y352160D01*
X15610Y349087D01*
X17273Y345073D01*
X17273Y340727D01*
X15610Y336713D01*
X12537Y333640D01*
X8523Y331977D01*
X4126Y331977D01*
X4095Y331983D01*
X3989Y332012D01*
X3939Y332013D01*
X3890Y332022D01*
X3781Y332015D01*
X3671Y332017D01*
X3623Y332006D01*
X3573Y332003D01*
X3469Y331969D01*
X3362Y331943D01*
X3318Y331920D01*
X3271Y331905D01*
X3178Y331846D01*
X3081Y331794D01*
X3044Y331761D01*
X3002Y331734D01*
X2927Y331654D01*
X2845Y331581D01*
X2818Y331539D01*
X2784Y331503D01*
X2731Y331407D01*
X2671Y331315D01*
X2654Y331268D01*
X2630Y331224D01*
X2603Y331118D01*
X2567Y331014D01*
X2563Y330964D01*
X2551Y330916D01*
X2541Y330756D01*
X2541Y329644D01*
X2547Y329595D01*
X2545Y329545D01*
X2567Y329438D01*
X2581Y329329D01*
X2599Y329283D01*
X2609Y329234D01*
X2657Y329135D01*
X2698Y329033D01*
X2727Y328993D01*
X2749Y328948D01*
X2820Y328865D01*
X2884Y328776D01*
X2923Y328744D01*
X2955Y328706D01*
X3045Y328643D01*
X3129Y328573D01*
X3174Y328552D01*
X3215Y328523D01*
X3318Y328484D01*
X3417Y328437D01*
X3466Y328428D01*
X3512Y328411D01*
X3622Y328398D01*
X3729Y328378D01*
X3779Y328381D01*
X3829Y328375D01*
X3937Y328391D01*
X4047Y328397D01*
X4094Y328413D01*
X4143Y328420D01*
X4152Y328423D01*
X8523Y328423D01*
X12537Y326760D01*
X15610Y323687D01*
X17273Y319673D01*
X17273Y315327D01*
X15610Y311313D01*
X12537Y308240D01*
X8523Y306577D01*
X4126Y306577D01*
X4095Y306583D01*
X3989Y306612D01*
X3939Y306613D01*
X3890Y306622D01*
X3781Y306615D01*
X3671Y306617D01*
X3623Y306606D01*
X3573Y306603D01*
X3469Y306569D01*
X3362Y306543D01*
X3318Y306520D01*
X3271Y306505D01*
X3178Y306446D01*
X3081Y306394D01*
X3044Y306361D01*
X3002Y306334D01*
X2927Y306254D01*
X2845Y306181D01*
X2818Y306139D01*
X2784Y306103D01*
X2731Y306007D01*
X2671Y305915D01*
X2654Y305868D01*
X2630Y305824D01*
X2603Y305718D01*
X2567Y305614D01*
X2563Y305564D01*
X2551Y305516D01*
X2541Y305356D01*
X2541Y304244D01*
X2547Y304195D01*
X2545Y304145D01*
X2567Y304038D01*
X2581Y303929D01*
X2599Y303883D01*
X2609Y303834D01*
X2657Y303735D01*
X2698Y303633D01*
X2727Y303593D01*
X2749Y303548D01*
X2820Y303465D01*
X2884Y303376D01*
X2923Y303344D01*
X2955Y303306D01*
X3045Y303243D01*
X3129Y303173D01*
X3174Y303152D01*
X3215Y303123D01*
X3318Y303084D01*
X3417Y303037D01*
X3466Y303028D01*
X3512Y303011D01*
X3622Y302998D01*
X3729Y302978D01*
X3779Y302981D01*
X3829Y302975D01*
X3937Y302991D01*
X4047Y302997D01*
X4094Y303013D01*
X4143Y303020D01*
X4152Y303023D01*
X8523Y303023D01*
X12537Y301360D01*
X15610Y298287D01*
X17273Y294273D01*
X17273Y289927D01*
X15610Y285913D01*
X12537Y282840D01*
X8523Y281177D01*
X4126Y281177D01*
X4095Y281183D01*
X3989Y281212D01*
X3939Y281213D01*
X3890Y281222D01*
X3781Y281215D01*
X3671Y281217D01*
X3623Y281206D01*
X3573Y281203D01*
X3469Y281169D01*
X3362Y281143D01*
X3318Y281120D01*
X3271Y281105D01*
X3178Y281046D01*
X3081Y280994D01*
X3044Y280961D01*
X3002Y280934D01*
X2927Y280854D01*
X2845Y280781D01*
X2818Y280739D01*
X2784Y280703D01*
X2731Y280607D01*
X2671Y280515D01*
X2654Y280468D01*
X2630Y280424D01*
X2603Y280318D01*
X2567Y280214D01*
X2563Y280164D01*
X2551Y280116D01*
X2541Y279956D01*
X2541Y278844D01*
X2547Y278795D01*
X2545Y278745D01*
X2567Y278638D01*
X2581Y278529D01*
X2599Y278483D01*
X2609Y278434D01*
X2657Y278335D01*
X2698Y278233D01*
X2727Y278193D01*
X2749Y278148D01*
X2820Y278065D01*
X2884Y277976D01*
X2923Y277944D01*
X2955Y277906D01*
X3045Y277843D01*
X3129Y277773D01*
X3174Y277752D01*
X3215Y277723D01*
X3318Y277684D01*
X3417Y277637D01*
X3466Y277628D01*
X3512Y277611D01*
X3622Y277598D01*
X3729Y277578D01*
X3779Y277581D01*
X3829Y277575D01*
X3937Y277591D01*
X4047Y277597D01*
X4094Y277613D01*
X4143Y277620D01*
X4152Y277623D01*
X8523Y277623D01*
X12537Y275960D01*
X15610Y272887D01*
X17273Y268873D01*
X17273Y264527D01*
X15610Y260513D01*
X12537Y257440D01*
X8523Y255777D01*
X4126Y255777D01*
X4095Y255783D01*
X3989Y255812D01*
X3939Y255813D01*
X3890Y255822D01*
X3781Y255815D01*
X3671Y255817D01*
X3623Y255806D01*
X3573Y255803D01*
X3469Y255769D01*
X3362Y255743D01*
X3318Y255720D01*
X3271Y255705D01*
X3178Y255646D01*
X3081Y255594D01*
X3044Y255561D01*
X3002Y255534D01*
X2927Y255454D01*
X2845Y255381D01*
X2818Y255339D01*
X2784Y255303D01*
X2731Y255207D01*
X2671Y255115D01*
X2654Y255068D01*
X2630Y255024D01*
X2603Y254918D01*
X2567Y254814D01*
X2563Y254764D01*
X2551Y254716D01*
X2541Y254556D01*
X2541Y254000D01*
X2556Y253882D01*
X2563Y253763D01*
X2576Y253725D01*
X2581Y253684D01*
X2624Y253574D01*
X2661Y253461D01*
X2683Y253426D01*
X2698Y253389D01*
X2767Y253293D01*
X2831Y253192D01*
X2861Y253164D01*
X2884Y253131D01*
X2976Y253055D01*
X3063Y252974D01*
X3098Y252954D01*
X3129Y252929D01*
X3237Y252878D01*
X3341Y252820D01*
X3381Y252810D01*
X3417Y252793D01*
X3534Y252771D01*
X3649Y252741D01*
X3709Y252737D01*
X3729Y252733D01*
X3750Y252735D01*
X3810Y252731D01*
X25400Y252731D01*
G37*
G36*
X552860Y2544D02*
X552860Y2544D01*
X552890Y2542D01*
X553018Y2564D01*
X553147Y2581D01*
X553174Y2591D01*
X553203Y2596D01*
X553322Y2650D01*
X553442Y2698D01*
X553466Y2715D01*
X553493Y2727D01*
X553595Y2808D01*
X553700Y2884D01*
X553719Y2907D01*
X553742Y2926D01*
X553820Y3029D01*
X553903Y3129D01*
X553915Y3156D01*
X553933Y3180D01*
X554004Y3324D01*
X555688Y7390D01*
X559160Y10862D01*
X563695Y12741D01*
X568605Y12741D01*
X573140Y10862D01*
X576612Y7390D01*
X578296Y3324D01*
X578311Y3299D01*
X578320Y3271D01*
X578389Y3161D01*
X578454Y3048D01*
X578474Y3027D01*
X578490Y3002D01*
X578585Y2913D01*
X578675Y2820D01*
X578700Y2804D01*
X578722Y2784D01*
X578836Y2721D01*
X578946Y2653D01*
X578974Y2645D01*
X579000Y2630D01*
X579126Y2598D01*
X579250Y2560D01*
X579280Y2558D01*
X579308Y2551D01*
X579469Y2541D01*
X677831Y2541D01*
X677860Y2544D01*
X677890Y2542D01*
X678018Y2564D01*
X678147Y2581D01*
X678174Y2591D01*
X678203Y2596D01*
X678322Y2650D01*
X678442Y2698D01*
X678466Y2715D01*
X678493Y2727D01*
X678595Y2808D01*
X678700Y2884D01*
X678719Y2907D01*
X678742Y2926D01*
X678820Y3029D01*
X678903Y3129D01*
X678915Y3156D01*
X678933Y3180D01*
X679004Y3324D01*
X680688Y7390D01*
X684160Y10862D01*
X688695Y12741D01*
X693605Y12741D01*
X698140Y10862D01*
X701612Y7390D01*
X703296Y3324D01*
X703311Y3299D01*
X703320Y3271D01*
X703389Y3161D01*
X703454Y3048D01*
X703474Y3027D01*
X703490Y3002D01*
X703585Y2913D01*
X703675Y2820D01*
X703700Y2804D01*
X703722Y2784D01*
X703836Y2721D01*
X703946Y2653D01*
X703974Y2645D01*
X704000Y2630D01*
X704126Y2598D01*
X704250Y2560D01*
X704280Y2558D01*
X704308Y2551D01*
X704469Y2541D01*
X758190Y2541D01*
X758308Y2556D01*
X758427Y2563D01*
X758465Y2576D01*
X758506Y2581D01*
X758616Y2624D01*
X758729Y2661D01*
X758764Y2683D01*
X758801Y2698D01*
X758897Y2767D01*
X758998Y2831D01*
X759026Y2861D01*
X759059Y2884D01*
X759135Y2976D01*
X759216Y3063D01*
X759236Y3098D01*
X759261Y3129D01*
X759312Y3237D01*
X759370Y3341D01*
X759380Y3381D01*
X759397Y3417D01*
X759419Y3534D01*
X759449Y3649D01*
X759453Y3709D01*
X759457Y3729D01*
X759455Y3750D01*
X759459Y3810D01*
X759459Y41168D01*
X759449Y41247D01*
X759449Y41326D01*
X759429Y41404D01*
X759419Y41484D01*
X759390Y41557D01*
X759371Y41634D01*
X759332Y41705D01*
X759302Y41779D01*
X759256Y41843D01*
X759218Y41913D01*
X759163Y41972D01*
X759116Y42037D01*
X759054Y42087D01*
X759000Y42145D01*
X758933Y42188D01*
X758871Y42239D01*
X758799Y42273D01*
X758732Y42316D01*
X758583Y42375D01*
X758582Y42375D01*
X755507Y43374D01*
X749118Y48016D01*
X749036Y48061D01*
X748959Y48115D01*
X748897Y48137D01*
X748840Y48169D01*
X748749Y48192D01*
X748661Y48225D01*
X748596Y48232D01*
X748532Y48248D01*
X748438Y48248D01*
X748345Y48258D01*
X748280Y48248D01*
X748214Y48248D01*
X748123Y48225D01*
X748030Y48211D01*
X747969Y48186D01*
X747906Y48169D01*
X747823Y48124D01*
X747737Y48088D01*
X747685Y48048D01*
X747627Y48016D01*
X747558Y47952D01*
X747484Y47895D01*
X747443Y47844D01*
X747395Y47799D01*
X747345Y47719D01*
X747286Y47646D01*
X747260Y47586D01*
X747224Y47530D01*
X747195Y47441D01*
X747157Y47355D01*
X747146Y47290D01*
X747126Y47228D01*
X747120Y47134D01*
X747104Y47042D01*
X747110Y46976D01*
X747106Y46911D01*
X747123Y46818D01*
X747131Y46725D01*
X747162Y46616D01*
X747165Y46598D01*
X747169Y46590D01*
X747174Y46570D01*
X747735Y44967D01*
X748354Y42255D01*
X748536Y40639D01*
X726439Y40639D01*
X726439Y62736D01*
X728055Y62554D01*
X730767Y61935D01*
X733392Y61017D01*
X735899Y59810D01*
X738254Y58330D01*
X740413Y56608D01*
X740505Y56552D01*
X740593Y56488D01*
X740641Y56469D01*
X740685Y56442D01*
X740788Y56411D01*
X740888Y56371D01*
X740939Y56364D01*
X740989Y56349D01*
X741097Y56345D01*
X741204Y56331D01*
X741255Y56337D01*
X741306Y56335D01*
X741412Y56357D01*
X741519Y56371D01*
X741567Y56390D01*
X741618Y56400D01*
X741714Y56448D01*
X741815Y56487D01*
X741857Y56518D01*
X741903Y56541D01*
X741985Y56611D01*
X742072Y56674D01*
X742105Y56714D01*
X742144Y56747D01*
X742206Y56836D01*
X742275Y56919D01*
X742297Y56966D01*
X742327Y57008D01*
X742365Y57109D01*
X742411Y57207D01*
X742421Y57257D01*
X742439Y57306D01*
X742451Y57413D01*
X742471Y57519D01*
X742468Y57571D01*
X742473Y57622D01*
X742458Y57729D01*
X742451Y57836D01*
X742431Y57915D01*
X742428Y57937D01*
X742422Y57952D01*
X742411Y57992D01*
X740409Y64155D01*
X740409Y97790D01*
X740394Y97908D01*
X740387Y98027D01*
X740374Y98065D01*
X740369Y98106D01*
X740326Y98216D01*
X740289Y98329D01*
X740267Y98364D01*
X740252Y98401D01*
X740183Y98497D01*
X740119Y98598D01*
X740089Y98626D01*
X740066Y98659D01*
X739974Y98735D01*
X739887Y98816D01*
X739852Y98836D01*
X739821Y98861D01*
X739713Y98912D01*
X739609Y98970D01*
X739569Y98980D01*
X739533Y98997D01*
X739416Y99019D01*
X739301Y99049D01*
X739241Y99053D01*
X739221Y99057D01*
X739200Y99055D01*
X739140Y99059D01*
X736600Y99059D01*
X736482Y99044D01*
X736363Y99037D01*
X736325Y99024D01*
X736284Y99019D01*
X736174Y98976D01*
X736061Y98939D01*
X736026Y98917D01*
X735989Y98902D01*
X735893Y98833D01*
X735792Y98769D01*
X735764Y98739D01*
X735731Y98716D01*
X735655Y98624D01*
X735574Y98537D01*
X735554Y98502D01*
X735529Y98471D01*
X735478Y98363D01*
X735420Y98259D01*
X735410Y98219D01*
X735393Y98183D01*
X735371Y98066D01*
X735341Y97951D01*
X735337Y97891D01*
X735333Y97871D01*
X735335Y97850D01*
X735331Y97790D01*
X735331Y82549D01*
X721360Y82549D01*
X721359Y82549D01*
X712470Y82549D01*
X712352Y82534D01*
X712233Y82527D01*
X712195Y82514D01*
X712155Y82509D01*
X712044Y82465D01*
X711931Y82429D01*
X711896Y82407D01*
X711859Y82392D01*
X711763Y82322D01*
X711662Y82259D01*
X711634Y82229D01*
X711602Y82205D01*
X711526Y82114D01*
X711444Y82027D01*
X711425Y81992D01*
X711399Y81960D01*
X711348Y81853D01*
X711291Y81749D01*
X711280Y81709D01*
X711263Y81673D01*
X711241Y81556D01*
X711211Y81441D01*
X711207Y81380D01*
X711203Y81360D01*
X711205Y81340D01*
X711201Y81280D01*
X711201Y80009D01*
X711199Y80009D01*
X711199Y81280D01*
X711184Y81398D01*
X711177Y81517D01*
X711164Y81555D01*
X711159Y81595D01*
X711115Y81706D01*
X711079Y81819D01*
X711057Y81854D01*
X711042Y81891D01*
X710972Y81987D01*
X710909Y82088D01*
X710879Y82116D01*
X710855Y82148D01*
X710764Y82224D01*
X710677Y82306D01*
X710642Y82325D01*
X710610Y82351D01*
X710503Y82402D01*
X710399Y82459D01*
X710359Y82470D01*
X710323Y82487D01*
X710206Y82509D01*
X710091Y82539D01*
X710030Y82543D01*
X710010Y82547D01*
X709990Y82545D01*
X709930Y82549D01*
X701041Y82549D01*
X701040Y82549D01*
X685800Y82549D01*
X685682Y82534D01*
X685563Y82527D01*
X685525Y82514D01*
X685484Y82509D01*
X685374Y82466D01*
X685261Y82429D01*
X685226Y82407D01*
X685189Y82392D01*
X685093Y82323D01*
X684992Y82259D01*
X684964Y82229D01*
X684931Y82206D01*
X684856Y82114D01*
X684774Y82027D01*
X684754Y81992D01*
X684729Y81961D01*
X684678Y81853D01*
X684620Y81749D01*
X684610Y81709D01*
X684593Y81673D01*
X684571Y81556D01*
X684541Y81441D01*
X684537Y81381D01*
X684533Y81361D01*
X684535Y81340D01*
X684531Y81280D01*
X684531Y62915D01*
X684537Y62866D01*
X684535Y62816D01*
X684557Y62709D01*
X684571Y62600D01*
X684589Y62553D01*
X684599Y62505D01*
X684647Y62406D01*
X684688Y62304D01*
X684717Y62264D01*
X684739Y62219D01*
X684810Y62136D01*
X684874Y62047D01*
X684913Y62015D01*
X684945Y61977D01*
X685035Y61914D01*
X685119Y61844D01*
X685164Y61823D01*
X685205Y61794D01*
X685308Y61755D01*
X685407Y61708D01*
X685456Y61699D01*
X685502Y61681D01*
X685612Y61669D01*
X685720Y61649D01*
X685769Y61652D01*
X685818Y61646D01*
X685927Y61662D01*
X686037Y61668D01*
X686084Y61684D01*
X686133Y61691D01*
X686286Y61743D01*
X688695Y62741D01*
X693605Y62741D01*
X698140Y60862D01*
X701612Y57390D01*
X702838Y54431D01*
X702898Y54326D01*
X702951Y54218D01*
X702976Y54188D01*
X702996Y54154D01*
X703080Y54068D01*
X703158Y53976D01*
X703190Y53954D01*
X703217Y53926D01*
X703320Y53863D01*
X703418Y53794D01*
X703455Y53780D01*
X703488Y53760D01*
X703603Y53724D01*
X703716Y53682D01*
X703755Y53678D01*
X703792Y53666D01*
X703912Y53660D01*
X704032Y53647D01*
X704071Y53653D01*
X704110Y53651D01*
X704228Y53675D01*
X704347Y53692D01*
X704383Y53707D01*
X704421Y53715D01*
X704530Y53768D01*
X704641Y53815D01*
X704672Y53838D01*
X704707Y53855D01*
X704799Y53933D01*
X704895Y54006D01*
X704933Y54048D01*
X704949Y54061D01*
X704961Y54078D01*
X705003Y54125D01*
X705405Y54629D01*
X707371Y56595D01*
X709546Y58330D01*
X711901Y59810D01*
X714408Y61017D01*
X717033Y61935D01*
X719745Y62554D01*
X721361Y62736D01*
X721361Y40639D01*
X699367Y40639D01*
X699269Y40627D01*
X699170Y40624D01*
X699112Y40607D01*
X699052Y40599D01*
X698960Y40563D01*
X698865Y40535D01*
X698812Y40505D01*
X698756Y40482D01*
X698676Y40424D01*
X698591Y40374D01*
X698515Y40307D01*
X698499Y40295D01*
X698491Y40286D01*
X698478Y40275D01*
X698478Y40274D01*
X698470Y40267D01*
X698140Y39938D01*
X693605Y38059D01*
X688695Y38059D01*
X686286Y39057D01*
X686238Y39070D01*
X686193Y39092D01*
X686085Y39112D01*
X685979Y39141D01*
X685929Y39142D01*
X685881Y39151D01*
X685771Y39145D01*
X685661Y39146D01*
X685613Y39135D01*
X685563Y39132D01*
X685459Y39098D01*
X685352Y39072D01*
X685308Y39049D01*
X685261Y39034D01*
X685168Y38975D01*
X685071Y38923D01*
X685034Y38890D01*
X684992Y38863D01*
X684917Y38783D01*
X684835Y38710D01*
X684808Y38668D01*
X684774Y38632D01*
X684721Y38536D01*
X684661Y38444D01*
X684644Y38397D01*
X684620Y38353D01*
X684593Y38247D01*
X684557Y38143D01*
X684553Y38093D01*
X684541Y38045D01*
X684531Y37885D01*
X684531Y26669D01*
X500113Y26669D01*
X500026Y26658D01*
X499938Y26657D01*
X499869Y26638D01*
X499798Y26629D01*
X499716Y26597D01*
X499631Y26574D01*
X499569Y26539D01*
X499502Y26512D01*
X499431Y26461D01*
X499355Y26417D01*
X499303Y26368D01*
X499245Y26326D01*
X499189Y26258D01*
X499126Y26197D01*
X499088Y26136D01*
X499042Y26081D01*
X499005Y26001D01*
X498958Y25926D01*
X498937Y25858D01*
X498907Y25793D01*
X498890Y25707D01*
X498864Y25623D01*
X498860Y25551D01*
X498847Y25481D01*
X498852Y25393D01*
X498848Y25305D01*
X498862Y25235D01*
X498867Y25163D01*
X498894Y25080D01*
X498911Y24993D01*
X498942Y24929D01*
X498965Y24861D01*
X499012Y24786D01*
X499050Y24707D01*
X499128Y24603D01*
X499135Y24592D01*
X499139Y24588D01*
X499146Y24578D01*
X517490Y2988D01*
X517600Y2887D01*
X517710Y2784D01*
X517718Y2780D01*
X517724Y2774D01*
X517857Y2703D01*
X517988Y2630D01*
X517997Y2628D01*
X518005Y2624D01*
X518152Y2588D01*
X518296Y2551D01*
X518308Y2550D01*
X518314Y2549D01*
X518327Y2549D01*
X518457Y2541D01*
X552831Y2541D01*
X552860Y2544D01*
G37*
G36*
X758308Y146326D02*
X758308Y146326D01*
X758427Y146333D01*
X758465Y146346D01*
X758506Y146351D01*
X758616Y146394D01*
X758729Y146431D01*
X758764Y146453D01*
X758801Y146468D01*
X758897Y146537D01*
X758998Y146601D01*
X759026Y146631D01*
X759059Y146654D01*
X759135Y146746D01*
X759216Y146833D01*
X759236Y146868D01*
X759261Y146899D01*
X759312Y147007D01*
X759370Y147111D01*
X759380Y147151D01*
X759397Y147187D01*
X759419Y147304D01*
X759449Y147419D01*
X759453Y147479D01*
X759457Y147499D01*
X759455Y147520D01*
X759459Y147580D01*
X759459Y158018D01*
X759447Y158116D01*
X759444Y158215D01*
X759427Y158273D01*
X759419Y158333D01*
X759383Y158426D01*
X759355Y158521D01*
X759325Y158573D01*
X759302Y158629D01*
X759244Y158709D01*
X759194Y158795D01*
X759128Y158870D01*
X759116Y158886D01*
X759106Y158894D01*
X759090Y158912D01*
X757427Y162927D01*
X757427Y167273D01*
X759091Y171289D01*
X759148Y171363D01*
X759216Y171435D01*
X759245Y171488D01*
X759282Y171536D01*
X759322Y171627D01*
X759370Y171713D01*
X759385Y171772D01*
X759409Y171828D01*
X759424Y171926D01*
X759449Y172021D01*
X759455Y172121D01*
X759459Y172142D01*
X759457Y172154D01*
X759459Y172182D01*
X759459Y183418D01*
X759447Y183516D01*
X759444Y183615D01*
X759427Y183673D01*
X759419Y183733D01*
X759383Y183826D01*
X759355Y183921D01*
X759325Y183973D01*
X759302Y184029D01*
X759244Y184109D01*
X759194Y184195D01*
X759128Y184270D01*
X759116Y184286D01*
X759106Y184294D01*
X759090Y184312D01*
X757427Y188327D01*
X757427Y192673D01*
X759091Y196689D01*
X759148Y196763D01*
X759216Y196835D01*
X759245Y196888D01*
X759282Y196936D01*
X759322Y197027D01*
X759370Y197113D01*
X759385Y197172D01*
X759409Y197228D01*
X759424Y197326D01*
X759449Y197421D01*
X759455Y197521D01*
X759459Y197542D01*
X759457Y197554D01*
X759459Y197582D01*
X759459Y208818D01*
X759447Y208916D01*
X759444Y209015D01*
X759427Y209073D01*
X759419Y209133D01*
X759383Y209226D01*
X759355Y209321D01*
X759325Y209373D01*
X759302Y209429D01*
X759244Y209509D01*
X759194Y209595D01*
X759128Y209670D01*
X759116Y209686D01*
X759106Y209694D01*
X759090Y209712D01*
X757427Y213727D01*
X757427Y218073D01*
X759091Y222089D01*
X759148Y222163D01*
X759216Y222235D01*
X759245Y222288D01*
X759282Y222336D01*
X759322Y222427D01*
X759370Y222513D01*
X759385Y222572D01*
X759409Y222628D01*
X759424Y222726D01*
X759449Y222821D01*
X759455Y222921D01*
X759459Y222942D01*
X759457Y222954D01*
X759459Y222982D01*
X759459Y234218D01*
X759447Y234316D01*
X759444Y234415D01*
X759427Y234473D01*
X759419Y234533D01*
X759383Y234626D01*
X759355Y234721D01*
X759325Y234773D01*
X759302Y234829D01*
X759244Y234909D01*
X759194Y234995D01*
X759128Y235070D01*
X759116Y235086D01*
X759106Y235094D01*
X759090Y235112D01*
X757427Y239127D01*
X757427Y243473D01*
X759091Y247489D01*
X759148Y247563D01*
X759216Y247635D01*
X759245Y247688D01*
X759282Y247736D01*
X759322Y247827D01*
X759370Y247913D01*
X759385Y247972D01*
X759409Y248028D01*
X759424Y248126D01*
X759449Y248221D01*
X759455Y248321D01*
X759459Y248342D01*
X759457Y248354D01*
X759459Y248382D01*
X759459Y254000D01*
X759444Y254118D01*
X759437Y254237D01*
X759424Y254275D01*
X759419Y254316D01*
X759376Y254426D01*
X759339Y254539D01*
X759317Y254574D01*
X759302Y254611D01*
X759233Y254707D01*
X759169Y254808D01*
X759139Y254836D01*
X759116Y254869D01*
X759024Y254945D01*
X758937Y255026D01*
X758902Y255046D01*
X758871Y255071D01*
X758763Y255122D01*
X758659Y255180D01*
X758619Y255190D01*
X758583Y255207D01*
X758466Y255229D01*
X758351Y255259D01*
X758291Y255263D01*
X758271Y255267D01*
X758250Y255265D01*
X758190Y255269D01*
X736600Y255269D01*
X736482Y255254D01*
X736363Y255247D01*
X736325Y255234D01*
X736284Y255229D01*
X736174Y255186D01*
X736061Y255149D01*
X736026Y255127D01*
X735989Y255112D01*
X735893Y255043D01*
X735792Y254979D01*
X735764Y254949D01*
X735731Y254926D01*
X735656Y254834D01*
X735574Y254747D01*
X735554Y254712D01*
X735529Y254681D01*
X735478Y254573D01*
X735420Y254469D01*
X735410Y254429D01*
X735393Y254393D01*
X735371Y254276D01*
X735341Y254161D01*
X735337Y254101D01*
X735333Y254081D01*
X735335Y254060D01*
X735331Y254000D01*
X735331Y204469D01*
X660400Y204469D01*
X660282Y204454D01*
X660163Y204447D01*
X660125Y204434D01*
X660084Y204429D01*
X659974Y204386D01*
X659861Y204349D01*
X659826Y204327D01*
X659789Y204312D01*
X659693Y204243D01*
X659592Y204179D01*
X659564Y204149D01*
X659531Y204126D01*
X659456Y204034D01*
X659374Y203947D01*
X659354Y203912D01*
X659329Y203881D01*
X659278Y203773D01*
X659220Y203669D01*
X659210Y203629D01*
X659193Y203593D01*
X659171Y203476D01*
X659141Y203361D01*
X659137Y203301D01*
X659133Y203281D01*
X659135Y203260D01*
X659131Y203200D01*
X659131Y198558D01*
X659136Y198515D01*
X659134Y198472D01*
X659156Y198358D01*
X659171Y198242D01*
X659186Y198202D01*
X659195Y198160D01*
X659245Y198055D01*
X659288Y197947D01*
X659313Y197912D01*
X659331Y197873D01*
X659406Y197784D01*
X659474Y197689D01*
X659508Y197662D01*
X659535Y197629D01*
X659561Y197611D01*
X659561Y179970D01*
X659576Y179852D01*
X659583Y179733D01*
X659596Y179695D01*
X659601Y179655D01*
X659644Y179544D01*
X659681Y179431D01*
X659703Y179397D01*
X659718Y179359D01*
X659788Y179263D01*
X659851Y179162D01*
X659881Y179134D01*
X659904Y179102D01*
X659996Y179026D01*
X660083Y178944D01*
X660118Y178925D01*
X660149Y178899D01*
X660257Y178848D01*
X660361Y178791D01*
X660401Y178780D01*
X660437Y178763D01*
X660554Y178741D01*
X660669Y178711D01*
X660730Y178707D01*
X660750Y178703D01*
X660770Y178705D01*
X660830Y178701D01*
X662101Y178701D01*
X662101Y178699D01*
X660830Y178699D01*
X660712Y178684D01*
X660593Y178677D01*
X660555Y178664D01*
X660514Y178659D01*
X660404Y178615D01*
X660291Y178579D01*
X660256Y178557D01*
X660219Y178542D01*
X660123Y178472D01*
X660022Y178409D01*
X659994Y178379D01*
X659961Y178355D01*
X659886Y178264D01*
X659804Y178177D01*
X659784Y178142D01*
X659759Y178110D01*
X659708Y178003D01*
X659650Y177898D01*
X659640Y177859D01*
X659623Y177823D01*
X659601Y177706D01*
X659571Y177591D01*
X659567Y177530D01*
X659563Y177510D01*
X659565Y177490D01*
X659561Y177430D01*
X659561Y159788D01*
X659512Y159736D01*
X659427Y159657D01*
X659403Y159620D01*
X659374Y159589D01*
X659318Y159487D01*
X659255Y159389D01*
X659241Y159348D01*
X659220Y159311D01*
X659191Y159198D01*
X659155Y159087D01*
X659152Y159044D01*
X659141Y159003D01*
X659131Y158842D01*
X659131Y152400D01*
X659146Y152282D01*
X659153Y152163D01*
X659166Y152125D01*
X659171Y152084D01*
X659214Y151974D01*
X659251Y151861D01*
X659273Y151826D01*
X659288Y151789D01*
X659358Y151693D01*
X659421Y151592D01*
X659451Y151564D01*
X659474Y151531D01*
X659566Y151456D01*
X659653Y151374D01*
X659688Y151354D01*
X659719Y151329D01*
X659827Y151278D01*
X659931Y151220D01*
X659971Y151210D01*
X660007Y151193D01*
X660124Y151171D01*
X660239Y151141D01*
X660300Y151137D01*
X660320Y151133D01*
X660340Y151135D01*
X660400Y151131D01*
X735331Y151131D01*
X735331Y147580D01*
X735346Y147462D01*
X735353Y147343D01*
X735366Y147305D01*
X735371Y147264D01*
X735414Y147154D01*
X735451Y147041D01*
X735473Y147006D01*
X735488Y146969D01*
X735558Y146873D01*
X735621Y146772D01*
X735651Y146744D01*
X735674Y146711D01*
X735766Y146635D01*
X735853Y146554D01*
X735888Y146534D01*
X735919Y146509D01*
X736027Y146458D01*
X736131Y146400D01*
X736171Y146390D01*
X736207Y146373D01*
X736324Y146351D01*
X736439Y146321D01*
X736500Y146317D01*
X736520Y146313D01*
X736540Y146315D01*
X736600Y146311D01*
X758190Y146311D01*
X758308Y146326D01*
G37*
G36*
X57560Y2544D02*
X57560Y2544D01*
X57590Y2542D01*
X57718Y2564D01*
X57847Y2581D01*
X57874Y2591D01*
X57903Y2596D01*
X58022Y2650D01*
X58142Y2698D01*
X58166Y2715D01*
X58193Y2727D01*
X58295Y2808D01*
X58400Y2884D01*
X58419Y2907D01*
X58442Y2926D01*
X58520Y3029D01*
X58603Y3129D01*
X58615Y3156D01*
X58633Y3180D01*
X58704Y3324D01*
X60388Y7390D01*
X63860Y10862D01*
X68395Y12741D01*
X73305Y12741D01*
X77840Y10862D01*
X78356Y10346D01*
X78449Y10274D01*
X78537Y10196D01*
X78575Y10177D01*
X78608Y10151D01*
X78716Y10104D01*
X78820Y10051D01*
X78861Y10041D01*
X78899Y10025D01*
X79016Y10006D01*
X79131Y9980D01*
X79172Y9982D01*
X79213Y9975D01*
X79331Y9986D01*
X79449Y9989D01*
X79489Y10001D01*
X79530Y10005D01*
X79641Y10045D01*
X79754Y10077D01*
X79810Y10105D01*
X79829Y10112D01*
X79846Y10124D01*
X79898Y10150D01*
X103939Y24306D01*
X104051Y24392D01*
X104164Y24474D01*
X104176Y24489D01*
X104191Y24501D01*
X104277Y24611D01*
X104367Y24719D01*
X104375Y24737D01*
X104387Y24752D01*
X104443Y24880D01*
X104502Y25007D01*
X104506Y25026D01*
X104513Y25043D01*
X104536Y25182D01*
X104562Y25320D01*
X104561Y25338D01*
X104564Y25357D01*
X104551Y25497D01*
X104542Y25637D01*
X104537Y25655D01*
X104535Y25674D01*
X104488Y25806D01*
X104444Y25939D01*
X104434Y25955D01*
X104428Y25973D01*
X104349Y26089D01*
X104274Y26208D01*
X104260Y26221D01*
X104250Y26237D01*
X104145Y26330D01*
X104043Y26426D01*
X104026Y26435D01*
X104012Y26448D01*
X103887Y26512D01*
X103764Y26580D01*
X103746Y26584D01*
X103729Y26593D01*
X103592Y26624D01*
X103456Y26659D01*
X103430Y26661D01*
X103419Y26663D01*
X103399Y26663D01*
X103295Y26669D01*
X77469Y26669D01*
X77469Y37885D01*
X77463Y37934D01*
X77465Y37984D01*
X77443Y38091D01*
X77429Y38200D01*
X77411Y38246D01*
X77401Y38295D01*
X77353Y38394D01*
X77312Y38496D01*
X77283Y38536D01*
X77261Y38581D01*
X77190Y38664D01*
X77126Y38753D01*
X77087Y38785D01*
X77055Y38823D01*
X76965Y38886D01*
X76881Y38956D01*
X76836Y38977D01*
X76795Y39006D01*
X76692Y39045D01*
X76593Y39092D01*
X76544Y39101D01*
X76498Y39119D01*
X76388Y39131D01*
X76281Y39151D01*
X76231Y39148D01*
X76182Y39154D01*
X76073Y39138D01*
X75963Y39132D01*
X75916Y39116D01*
X75867Y39109D01*
X75714Y39057D01*
X73305Y38059D01*
X68395Y38059D01*
X63860Y39938D01*
X63530Y40267D01*
X63452Y40328D01*
X63380Y40396D01*
X63327Y40425D01*
X63279Y40462D01*
X63188Y40502D01*
X63101Y40550D01*
X63043Y40565D01*
X62987Y40589D01*
X62889Y40604D01*
X62793Y40629D01*
X62693Y40635D01*
X62673Y40639D01*
X62661Y40637D01*
X62633Y40639D01*
X40639Y40639D01*
X40639Y62736D01*
X42255Y62554D01*
X44967Y61935D01*
X47592Y61017D01*
X50099Y59810D01*
X52454Y58330D01*
X54629Y56595D01*
X56595Y54629D01*
X56997Y54125D01*
X57084Y54041D01*
X57165Y53952D01*
X57197Y53930D01*
X57225Y53903D01*
X57329Y53843D01*
X57430Y53777D01*
X57467Y53764D01*
X57501Y53745D01*
X57617Y53713D01*
X57731Y53674D01*
X57770Y53671D01*
X57807Y53660D01*
X57928Y53658D01*
X58048Y53648D01*
X58086Y53655D01*
X58125Y53654D01*
X58243Y53682D01*
X58361Y53703D01*
X58397Y53719D01*
X58435Y53728D01*
X58542Y53784D01*
X58651Y53833D01*
X58682Y53858D01*
X58716Y53876D01*
X58806Y53957D01*
X58900Y54032D01*
X58923Y54063D01*
X58952Y54089D01*
X59018Y54190D01*
X59091Y54286D01*
X59116Y54338D01*
X59127Y54354D01*
X59134Y54374D01*
X59162Y54431D01*
X60388Y57390D01*
X63860Y60862D01*
X68395Y62741D01*
X73305Y62741D01*
X75714Y61743D01*
X75762Y61730D01*
X75807Y61708D01*
X75915Y61688D01*
X76021Y61659D01*
X76071Y61658D01*
X76120Y61649D01*
X76229Y61655D01*
X76339Y61654D01*
X76387Y61665D01*
X76437Y61668D01*
X76541Y61702D01*
X76648Y61728D01*
X76692Y61751D01*
X76739Y61766D01*
X76832Y61825D01*
X76929Y61877D01*
X76966Y61910D01*
X77008Y61937D01*
X77083Y62017D01*
X77165Y62090D01*
X77192Y62132D01*
X77226Y62168D01*
X77279Y62264D01*
X77339Y62356D01*
X77356Y62403D01*
X77380Y62447D01*
X77407Y62553D01*
X77443Y62657D01*
X77447Y62707D01*
X77459Y62755D01*
X77469Y62915D01*
X77469Y76200D01*
X77454Y76318D01*
X77447Y76437D01*
X77434Y76475D01*
X77429Y76516D01*
X77386Y76626D01*
X77349Y76739D01*
X77327Y76774D01*
X77312Y76811D01*
X77243Y76907D01*
X77179Y77008D01*
X77149Y77036D01*
X77126Y77069D01*
X77034Y77145D01*
X76947Y77226D01*
X76912Y77246D01*
X76881Y77271D01*
X76773Y77322D01*
X76669Y77380D01*
X76629Y77390D01*
X76593Y77407D01*
X76476Y77429D01*
X76361Y77459D01*
X76301Y77463D01*
X76281Y77467D01*
X76260Y77465D01*
X76200Y77469D01*
X35560Y77469D01*
X35442Y77454D01*
X35323Y77447D01*
X35285Y77434D01*
X35244Y77429D01*
X35134Y77386D01*
X35021Y77349D01*
X34986Y77327D01*
X34949Y77312D01*
X34853Y77243D01*
X34752Y77179D01*
X34724Y77149D01*
X34691Y77126D01*
X34615Y77034D01*
X34534Y76947D01*
X34514Y76912D01*
X34489Y76881D01*
X34438Y76773D01*
X34380Y76669D01*
X34370Y76629D01*
X34353Y76593D01*
X34331Y76476D01*
X34301Y76361D01*
X34297Y76301D01*
X34293Y76281D01*
X34295Y76260D01*
X34291Y76200D01*
X34291Y64014D01*
X34295Y63983D01*
X34292Y63952D01*
X34315Y63825D01*
X34331Y63698D01*
X34342Y63669D01*
X34347Y63638D01*
X34400Y63521D01*
X34448Y63402D01*
X34466Y63377D01*
X34479Y63349D01*
X34559Y63249D01*
X34634Y63145D01*
X34658Y63125D01*
X34678Y63101D01*
X34780Y63024D01*
X34879Y62942D01*
X34908Y62929D01*
X34932Y62910D01*
X35051Y62861D01*
X35167Y62807D01*
X35198Y62801D01*
X35226Y62789D01*
X35354Y62771D01*
X35479Y62747D01*
X35510Y62749D01*
X35541Y62744D01*
X35561Y62745D01*
X35561Y40639D01*
X12960Y40639D01*
X12942Y40654D01*
X12880Y40718D01*
X12820Y40756D01*
X12765Y40801D01*
X12685Y40839D01*
X12609Y40885D01*
X12542Y40906D01*
X12477Y40937D01*
X12390Y40953D01*
X12306Y40980D01*
X12235Y40983D01*
X12165Y40997D01*
X12077Y40991D01*
X11988Y40996D01*
X11919Y40981D01*
X11848Y40977D01*
X11692Y40937D01*
X10775Y40639D01*
X3810Y40639D01*
X3692Y40624D01*
X3573Y40617D01*
X3535Y40604D01*
X3494Y40599D01*
X3384Y40556D01*
X3271Y40519D01*
X3236Y40497D01*
X3199Y40482D01*
X3103Y40413D01*
X3002Y40349D01*
X2974Y40319D01*
X2941Y40296D01*
X2865Y40204D01*
X2784Y40117D01*
X2764Y40082D01*
X2739Y40051D01*
X2688Y39943D01*
X2630Y39839D01*
X2620Y39799D01*
X2603Y39763D01*
X2581Y39646D01*
X2551Y39531D01*
X2547Y39471D01*
X2543Y39451D01*
X2544Y39435D01*
X2543Y39429D01*
X2544Y39420D01*
X2541Y39370D01*
X2541Y3810D01*
X2556Y3692D01*
X2563Y3573D01*
X2576Y3535D01*
X2581Y3494D01*
X2624Y3384D01*
X2661Y3271D01*
X2683Y3236D01*
X2698Y3199D01*
X2767Y3103D01*
X2831Y3002D01*
X2861Y2974D01*
X2884Y2941D01*
X2976Y2865D01*
X3063Y2784D01*
X3098Y2764D01*
X3129Y2739D01*
X3237Y2688D01*
X3341Y2630D01*
X3381Y2620D01*
X3417Y2603D01*
X3534Y2581D01*
X3649Y2551D01*
X3709Y2547D01*
X3729Y2543D01*
X3750Y2545D01*
X3810Y2541D01*
X57531Y2541D01*
X57560Y2544D01*
G37*
G36*
X758308Y283226D02*
X758308Y283226D01*
X758427Y283233D01*
X758465Y283246D01*
X758506Y283251D01*
X758616Y283294D01*
X758729Y283331D01*
X758764Y283353D01*
X758801Y283368D01*
X758897Y283437D01*
X758998Y283501D01*
X759026Y283531D01*
X759059Y283554D01*
X759135Y283646D01*
X759216Y283733D01*
X759236Y283768D01*
X759261Y283799D01*
X759312Y283907D01*
X759370Y284011D01*
X759380Y284051D01*
X759397Y284087D01*
X759419Y284204D01*
X759449Y284319D01*
X759453Y284379D01*
X759457Y284399D01*
X759455Y284420D01*
X759459Y284480D01*
X759459Y285018D01*
X759447Y285116D01*
X759444Y285215D01*
X759427Y285273D01*
X759419Y285333D01*
X759383Y285426D01*
X759355Y285521D01*
X759325Y285573D01*
X759302Y285629D01*
X759244Y285709D01*
X759194Y285795D01*
X759128Y285870D01*
X759116Y285886D01*
X759106Y285894D01*
X759090Y285912D01*
X757427Y289927D01*
X757427Y294273D01*
X759091Y298289D01*
X759148Y298363D01*
X759216Y298435D01*
X759245Y298488D01*
X759282Y298536D01*
X759322Y298627D01*
X759370Y298713D01*
X759385Y298772D01*
X759409Y298828D01*
X759424Y298926D01*
X759449Y299021D01*
X759455Y299121D01*
X759459Y299142D01*
X759457Y299154D01*
X759459Y299182D01*
X759459Y310418D01*
X759447Y310516D01*
X759444Y310615D01*
X759427Y310673D01*
X759419Y310733D01*
X759383Y310826D01*
X759355Y310921D01*
X759325Y310973D01*
X759302Y311029D01*
X759244Y311109D01*
X759194Y311195D01*
X759128Y311270D01*
X759116Y311286D01*
X759106Y311294D01*
X759090Y311312D01*
X757427Y315327D01*
X757427Y319673D01*
X759091Y323689D01*
X759148Y323763D01*
X759216Y323835D01*
X759245Y323888D01*
X759282Y323936D01*
X759322Y324027D01*
X759370Y324113D01*
X759385Y324172D01*
X759409Y324228D01*
X759424Y324326D01*
X759449Y324421D01*
X759455Y324521D01*
X759459Y324542D01*
X759457Y324554D01*
X759459Y324582D01*
X759459Y325120D01*
X759444Y325238D01*
X759437Y325357D01*
X759424Y325395D01*
X759419Y325436D01*
X759376Y325546D01*
X759339Y325659D01*
X759317Y325694D01*
X759302Y325731D01*
X759233Y325827D01*
X759169Y325928D01*
X759139Y325956D01*
X759116Y325989D01*
X759024Y326065D01*
X758937Y326146D01*
X758902Y326166D01*
X758871Y326191D01*
X758763Y326242D01*
X758659Y326300D01*
X758619Y326310D01*
X758583Y326327D01*
X758466Y326349D01*
X758351Y326379D01*
X758291Y326383D01*
X758271Y326387D01*
X758250Y326385D01*
X758190Y326389D01*
X708748Y326389D01*
X708735Y326388D01*
X708704Y326389D01*
X676310Y325272D01*
X676194Y325253D01*
X676078Y325242D01*
X676038Y325228D01*
X675996Y325221D01*
X675889Y325174D01*
X675778Y325134D01*
X675743Y325111D01*
X675705Y325094D01*
X675612Y325022D01*
X675515Y324956D01*
X675487Y324924D01*
X675454Y324898D01*
X675382Y324805D01*
X675305Y324717D01*
X675286Y324680D01*
X675260Y324646D01*
X675213Y324539D01*
X675160Y324434D01*
X675151Y324393D01*
X675134Y324354D01*
X675116Y324238D01*
X675090Y324124D01*
X675092Y324082D01*
X675085Y324040D01*
X675097Y323923D01*
X675100Y323806D01*
X675112Y323765D01*
X675116Y323723D01*
X675156Y323613D01*
X675189Y323500D01*
X675210Y323464D01*
X675224Y323424D01*
X675290Y323328D01*
X675350Y323226D01*
X675392Y323179D01*
X675404Y323162D01*
X675419Y323149D01*
X675456Y323106D01*
X676145Y322417D01*
X677632Y320478D01*
X678854Y318362D01*
X679789Y316105D01*
X680422Y313744D01*
X680567Y312639D01*
X663370Y312639D01*
X663252Y312624D01*
X663133Y312617D01*
X663095Y312604D01*
X663055Y312599D01*
X662944Y312556D01*
X662831Y312519D01*
X662797Y312497D01*
X662759Y312482D01*
X662663Y312412D01*
X662562Y312349D01*
X662534Y312319D01*
X662502Y312295D01*
X662426Y312204D01*
X662344Y312117D01*
X662325Y312082D01*
X662299Y312051D01*
X662248Y311943D01*
X662191Y311839D01*
X662180Y311799D01*
X662163Y311763D01*
X662141Y311646D01*
X662111Y311531D01*
X662107Y311470D01*
X662103Y311450D01*
X662105Y311430D01*
X662101Y311370D01*
X662101Y308830D01*
X662116Y308712D01*
X662123Y308593D01*
X662136Y308555D01*
X662141Y308514D01*
X662185Y308404D01*
X662221Y308291D01*
X662243Y308256D01*
X662258Y308219D01*
X662328Y308123D01*
X662391Y308022D01*
X662421Y307994D01*
X662445Y307961D01*
X662536Y307886D01*
X662623Y307804D01*
X662658Y307784D01*
X662690Y307759D01*
X662797Y307708D01*
X662902Y307650D01*
X662941Y307640D01*
X662977Y307623D01*
X663094Y307601D01*
X663209Y307571D01*
X663270Y307567D01*
X663290Y307563D01*
X663310Y307565D01*
X663370Y307561D01*
X680567Y307561D01*
X680422Y306455D01*
X680066Y305129D01*
X680049Y305004D01*
X680026Y304881D01*
X680028Y304847D01*
X680023Y304813D01*
X680037Y304688D01*
X680045Y304563D01*
X680056Y304531D01*
X680060Y304498D01*
X680105Y304380D01*
X680143Y304261D01*
X680161Y304232D01*
X680173Y304201D01*
X680246Y304098D01*
X680313Y303992D01*
X680338Y303969D01*
X680358Y303941D01*
X680453Y303860D01*
X680545Y303774D01*
X680575Y303758D01*
X680600Y303736D01*
X680714Y303681D01*
X680824Y303620D01*
X680856Y303612D01*
X680887Y303597D01*
X681010Y303572D01*
X681132Y303541D01*
X681180Y303538D01*
X681198Y303534D01*
X681220Y303535D01*
X681292Y303531D01*
X735331Y303531D01*
X735331Y284480D01*
X735346Y284362D01*
X735353Y284243D01*
X735366Y284205D01*
X735371Y284164D01*
X735414Y284054D01*
X735451Y283941D01*
X735473Y283906D01*
X735488Y283869D01*
X735558Y283773D01*
X735621Y283672D01*
X735651Y283644D01*
X735674Y283611D01*
X735766Y283535D01*
X735853Y283454D01*
X735888Y283434D01*
X735919Y283409D01*
X736027Y283358D01*
X736131Y283300D01*
X736171Y283290D01*
X736207Y283273D01*
X736324Y283251D01*
X736439Y283221D01*
X736500Y283217D01*
X736520Y283213D01*
X736540Y283215D01*
X736600Y283211D01*
X758190Y283211D01*
X758308Y283226D01*
G37*
G36*
X701655Y104154D02*
X701655Y104154D01*
X701761Y104158D01*
X701813Y104174D01*
X701866Y104181D01*
X701964Y104219D01*
X702065Y104250D01*
X702112Y104278D01*
X702162Y104298D01*
X702247Y104360D01*
X702338Y104414D01*
X702375Y104453D01*
X702419Y104484D01*
X702486Y104566D01*
X702560Y104641D01*
X702608Y104713D01*
X702622Y104729D01*
X702628Y104744D01*
X702650Y104775D01*
X702817Y105065D01*
X703290Y105538D01*
X703869Y105873D01*
X704516Y106046D01*
X708661Y106046D01*
X708661Y105410D01*
X708676Y105292D01*
X708683Y105173D01*
X708696Y105135D01*
X708701Y105094D01*
X708744Y104984D01*
X708781Y104871D01*
X708803Y104836D01*
X708818Y104799D01*
X708888Y104703D01*
X708951Y104602D01*
X708981Y104574D01*
X709005Y104541D01*
X709096Y104465D01*
X709183Y104384D01*
X709218Y104364D01*
X709249Y104339D01*
X709357Y104288D01*
X709461Y104230D01*
X709501Y104220D01*
X709537Y104203D01*
X709654Y104181D01*
X709769Y104151D01*
X709830Y104147D01*
X709850Y104143D01*
X709870Y104145D01*
X709930Y104141D01*
X712470Y104141D01*
X712588Y104156D01*
X712707Y104163D01*
X712745Y104176D01*
X712785Y104181D01*
X712896Y104224D01*
X713009Y104261D01*
X713044Y104283D01*
X713081Y104298D01*
X713177Y104367D01*
X713278Y104431D01*
X713306Y104461D01*
X713338Y104484D01*
X713414Y104576D01*
X713496Y104663D01*
X713515Y104698D01*
X713541Y104729D01*
X713592Y104837D01*
X713649Y104941D01*
X713660Y104981D01*
X713677Y105017D01*
X713699Y105134D01*
X713729Y105249D01*
X713733Y105309D01*
X713737Y105329D01*
X713735Y105350D01*
X713739Y105410D01*
X713739Y106046D01*
X717884Y106046D01*
X718531Y105873D01*
X719110Y105538D01*
X719583Y105065D01*
X719750Y104775D01*
X719814Y104691D01*
X719871Y104602D01*
X719910Y104565D01*
X719943Y104522D01*
X720025Y104456D01*
X720102Y104384D01*
X720150Y104358D01*
X720192Y104324D01*
X720288Y104281D01*
X720381Y104230D01*
X720433Y104217D01*
X720482Y104195D01*
X720587Y104177D01*
X720689Y104151D01*
X720774Y104146D01*
X720796Y104142D01*
X720811Y104143D01*
X720850Y104141D01*
X728980Y104141D01*
X729098Y104156D01*
X729217Y104163D01*
X729255Y104176D01*
X729296Y104181D01*
X729406Y104224D01*
X729519Y104261D01*
X729554Y104283D01*
X729591Y104298D01*
X729687Y104367D01*
X729788Y104431D01*
X729816Y104461D01*
X729849Y104484D01*
X729925Y104576D01*
X730006Y104663D01*
X730026Y104698D01*
X730051Y104729D01*
X730102Y104837D01*
X730160Y104941D01*
X730170Y104981D01*
X730187Y105017D01*
X730209Y105134D01*
X730239Y105249D01*
X730243Y105309D01*
X730247Y105329D01*
X730245Y105350D01*
X730249Y105410D01*
X730249Y116840D01*
X730234Y116958D01*
X730227Y117077D01*
X730214Y117115D01*
X730209Y117156D01*
X730166Y117266D01*
X730129Y117379D01*
X730107Y117414D01*
X730092Y117451D01*
X730023Y117547D01*
X729959Y117648D01*
X729929Y117676D01*
X729906Y117709D01*
X729814Y117785D01*
X729727Y117866D01*
X729692Y117886D01*
X729661Y117911D01*
X729553Y117962D01*
X729449Y118020D01*
X729409Y118030D01*
X729373Y118047D01*
X729256Y118069D01*
X729141Y118099D01*
X729081Y118103D01*
X729061Y118107D01*
X729040Y118105D01*
X728980Y118109D01*
X689602Y118109D01*
X689529Y118100D01*
X689457Y118101D01*
X689298Y118072D01*
X685496Y117136D01*
X685380Y117091D01*
X685261Y117052D01*
X685232Y117034D01*
X685199Y117021D01*
X685098Y116949D01*
X684992Y116882D01*
X684968Y116857D01*
X684940Y116837D01*
X684860Y116742D01*
X684774Y116650D01*
X684757Y116620D01*
X684735Y116594D01*
X684681Y116481D01*
X684620Y116372D01*
X684612Y116339D01*
X684597Y116308D01*
X684572Y116185D01*
X684541Y116064D01*
X684538Y116014D01*
X684534Y115996D01*
X684535Y115974D01*
X684531Y115903D01*
X684531Y105410D01*
X684546Y105292D01*
X684553Y105173D01*
X684566Y105135D01*
X684571Y105094D01*
X684614Y104984D01*
X684651Y104871D01*
X684673Y104836D01*
X684688Y104799D01*
X684758Y104703D01*
X684821Y104602D01*
X684851Y104574D01*
X684874Y104541D01*
X684966Y104465D01*
X685053Y104384D01*
X685088Y104364D01*
X685119Y104339D01*
X685227Y104288D01*
X685331Y104230D01*
X685370Y104220D01*
X685407Y104203D01*
X685524Y104181D01*
X685639Y104151D01*
X685699Y104147D01*
X685720Y104143D01*
X685740Y104145D01*
X685800Y104141D01*
X701550Y104141D01*
X701655Y104154D01*
G37*
%LPC*%
G36*
X40639Y472439D02*
X40639Y472439D01*
X40639Y494536D01*
X42255Y494354D01*
X44967Y493735D01*
X47592Y492817D01*
X50099Y491610D01*
X52454Y490130D01*
X54629Y488395D01*
X56595Y486429D01*
X58330Y484254D01*
X59810Y481899D01*
X61017Y479392D01*
X61935Y476767D01*
X62554Y474055D01*
X62736Y472439D01*
X40639Y472439D01*
G37*
%LPD*%
%LPC*%
G36*
X726439Y472439D02*
X726439Y472439D01*
X726439Y494536D01*
X728055Y494354D01*
X730767Y493735D01*
X733392Y492817D01*
X735899Y491610D01*
X738254Y490130D01*
X740429Y488395D01*
X742395Y486429D01*
X744130Y484254D01*
X745610Y481899D01*
X746817Y479392D01*
X747735Y476767D01*
X748354Y474055D01*
X748536Y472439D01*
X726439Y472439D01*
G37*
%LPD*%
%LPC*%
G36*
X40639Y35561D02*
X40639Y35561D01*
X62736Y35561D01*
X62554Y33945D01*
X61935Y31233D01*
X61017Y28608D01*
X59810Y26101D01*
X58330Y23746D01*
X56595Y21571D01*
X54629Y19605D01*
X52454Y17870D01*
X50099Y16390D01*
X47592Y15183D01*
X44967Y14265D01*
X42255Y13646D01*
X40639Y13464D01*
X40639Y35561D01*
G37*
%LPD*%
%LPC*%
G36*
X699264Y472439D02*
X699264Y472439D01*
X699446Y474055D01*
X700065Y476767D01*
X700983Y479392D01*
X702190Y481899D01*
X703670Y484254D01*
X705405Y486429D01*
X707371Y488395D01*
X709546Y490130D01*
X711901Y491610D01*
X714408Y492817D01*
X717033Y493735D01*
X719745Y494354D01*
X721361Y494536D01*
X721361Y472439D01*
X699264Y472439D01*
G37*
%LPD*%
%LPC*%
G36*
X726439Y35561D02*
X726439Y35561D01*
X748536Y35561D01*
X748354Y33945D01*
X747735Y31233D01*
X746817Y28608D01*
X745610Y26101D01*
X744130Y23746D01*
X742395Y21571D01*
X740429Y19605D01*
X738254Y17870D01*
X735899Y16390D01*
X733392Y15183D01*
X730767Y14265D01*
X728055Y13646D01*
X726439Y13464D01*
X726439Y35561D01*
G37*
%LPD*%
%LPC*%
G36*
X726439Y467361D02*
X726439Y467361D01*
X748536Y467361D01*
X748354Y465745D01*
X747735Y463033D01*
X746817Y460408D01*
X745610Y457901D01*
X744130Y455546D01*
X742395Y453371D01*
X740429Y451405D01*
X738254Y449670D01*
X735899Y448190D01*
X733392Y446983D01*
X730767Y446065D01*
X728055Y445446D01*
X726439Y445264D01*
X726439Y467361D01*
G37*
%LPD*%
%LPC*%
G36*
X40639Y467361D02*
X40639Y467361D01*
X62736Y467361D01*
X62554Y465745D01*
X61935Y463033D01*
X61017Y460408D01*
X59810Y457901D01*
X58330Y455546D01*
X56595Y453371D01*
X54629Y451405D01*
X52454Y449670D01*
X50099Y448190D01*
X47592Y446983D01*
X44967Y446065D01*
X42255Y445446D01*
X40639Y445264D01*
X40639Y467361D01*
G37*
%LPD*%
%LPC*%
G36*
X719745Y445446D02*
X719745Y445446D01*
X717033Y446065D01*
X714408Y446983D01*
X711901Y448190D01*
X709546Y449670D01*
X707371Y451405D01*
X705405Y453371D01*
X703670Y455546D01*
X702190Y457901D01*
X700983Y460408D01*
X700065Y463033D01*
X699446Y465745D01*
X699264Y467361D01*
X721361Y467361D01*
X721361Y445264D01*
X719745Y445446D01*
G37*
%LPD*%
%LPC*%
G36*
X719745Y13646D02*
X719745Y13646D01*
X717033Y14265D01*
X714408Y15183D01*
X711901Y16390D01*
X709546Y17870D01*
X707371Y19605D01*
X705405Y21571D01*
X703670Y23746D01*
X702190Y26101D01*
X700983Y28608D01*
X700065Y31233D01*
X699446Y33945D01*
X699264Y35561D01*
X721361Y35561D01*
X721361Y13464D01*
X719745Y13646D01*
G37*
%LPD*%
%LPC*%
G36*
X33945Y13646D02*
X33945Y13646D01*
X31233Y14265D01*
X28608Y15183D01*
X26101Y16390D01*
X23746Y17870D01*
X21571Y19605D01*
X19605Y21571D01*
X17870Y23746D01*
X16390Y26101D01*
X15183Y28608D01*
X14265Y31233D01*
X13646Y33945D01*
X13464Y35561D01*
X35561Y35561D01*
X35561Y13464D01*
X33945Y13646D01*
G37*
%LPD*%
%LPC*%
G36*
X664639Y181239D02*
X664639Y181239D01*
X664639Y197167D01*
X665745Y197022D01*
X668105Y196389D01*
X670362Y195454D01*
X672478Y194232D01*
X674417Y192745D01*
X676145Y191017D01*
X677632Y189078D01*
X678854Y186962D01*
X679789Y184705D01*
X680422Y182345D01*
X680567Y181239D01*
X664639Y181239D01*
G37*
%LPD*%
%LPC*%
G36*
X664639Y176161D02*
X664639Y176161D01*
X680567Y176161D01*
X680422Y175055D01*
X679789Y172695D01*
X678854Y170438D01*
X677632Y168322D01*
X676145Y166383D01*
X674417Y164655D01*
X672478Y163168D01*
X670362Y161946D01*
X668105Y161011D01*
X665745Y160378D01*
X664639Y160233D01*
X664639Y176161D01*
G37*
%LPD*%
G36*
X701040Y95251D02*
X701040Y95251D01*
X709930Y95251D01*
X710048Y95266D01*
X710167Y95273D01*
X710205Y95286D01*
X710245Y95291D01*
X710356Y95334D01*
X710469Y95371D01*
X710504Y95393D01*
X710541Y95408D01*
X710637Y95478D01*
X710738Y95541D01*
X710766Y95571D01*
X710798Y95595D01*
X710874Y95686D01*
X710956Y95773D01*
X710975Y95808D01*
X711001Y95839D01*
X711052Y95947D01*
X711109Y96051D01*
X711120Y96091D01*
X711137Y96127D01*
X711159Y96244D01*
X711189Y96359D01*
X711193Y96420D01*
X711197Y96440D01*
X711195Y96460D01*
X711199Y96520D01*
X711199Y97790D01*
X711184Y97908D01*
X711177Y98027D01*
X711164Y98065D01*
X711159Y98106D01*
X711115Y98216D01*
X711079Y98329D01*
X711057Y98364D01*
X711042Y98401D01*
X710972Y98497D01*
X710909Y98598D01*
X710879Y98626D01*
X710855Y98659D01*
X710764Y98735D01*
X710677Y98816D01*
X710642Y98836D01*
X710610Y98861D01*
X710503Y98912D01*
X710399Y98970D01*
X710359Y98980D01*
X710323Y98997D01*
X710206Y99019D01*
X710091Y99049D01*
X710030Y99053D01*
X710010Y99057D01*
X709990Y99055D01*
X709930Y99059D01*
X685800Y99059D01*
X685682Y99044D01*
X685563Y99037D01*
X685525Y99024D01*
X685484Y99019D01*
X685374Y98976D01*
X685261Y98939D01*
X685226Y98917D01*
X685189Y98902D01*
X685093Y98833D01*
X684992Y98769D01*
X684964Y98739D01*
X684931Y98716D01*
X684856Y98624D01*
X684774Y98537D01*
X684754Y98502D01*
X684729Y98471D01*
X684678Y98363D01*
X684620Y98259D01*
X684610Y98219D01*
X684593Y98183D01*
X684571Y98066D01*
X684541Y97951D01*
X684537Y97891D01*
X684533Y97871D01*
X684533Y97870D01*
X684535Y97850D01*
X684531Y97790D01*
X684531Y96520D01*
X684546Y96402D01*
X684553Y96283D01*
X684566Y96245D01*
X684571Y96204D01*
X684614Y96094D01*
X684651Y95981D01*
X684673Y95946D01*
X684688Y95909D01*
X684758Y95813D01*
X684821Y95712D01*
X684851Y95684D01*
X684874Y95651D01*
X684966Y95576D01*
X685053Y95494D01*
X685088Y95474D01*
X685119Y95449D01*
X685227Y95398D01*
X685331Y95340D01*
X685371Y95330D01*
X685407Y95313D01*
X685524Y95291D01*
X685639Y95261D01*
X685700Y95257D01*
X685720Y95253D01*
X685740Y95255D01*
X685800Y95251D01*
X701040Y95251D01*
X701040Y95251D01*
G37*
G36*
X729098Y95266D02*
X729098Y95266D01*
X729217Y95273D01*
X729255Y95286D01*
X729296Y95291D01*
X729406Y95334D01*
X729519Y95371D01*
X729554Y95393D01*
X729591Y95408D01*
X729687Y95478D01*
X729788Y95541D01*
X729816Y95571D01*
X729849Y95594D01*
X729925Y95686D01*
X730006Y95773D01*
X730026Y95808D01*
X730051Y95839D01*
X730102Y95947D01*
X730160Y96051D01*
X730170Y96091D01*
X730187Y96127D01*
X730209Y96244D01*
X730239Y96359D01*
X730243Y96420D01*
X730247Y96440D01*
X730245Y96460D01*
X730249Y96520D01*
X730249Y97790D01*
X730234Y97908D01*
X730227Y98027D01*
X730214Y98065D01*
X730209Y98106D01*
X730166Y98216D01*
X730129Y98329D01*
X730107Y98364D01*
X730092Y98401D01*
X730023Y98497D01*
X729959Y98598D01*
X729929Y98626D01*
X729906Y98659D01*
X729814Y98735D01*
X729727Y98816D01*
X729692Y98836D01*
X729661Y98861D01*
X729553Y98912D01*
X729449Y98970D01*
X729409Y98980D01*
X729373Y98997D01*
X729256Y99019D01*
X729141Y99049D01*
X729081Y99053D01*
X729061Y99057D01*
X729040Y99055D01*
X728980Y99059D01*
X712470Y99059D01*
X712352Y99044D01*
X712233Y99037D01*
X712195Y99024D01*
X712155Y99019D01*
X712044Y98976D01*
X711931Y98939D01*
X711896Y98917D01*
X711859Y98902D01*
X711763Y98833D01*
X711662Y98769D01*
X711634Y98739D01*
X711602Y98716D01*
X711526Y98624D01*
X711444Y98537D01*
X711425Y98502D01*
X711399Y98471D01*
X711348Y98363D01*
X711291Y98259D01*
X711280Y98219D01*
X711263Y98183D01*
X711241Y98066D01*
X711211Y97951D01*
X711207Y97891D01*
X711203Y97871D01*
X711203Y97870D01*
X711205Y97850D01*
X711201Y97790D01*
X711201Y96520D01*
X711216Y96402D01*
X711223Y96283D01*
X711236Y96245D01*
X711241Y96205D01*
X711285Y96094D01*
X711321Y95981D01*
X711343Y95946D01*
X711358Y95909D01*
X711428Y95813D01*
X711491Y95712D01*
X711521Y95684D01*
X711545Y95651D01*
X711636Y95576D01*
X711723Y95494D01*
X711758Y95474D01*
X711790Y95449D01*
X711897Y95398D01*
X712001Y95340D01*
X712041Y95330D01*
X712077Y95313D01*
X712194Y95291D01*
X712309Y95261D01*
X712370Y95257D01*
X712390Y95253D01*
X712410Y95255D01*
X712470Y95251D01*
X721359Y95251D01*
X721360Y95251D01*
X728980Y95251D01*
X729098Y95266D01*
G37*
%LPC*%
G36*
X713739Y71754D02*
X713739Y71754D01*
X713739Y77471D01*
X720091Y77471D01*
X720091Y73961D01*
X719918Y73314D01*
X719583Y72735D01*
X719110Y72262D01*
X718531Y71927D01*
X717884Y71754D01*
X713739Y71754D01*
G37*
%LPD*%
%LPC*%
G36*
X704516Y71754D02*
X704516Y71754D01*
X703869Y71927D01*
X703290Y72262D01*
X702817Y72735D01*
X702482Y73314D01*
X702309Y73961D01*
X702309Y77471D01*
X708661Y77471D01*
X708661Y71754D01*
X704516Y71754D01*
G37*
%LPD*%
%LPC*%
G36*
X38099Y38099D02*
X38099Y38099D01*
X38099Y38101D01*
X38101Y38101D01*
X38101Y38099D01*
X38099Y38099D01*
G37*
%LPD*%
%LPC*%
G36*
X723899Y469899D02*
X723899Y469899D01*
X723899Y469901D01*
X723901Y469901D01*
X723901Y469899D01*
X723899Y469899D01*
G37*
%LPD*%
%LPC*%
G36*
X723899Y38099D02*
X723899Y38099D01*
X723899Y38101D01*
X723901Y38101D01*
X723901Y38099D01*
X723899Y38099D01*
G37*
%LPD*%
D10*
X84500Y421900D03*
D11*
X84500Y396500D03*
X109900Y421900D03*
X109900Y396500D03*
X135300Y421900D03*
X135300Y396500D03*
X160700Y421900D03*
X160700Y396500D03*
X186100Y421900D03*
X186100Y396500D03*
X211500Y421900D03*
X211500Y396500D03*
X236900Y421900D03*
X236900Y396500D03*
X262300Y421900D03*
X262300Y396500D03*
X287700Y421900D03*
X287700Y396500D03*
X313100Y421900D03*
X313100Y396500D03*
X338500Y421900D03*
X338500Y396500D03*
X363900Y421900D03*
X363900Y396500D03*
X389300Y421900D03*
X389300Y396500D03*
X414700Y421900D03*
X414700Y396500D03*
X440100Y421900D03*
X440100Y396500D03*
X465500Y421900D03*
X465500Y396500D03*
X490900Y421900D03*
X490900Y396500D03*
X516300Y421900D03*
X516300Y396500D03*
D10*
X84500Y167900D03*
D11*
X84500Y142500D03*
X109900Y167900D03*
X109900Y142500D03*
X135300Y167900D03*
X135300Y142500D03*
X160700Y167900D03*
X160700Y142500D03*
X186100Y167900D03*
X186100Y142500D03*
X211500Y167900D03*
X211500Y142500D03*
X236900Y167900D03*
X236900Y142500D03*
X262300Y167900D03*
X262300Y142500D03*
X287700Y167900D03*
X287700Y142500D03*
X313100Y167900D03*
X313100Y142500D03*
X338500Y167900D03*
X338500Y142500D03*
X363900Y167900D03*
X363900Y142500D03*
X389300Y167900D03*
X389300Y142500D03*
X414700Y167900D03*
X414700Y142500D03*
X440100Y167900D03*
X440100Y142500D03*
X465500Y167900D03*
X465500Y142500D03*
X490900Y167900D03*
X490900Y142500D03*
X516300Y167900D03*
X516300Y142500D03*
D12*
X856100Y368300D03*
X871100Y368300D03*
D13*
X482200Y0D03*
X457200Y0D03*
X432200Y0D03*
D14*
X70850Y400D03*
X70850Y50400D03*
X195850Y50400D03*
X195850Y400D03*
D12*
X856100Y330200D03*
X871100Y330200D03*
D15*
X228600Y84201D03*
X228600Y68199D03*
D16*
X38100Y469900D03*
X38100Y38100D03*
X723900Y38100D03*
X723900Y469900D03*
D17*
X673100Y457200D03*
X673100Y50800D03*
X88900Y444500D03*
D18*
X711200Y80010D03*
X711200Y97790D03*
D19*
X635000Y279400D03*
D20*
X635000Y254400D03*
X635000Y234400D03*
X635000Y209400D03*
D21*
X662100Y310100D03*
X662100Y178700D03*
D22*
X6350Y114300D03*
D23*
X6350Y139700D03*
X6350Y165100D03*
X6350Y190500D03*
X6350Y215900D03*
X6350Y241300D03*
X6350Y266700D03*
X6350Y292100D03*
X6350Y317500D03*
X6350Y342900D03*
X6350Y368300D03*
X6350Y393700D03*
X6350Y419100D03*
X6350Y444500D03*
X6350Y469900D03*
X6350Y495300D03*
X6350Y520700D03*
X6350Y546100D03*
X6350Y571500D03*
X6350Y596900D03*
D22*
X768350Y114300D03*
D23*
X768350Y139700D03*
X768350Y165100D03*
X768350Y190500D03*
X768350Y215900D03*
X768350Y241300D03*
X768350Y266700D03*
X768350Y292100D03*
X768350Y317500D03*
X768350Y342900D03*
X768350Y368300D03*
X768350Y393700D03*
X768350Y419100D03*
X768350Y444500D03*
X768350Y469900D03*
X768350Y495300D03*
X768350Y520700D03*
X768350Y546100D03*
X768350Y571500D03*
X768350Y596900D03*
D24*
X768350Y69850D03*
X768350Y641350D03*
X6350Y69850D03*
X6350Y641350D03*
D12*
X881500Y127000D03*
X896500Y127000D03*
D13*
X329800Y0D03*
X304800Y0D03*
X279800Y0D03*
D14*
X566150Y400D03*
X566150Y50400D03*
X691150Y50400D03*
X691150Y400D03*
D25*
X347599Y63500D03*
X363601Y63500D03*
D26*
X843280Y279400D02*
X871100Y330200D01*
X843280Y279400D02*
X690880Y279400D01*
D27*
X690880Y279400D03*
D26*
X817880Y406400D02*
X871100Y368300D01*
X817880Y406400D02*
X690880Y406400D01*
D27*
X690880Y406400D03*
X693420Y111760D03*
X721360Y111760D03*
X609600Y469900D03*
X609600Y457200D03*
X609600Y444500D03*
X660400Y444500D03*
X660400Y469900D03*
X609600Y368300D03*
X660400Y368300D03*
X660400Y355600D03*
X660400Y342900D03*
X609600Y355600D03*
X609600Y342900D03*
D26*
X228600Y68199D02*
X228600Y55880D01*
D27*
X228600Y55880D03*
D26*
X287700Y222840D02*
X287700Y396500D01*
X287700Y222840D02*
X325120Y185420D01*
X447040Y25400D02*
X482200Y0D01*
X325120Y121920D02*
X325120Y185420D01*
X325120Y121920D02*
X447040Y25400D01*
X300660Y408940D02*
X287700Y421900D01*
X300660Y408940D02*
X320040Y408940D01*
X325120Y403860D01*
X432200Y0D02*
X612140Y-114300D01*
X325120Y223520D01*
X325120Y403860D01*
X401320Y408940D02*
X401320Y426720D01*
X401320Y408940D02*
X413760Y396500D01*
X414700Y396500D01*
X414020Y395820D01*
X387820Y397980D02*
X375920Y409880D01*
X388620Y397180D02*
X389300Y396500D01*
X375920Y409880D02*
X375920Y426720D01*
X387820Y397980D02*
X388620Y397180D01*
X228600Y84201D02*
X198901Y75800D01*
X70850Y400D01*
X195850Y400D01*
X84500Y142500D02*
X772500Y142500D01*
X195850Y400D01*
X313100Y421900D02*
X300660Y434340D01*
X279400Y434340D01*
X274320Y429260D01*
X274320Y416560D02*
X281940Y408940D01*
X293476Y408940D01*
X274320Y416560D02*
X274320Y429260D01*
X293476Y408940D02*
X299720Y402696D01*
X457200Y0D02*
X543560Y-50800D01*
X299720Y231140D01*
X299720Y402696D01*
X490900Y421900D02*
X505880Y436880D01*
X675640Y368300D02*
X856100Y368300D01*
X607060Y436880D02*
X505880Y436880D01*
X607060Y436880D02*
X675640Y368300D01*
X548380Y421900D02*
X516300Y421900D01*
X548380Y421900D02*
X635000Y398780D01*
X635000Y327660D01*
X708660Y330200D01*
X856100Y330200D01*
D27*
X551180Y256540D03*
D26*
X553720Y254000D01*
X634600Y254000D02*
X635000Y254400D01*
X634600Y254000D02*
X553720Y254000D01*
D27*
X551180Y246380D03*
D26*
X553720Y248920D01*
X620480Y248920D02*
X635000Y234400D01*
X620480Y248920D02*
X612140Y248920D01*
X609600Y246380D01*
X609600Y238760D01*
X607060Y236220D01*
X601980Y236220D01*
X599440Y238760D01*
X599440Y246380D02*
X596900Y248920D01*
X591820Y248920D01*
X589280Y246380D01*
X589280Y238760D01*
X586740Y236220D01*
X581660Y236220D01*
X579120Y238760D01*
X579120Y246380D01*
X576580Y248920D01*
X553720Y248920D01*
X599440Y246380D02*
X599440Y238760D01*
M02*
