G04 EAGLE Gerber RS-274X export*
G75*
%MOMM*%
%FSLAX34Y34*%
%LPD*%
%IN*%
%IPPOS*%
%AMOC8*
5,1,8,0,0,1.08239X$1,22.5*%
G01*
%ADD10C,0.254000*%


D10*
X-19050Y68580D02*
X-18953Y66366D01*
X-18664Y64169D01*
X-18185Y62006D01*
X-17518Y59893D01*
X-16670Y57846D01*
X-15647Y55880D01*
X-14456Y54011D01*
X-13108Y52253D01*
X-11611Y50620D01*
X-9977Y49122D01*
X-8219Y47774D01*
X-6350Y46583D01*
X-4385Y45560D01*
X-2337Y44712D01*
X-224Y44045D01*
X1939Y43566D01*
X4136Y43277D01*
X6350Y43180D01*
X8564Y43277D01*
X10761Y43566D01*
X12924Y44045D01*
X15037Y44712D01*
X17085Y45560D01*
X19050Y46583D01*
X20919Y47774D01*
X22677Y49122D01*
X24311Y50619D01*
X25808Y52253D01*
X27156Y54011D01*
X28347Y55880D01*
X29370Y57845D01*
X30218Y59893D01*
X30885Y62006D01*
X31364Y64169D01*
X31653Y66366D01*
X31750Y68580D01*
X31750Y101600D01*
X742950Y101600D01*
X742950Y68580D01*
X743047Y66366D01*
X743336Y64169D01*
X743815Y62006D01*
X744482Y59893D01*
X745330Y57846D01*
X746353Y55880D01*
X747544Y54011D01*
X748892Y52253D01*
X750390Y50620D01*
X752023Y49122D01*
X753781Y47774D01*
X755650Y46583D01*
X757616Y45560D01*
X759663Y44712D01*
X761776Y44045D01*
X763939Y43566D01*
X766136Y43277D01*
X768350Y43180D01*
X770564Y43277D01*
X772761Y43566D01*
X774924Y44045D01*
X777037Y44712D01*
X779085Y45560D01*
X781050Y46583D01*
X782919Y47774D01*
X784677Y49122D01*
X786311Y50620D01*
X787808Y52253D01*
X789156Y54011D01*
X790347Y55880D01*
X791370Y57846D01*
X792218Y59893D01*
X792885Y62006D01*
X793364Y64169D01*
X793653Y66366D01*
X793750Y68580D01*
X793750Y642620D01*
X793653Y644834D01*
X793364Y647031D01*
X792885Y649194D01*
X792218Y651307D01*
X791370Y653355D01*
X790347Y655320D01*
X789156Y657189D01*
X787808Y658947D01*
X786311Y660581D01*
X784677Y662078D01*
X782919Y663426D01*
X781050Y664617D01*
X779085Y665640D01*
X777037Y666488D01*
X774924Y667155D01*
X772761Y667634D01*
X770564Y667923D01*
X768350Y668020D01*
X766136Y667923D01*
X763939Y667634D01*
X761776Y667155D01*
X759663Y666488D01*
X757616Y665640D01*
X755650Y664617D01*
X753781Y663426D01*
X752023Y662078D01*
X750390Y660581D01*
X748892Y658947D01*
X747544Y657189D01*
X746353Y655320D01*
X745330Y653355D01*
X744482Y651307D01*
X743815Y649194D01*
X743336Y647031D01*
X743047Y644834D01*
X742950Y642620D01*
X742950Y609600D01*
X31750Y609600D01*
X31750Y642620D01*
X31653Y644834D01*
X31364Y647031D01*
X30885Y649194D01*
X30218Y651307D01*
X29370Y653354D01*
X28347Y655320D01*
X27156Y657189D01*
X25808Y658947D01*
X24311Y660581D01*
X22677Y662078D01*
X20919Y663426D01*
X19050Y664617D01*
X17085Y665640D01*
X15037Y666488D01*
X12924Y667155D01*
X10761Y667634D01*
X8564Y667923D01*
X6350Y668020D01*
X4136Y667923D01*
X1939Y667634D01*
X-224Y667155D01*
X-2337Y666488D01*
X-4385Y665640D01*
X-6350Y664617D01*
X-8219Y663426D01*
X-9977Y662078D01*
X-11611Y660581D01*
X-13108Y658947D01*
X-14456Y657189D01*
X-15647Y655320D01*
X-16670Y653355D01*
X-17518Y651307D01*
X-18185Y649194D01*
X-18664Y647031D01*
X-18953Y644834D01*
X-19050Y642620D01*
X-19050Y68580D01*
X494700Y-69509D02*
X494777Y-68530D01*
X494931Y-67560D01*
X495160Y-66604D01*
X495464Y-65670D01*
X495839Y-64763D01*
X496285Y-63888D01*
X496799Y-63050D01*
X497376Y-62255D01*
X498014Y-61508D01*
X498708Y-60814D01*
X499455Y-60176D01*
X500250Y-59599D01*
X501088Y-59085D01*
X501963Y-58639D01*
X502870Y-58264D01*
X503804Y-57960D01*
X504760Y-57731D01*
X505730Y-57577D01*
X506709Y-57500D01*
X507691Y-57500D01*
X508670Y-57577D01*
X509641Y-57731D01*
X510596Y-57960D01*
X511530Y-58264D01*
X512437Y-58639D01*
X513312Y-59085D01*
X514150Y-59599D01*
X514945Y-60176D01*
X515692Y-60814D01*
X516386Y-61508D01*
X517024Y-62255D01*
X517601Y-63050D01*
X518115Y-63888D01*
X518561Y-64763D01*
X518936Y-65670D01*
X519240Y-66604D01*
X519469Y-67560D01*
X519623Y-68530D01*
X519700Y-69509D01*
X519700Y-70491D01*
X519623Y-71470D01*
X519469Y-72441D01*
X519240Y-73396D01*
X518936Y-74330D01*
X518561Y-75237D01*
X518115Y-76112D01*
X517601Y-76950D01*
X517024Y-77745D01*
X516386Y-78492D01*
X515692Y-79186D01*
X514945Y-79824D01*
X514150Y-80401D01*
X513312Y-80915D01*
X512437Y-81361D01*
X511530Y-81736D01*
X510596Y-82040D01*
X509641Y-82269D01*
X508670Y-82423D01*
X507691Y-82500D01*
X506709Y-82500D01*
X505730Y-82423D01*
X504760Y-82269D01*
X503804Y-82040D01*
X502870Y-81736D01*
X501963Y-81361D01*
X501088Y-80915D01*
X500250Y-80401D01*
X499455Y-79824D01*
X498708Y-79186D01*
X498014Y-78492D01*
X497376Y-77745D01*
X496799Y-76950D01*
X496285Y-76112D01*
X495839Y-75237D01*
X495464Y-74330D01*
X495160Y-73396D01*
X494931Y-72441D01*
X494777Y-71470D01*
X494700Y-70491D01*
X494700Y-69509D01*
X394700Y-69509D02*
X394777Y-68530D01*
X394931Y-67560D01*
X395160Y-66604D01*
X395464Y-65670D01*
X395839Y-64763D01*
X396285Y-63888D01*
X396799Y-63050D01*
X397376Y-62255D01*
X398014Y-61508D01*
X398708Y-60814D01*
X399455Y-60176D01*
X400250Y-59599D01*
X401088Y-59085D01*
X401963Y-58639D01*
X402870Y-58264D01*
X403804Y-57960D01*
X404760Y-57731D01*
X405730Y-57577D01*
X406709Y-57500D01*
X407691Y-57500D01*
X408670Y-57577D01*
X409641Y-57731D01*
X410596Y-57960D01*
X411530Y-58264D01*
X412437Y-58639D01*
X413312Y-59085D01*
X414150Y-59599D01*
X414945Y-60176D01*
X415692Y-60814D01*
X416386Y-61508D01*
X417024Y-62255D01*
X417601Y-63050D01*
X418115Y-63888D01*
X418561Y-64763D01*
X418936Y-65670D01*
X419240Y-66604D01*
X419469Y-67560D01*
X419623Y-68530D01*
X419700Y-69509D01*
X419700Y-70491D01*
X419623Y-71470D01*
X419469Y-72441D01*
X419240Y-73396D01*
X418936Y-74330D01*
X418561Y-75237D01*
X418115Y-76112D01*
X417601Y-76950D01*
X417024Y-77745D01*
X416386Y-78492D01*
X415692Y-79186D01*
X414945Y-79824D01*
X414150Y-80401D01*
X413312Y-80915D01*
X412437Y-81361D01*
X411530Y-81736D01*
X410596Y-82040D01*
X409641Y-82269D01*
X408670Y-82423D01*
X407691Y-82500D01*
X406709Y-82500D01*
X405730Y-82423D01*
X404760Y-82269D01*
X403804Y-82040D01*
X402870Y-81736D01*
X401963Y-81361D01*
X401088Y-80915D01*
X400250Y-80401D01*
X399455Y-79824D01*
X398708Y-79186D01*
X398014Y-78492D01*
X397376Y-77745D01*
X396799Y-76950D01*
X396285Y-76112D01*
X395839Y-75237D01*
X395464Y-74330D01*
X395160Y-73396D01*
X394931Y-72441D01*
X394777Y-71470D01*
X394700Y-70491D01*
X394700Y-69509D01*
X342300Y-69509D02*
X342377Y-68530D01*
X342531Y-67560D01*
X342760Y-66604D01*
X343064Y-65670D01*
X343439Y-64763D01*
X343885Y-63888D01*
X344399Y-63050D01*
X344976Y-62255D01*
X345614Y-61508D01*
X346308Y-60814D01*
X347055Y-60176D01*
X347850Y-59599D01*
X348688Y-59085D01*
X349563Y-58639D01*
X350470Y-58264D01*
X351404Y-57960D01*
X352360Y-57731D01*
X353330Y-57577D01*
X354309Y-57500D01*
X355291Y-57500D01*
X356270Y-57577D01*
X357241Y-57731D01*
X358196Y-57960D01*
X359130Y-58264D01*
X360037Y-58639D01*
X360912Y-59085D01*
X361750Y-59599D01*
X362545Y-60176D01*
X363292Y-60814D01*
X363986Y-61508D01*
X364624Y-62255D01*
X365201Y-63050D01*
X365715Y-63888D01*
X366161Y-64763D01*
X366536Y-65670D01*
X366840Y-66604D01*
X367069Y-67560D01*
X367223Y-68530D01*
X367300Y-69509D01*
X367300Y-70491D01*
X367223Y-71470D01*
X367069Y-72441D01*
X366840Y-73396D01*
X366536Y-74330D01*
X366161Y-75237D01*
X365715Y-76112D01*
X365201Y-76950D01*
X364624Y-77745D01*
X363986Y-78492D01*
X363292Y-79186D01*
X362545Y-79824D01*
X361750Y-80401D01*
X360912Y-80915D01*
X360037Y-81361D01*
X359130Y-81736D01*
X358196Y-82040D01*
X357241Y-82269D01*
X356270Y-82423D01*
X355291Y-82500D01*
X354309Y-82500D01*
X353330Y-82423D01*
X352360Y-82269D01*
X351404Y-82040D01*
X350470Y-81736D01*
X349563Y-81361D01*
X348688Y-80915D01*
X347850Y-80401D01*
X347055Y-79824D01*
X346308Y-79186D01*
X345614Y-78492D01*
X344976Y-77745D01*
X344399Y-76950D01*
X343885Y-76112D01*
X343439Y-75237D01*
X343064Y-74330D01*
X342760Y-73396D01*
X342531Y-72441D01*
X342377Y-71470D01*
X342300Y-70491D01*
X342300Y-69509D01*
X242300Y-69509D02*
X242377Y-68530D01*
X242531Y-67560D01*
X242760Y-66604D01*
X243064Y-65670D01*
X243439Y-64763D01*
X243885Y-63888D01*
X244399Y-63050D01*
X244976Y-62255D01*
X245614Y-61508D01*
X246308Y-60814D01*
X247055Y-60176D01*
X247850Y-59599D01*
X248688Y-59085D01*
X249563Y-58639D01*
X250470Y-58264D01*
X251404Y-57960D01*
X252360Y-57731D01*
X253330Y-57577D01*
X254309Y-57500D01*
X255291Y-57500D01*
X256270Y-57577D01*
X257241Y-57731D01*
X258196Y-57960D01*
X259130Y-58264D01*
X260037Y-58639D01*
X260912Y-59085D01*
X261750Y-59599D01*
X262545Y-60176D01*
X263292Y-60814D01*
X263986Y-61508D01*
X264624Y-62255D01*
X265201Y-63050D01*
X265715Y-63888D01*
X266161Y-64763D01*
X266536Y-65670D01*
X266840Y-66604D01*
X267069Y-67560D01*
X267223Y-68530D01*
X267300Y-69509D01*
X267300Y-70491D01*
X267223Y-71470D01*
X267069Y-72441D01*
X266840Y-73396D01*
X266536Y-74330D01*
X266161Y-75237D01*
X265715Y-76112D01*
X265201Y-76950D01*
X264624Y-77745D01*
X263986Y-78492D01*
X263292Y-79186D01*
X262545Y-79824D01*
X261750Y-80401D01*
X260912Y-80915D01*
X260037Y-81361D01*
X259130Y-81736D01*
X258196Y-82040D01*
X257241Y-82269D01*
X256270Y-82423D01*
X255291Y-82500D01*
X254309Y-82500D01*
X253330Y-82423D01*
X252360Y-82269D01*
X251404Y-82040D01*
X250470Y-81736D01*
X249563Y-81361D01*
X248688Y-80915D01*
X247850Y-80401D01*
X247055Y-79824D01*
X246308Y-79186D01*
X245614Y-78492D01*
X244976Y-77745D01*
X244399Y-76950D01*
X243885Y-76112D01*
X243439Y-75237D01*
X243064Y-74330D01*
X242760Y-73396D01*
X242531Y-72441D01*
X242377Y-71470D01*
X242300Y-70491D01*
X242300Y-69509D01*
M02*
