M48
;GenerationSoftware,Autodesk,EAGLE,9.6.2*%
;CreationDate,2022-12-11T08:38:51Z*%
FMAT,2
ICI,OFF
METRIC,TZ,000.000
T9C0.305
T8C0.889
T7C0.920
T6C1.000
T5C1.400
T4C2.300
T3C2.500
T2C3.000
T1C3.175
%
G90
M71
T1
X3810Y46990
X3810Y3810
X72390Y3810
X72390Y46990
T2
X635Y64135
X635Y6985
X76835Y64135
X76835Y6985
T3
X50720Y-7000
X40720Y-7000
X35480Y-7000
X25480Y-7000
T4
X66210Y31010
X66210Y17870
T5
X69115Y40
X69115Y5040
X56615Y5040
X56615Y40
X7085Y40
X7085Y5040
X19585Y5040
X19585Y40
T6
X76835Y41910
X76835Y39370
X76835Y36830
X76835Y34290
X76835Y31750
X76835Y29210
X76835Y26670
X76835Y24130
X76835Y21590
X76835Y19050
X76835Y16510
X76835Y13970
X76835Y11430
X635Y59690
X635Y57150
X635Y54610
X635Y52070
X635Y49530
X635Y46990
X635Y44450
X635Y41910
X635Y39370
X635Y36830
X635Y34290
X635Y31750
X635Y29210
X635Y26670
X635Y24130
X635Y21590
X635Y19050
X635Y16510
X635Y13970
X635Y11430
X76835Y44450
X76835Y46990
X48220Y0
X45720Y0
X43220Y0
X27980Y0
X76835Y49530
X76835Y52070
X76835Y54610
X76835Y57150
X76835Y59690
X32980Y0
X30480Y0
T7
X63500Y27940
X63500Y25440
X63500Y23440
X63500Y20940
T8
X26230Y16790
X26230Y14250
X28770Y16790
X28770Y14250
X31310Y16790
X31310Y14250
X33850Y16790
X33850Y14250
X36390Y16790
X36390Y14250
X38930Y16790
X38930Y14250
X41470Y16790
X41470Y14250
X44010Y16790
X44010Y14250
X46550Y16790
X46550Y14250
X49090Y16790
X49090Y14250
X51630Y16790
X51630Y14250
X23690Y14250
X23690Y16790
X21150Y14250
X21150Y16790
X18610Y14250
X18610Y16790
X16070Y14250
X16070Y16790
X13530Y14250
X13530Y16790
X10990Y14250
X10990Y16790
X8450Y14250
X8450Y16790
X51630Y39650
X51630Y42190
X49090Y39650
X49090Y42190
X46550Y39650
X46550Y42190
X44010Y39650
X44010Y42190
X41470Y39650
X41470Y42190
X38930Y39650
X38930Y42190
X36390Y39650
X36390Y42190
X33850Y39650
X33850Y42190
X31310Y39650
X31310Y42190
X28770Y39650
X28770Y42190
X26230Y39650
X26230Y42190
X23690Y39650
X23690Y42190
X21150Y39650
X21150Y42190
X18610Y39650
X18610Y42190
X16070Y39650
X16070Y42190
X13530Y39650
X13530Y42190
X10990Y39650
X10990Y42190
X8450Y39650
X8450Y42190
T9
X55118Y24638
X55118Y25654
X22860Y5588
X60960Y34290
X60960Y35560
X66040Y34290
X66040Y35560
X66040Y36830
X60960Y36830
X66040Y46990
X66040Y44450
X60960Y44450
X60960Y45720
X60960Y46990
X72136Y11176
X69342Y11176
X69088Y40640
X69088Y27940
M30